<svg width="709" height="709" viewBox="0 0 709 709" fill="none" xmlns="http://www.w3.org/2000/svg">
<path fill-rule="evenodd" clip-rule="evenodd" d="M496.579 61.037C493.322 62.194 488.822 64.422 486.579 65.99C484.335 67.558 456.535 94.864 424.801 126.67C362.111 189.502 363.288 188.119 360.885 201.762C359.655 208.745 360.859 216.939 364.144 223.935C365.751 227.357 381.197 243.45 425.839 288.215C489.749 352.3 490.373 352.843 502.637 355.11C509.663 356.409 518.006 355.021 525.467 351.312C529.357 349.378 544.171 335.15 590.707 288.655C644.093 235.314 651.215 227.836 653.581 222.639C659.146 210.412 657.569 195.985 649.489 185.185C647.149 182.058 619.419 153.816 587.867 122.426C534.637 69.467 530.042 65.151 524.149 62.574C515.335 58.72 504.764 58.131 496.579 61.037ZM111.746 116.071C101.72 118.473 91.075 127.268 86.679 136.783L84.5 141.5V225.021V308.542L87.793 315.231C91.73 323.228 98.941 330 107 333.269L112.5 335.5L190.365 335.779C240.717 335.96 270.197 335.695 273.799 335.029C285.278 332.907 295.024 325.599 300.667 314.881L303.5 309.5V225.5V141.5L300.706 135.81C297.153 128.575 288.834 120.884 281.247 117.821L275.5 115.5L195.5 115.336C150.943 115.245 113.837 115.57 111.746 116.071ZM107.879 412.657C101.596 414.767 94.175 420.551 90.241 426.403C83.746 436.068 83.926 433.173 84.227 523.085L84.5 604.5L87.218 610.033C90.687 617.097 97.892 624.302 104.962 627.778L110.5 630.5H193.5H276.5L282.712 627.631C290.969 623.816 298.91 615.529 301.858 607.649L304.045 601.806L303.772 519.153L303.5 436.5L300.689 431.162C296.925 424.017 290.139 417.424 283.196 414.17L277.5 411.5L195 411.303C122.744 411.13 111.926 411.298 107.879 412.657ZM404.5 412.391C395.289 415.288 386.69 423.165 382.135 432.88L379.5 438.5L379.195 517C378.877 599.046 379.055 603.268 383.186 611.364C386.131 617.137 393.708 624.219 400.513 627.56L406.5 630.5H489.5H572.5L578.175 627.84C586.121 624.115 592.397 617.97 596.25 610.144L599.5 603.542V521.021V438.5L596.599 432.218C592.876 424.156 584.319 416.011 576.497 413.085C571.012 411.032 569.661 411.001 489.712 411.067C427.42 411.118 407.568 411.427 404.5 412.391Z" fill="#FF3B9D"/>
</svg>
