<svg width="225" height="225" viewBox="0 0 225 225" fill="none" xmlns="http://www.w3.org/2000/svg">
<path fill-rule="evenodd" clip-rule="evenodd" d="M115.394 50.338C112.767 52.598 112.417 54.215 104.855 99.088C100.553 124.614 96.7631 147.525 96.4331 150C96.1021 152.475 95.4311 156.3 94.9401 158.5C94.4501 160.7 94.0381 164.553 94.0241 167.063C94.0051 170.775 94.5231 172.127 96.8051 174.313C100.456 177.811 105.777 177.956 109.606 174.663C112.233 172.403 112.582 170.787 120.139 125.913C124.438 100.386 128.229 77.475 128.562 75C128.895 72.525 129.569 68.7 130.06 66.5C130.55 64.3 130.962 60.553 130.976 58.173C131.025 49.508 121.769 44.854 115.394 50.338ZM71.3431 67.285C70.1561 67.953 65.6561 71.693 61.3431 75.595C57.0291 79.497 46.3001 89.076 37.5001 96.881C28.7001 104.686 21.3731 111.633 21.2191 112.317C20.9421 113.542 65.0571 153.346 69.3161 155.715C72.3401 157.396 74.7061 157.287 78.0531 155.309C84.4371 151.539 84.2711 144.206 77.6651 138.104C72.2251 133.079 62.4541 124.319 52.2761 115.343L49.0531 112.5L56.2761 106.105C60.2491 102.587 66.9431 96.612 71.1521 92.826C75.3611 89.04 79.9681 85.027 81.3901 83.908C90.5611 76.694 81.4381 61.602 71.3431 67.285ZM148.388 68.98C145.317 70.221 142 74.859 142 77.912C142 81.038 144.115 84.285 148.872 88.459C150.778 90.131 153.949 92.965 155.919 94.756C157.888 96.547 163.221 101.272 167.769 105.256L176.038 112.5L173.769 114.36C172.521 115.383 169.211 118.308 166.414 120.86C163.617 123.412 157.771 128.65 153.422 132.5C139.898 144.473 139.996 144.351 140.033 149.173C140.082 155.543 142.89 158.5 148.891 158.5H153.557L178.778 136.058C192.65 123.715 204 113.125 204 112.526C204 111.024 159.528 71.417 155.316 69.167C152.802 67.824 151.346 67.785 148.388 68.98Z" fill="#FF3B9D"/>
</svg>
