<svg width="63" height="63" viewBox="0 0 63 63" fill="none" xmlns="http://www.w3.org/2000/svg">
<path d="M30.543 7.73221C30.9827 7.72472 31.4471 7.7149 31.8271 7.79276C32.4148 7.91314 32.7568 8.21258 32.9873 8.44315L33.1445 8.60916C33.314 8.80021 33.5087 9.06618 33.627 9.40799C33.8106 9.93906 33.7463 10.4489 33.5723 10.8787C33.42 11.2546 33.1772 11.5895 32.9463 11.8728C32.7042 12.1698 32.395 12.5047 32.0342 12.8826C31.3496 13.5995 30.588 14.5132 30.3477 14.8748C27.0986 19.7628 27.2639 25.8239 30.7549 30.4646C32.626 32.952 35.2972 34.6588 38.7959 35.5066H38.7969C39.0438 35.5665 39.8619 35.6273 41.4199 35.6209L42.6523 35.6062C42.9671 35.5981 43.2016 35.5855 43.4033 35.5662C43.7669 35.5314 44.0377 35.4733 44.5547 35.3347C46.9723 34.6864 48.6916 33.7086 50.7109 31.7898V31.7888C51.1129 31.407 51.4604 31.0851 51.7607 30.8347C52.0478 30.5955 52.3775 30.3477 52.7412 30.1863C53.1588 30.0011 53.6469 29.919 54.1689 30.0594C54.501 30.1487 54.7723 30.3107 54.9678 30.45L55.1377 30.5779V30.5789L55.4814 30.8494L56.0684 31.3113L56.0342 32.0574L55.959 33.6746C55.7874 37.3564 54.488 41.434 52.4688 44.6844C48.8672 50.4813 43.3684 54.3004 36.5303 55.7898C35.2173 56.0758 34.5889 56.1048 31.8945 56.1072C29.5096 56.1092 28.4999 56.0678 27.4443 55.866C17.3567 53.9365 9.73532 46.3024 7.85645 36.2342C7.64679 35.1106 7.60132 34.1441 7.60156 31.8826C7.60195 28.4848 7.80836 27.0561 8.74414 24.2566C11.7251 15.3387 19.5022 9.01317 28.9238 7.81033L29.2188 7.78299C29.5782 7.75819 30.1024 7.73968 30.543 7.73221Z" fill="#FF7BC4" stroke="#FF5FAA" stroke-width="2.90318"/>
</svg>
