<svg width="63" height="63" viewBox="0 0 63 63" fill="none" xmlns="http://www.w3.org/2000/svg">
<path d="M31.374 43.3086C31.7646 43.3406 32.1143 43.4764 32.3574 43.5948C32.6606 43.7423 32.9843 43.9542 33.2549 44.2246C33.3657 44.3354 33.61 44.5702 33.7949 44.916C33.9847 45.2711 34.0625 45.6382 34.1045 45.9893C34.1807 46.6274 34.1787 47.6676 34.1787 49.4239C34.1787 51.1803 34.1807 52.2204 34.1045 52.8584C34.0625 53.2095 33.9846 53.5757 33.7949 53.9307C33.6563 54.19 33.4844 54.3867 33.3604 54.5157L33.2549 54.6221C32.9842 54.8927 32.6607 55.1053 32.3574 55.253C32.0796 55.3882 31.6621 55.5459 31.2041 55.5459C30.7461 55.5459 30.3286 55.3881 30.0508 55.253C29.8232 55.1422 29.5847 54.9944 29.3652 54.8135L29.1533 54.6221C29.0424 54.5113 28.7991 54.2764 28.6143 53.9307C28.4245 53.5758 28.3466 53.2095 28.3047 52.8584C28.2285 52.2204 28.2295 51.1803 28.2295 49.4239C28.2295 47.6675 28.2285 46.6274 28.3047 45.9893C28.3466 45.6382 28.4245 45.2711 28.6143 44.916C28.7992 44.5703 29.0426 44.3354 29.1533 44.2246C29.4238 43.9542 29.7476 43.7424 30.0508 43.5948C30.3286 43.4596 30.7461 43.3018 31.2041 43.3018L31.374 43.3086ZM19.7295 39.6416C20.3385 39.6907 20.788 39.9815 21.0645 40.1875C21.4283 40.4587 21.6518 40.8385 21.7695 41.0694C21.9092 41.3432 22.0294 41.6679 22.0947 42C22.1309 42.1841 22.2079 42.5703 22.1064 43.0293C22.0083 43.473 21.7819 43.8293 21.5615 44.1182C21.1503 44.6572 20.3747 45.4349 19.1025 46.7071C18.3717 47.4379 17.7712 48.025 17.2734 48.4737C16.79 48.9093 16.329 49.2836 15.8809 49.5293C15.4087 49.7881 14.7992 49.9867 14.1113 49.8203C13.4922 49.6705 13.0637 49.2766 12.8154 49.0284C12.5613 48.7742 12.1692 48.3447 12.0176 47.7276C11.8488 47.0404 12.0421 46.4285 12.3027 45.9502C12.549 45.4983 12.9249 45.0372 13.3604 44.5567C13.8087 44.0619 14.3942 43.4679 15.1221 42.7471C16.4616 41.4206 17.4145 40.509 18.165 40.0596C18.5811 39.8105 19.1092 39.5917 19.7295 39.6416ZM42.1475 39.6719C42.775 39.5822 43.322 39.7662 43.7754 40.0215C44.1997 40.2605 44.6332 40.6137 45.0889 41.0244C45.557 41.4464 46.1228 41.9975 46.8154 42.6846C47.9256 43.7858 48.646 44.5209 49.083 45.0586C49.5395 45.6203 49.8827 46.1973 49.8828 46.961C49.8828 48.5071 48.7374 49.8594 47.0713 49.8594C46.3069 49.8594 45.7246 49.5038 45.1768 49.0616C44.6403 48.6285 43.91 47.9197 42.8271 46.8369C41.6662 45.676 40.9376 44.9358 40.5166 44.3946C40.2927 44.1066 40.0925 43.7971 39.9629 43.4395C39.8255 43.0603 39.8047 42.7286 39.8047 42.4717C39.8047 42.1064 39.8445 41.6793 40.0244 41.2578C40.2192 40.8017 40.5264 40.4687 40.875 40.2246C41.1432 40.0368 41.5795 39.7531 42.1475 39.6719ZM29.0635 19.7744C29.8761 19.5947 30.9688 19.5906 31.9629 19.67C32.9723 19.7505 34.0692 19.9326 34.9111 20.2237C39.574 21.8353 42.7079 26.2217 42.708 31.1475C42.708 34.2926 41.5863 36.9209 39.3125 39.2256C34.8359 43.7626 27.5723 43.7627 23.0957 39.2256C22.3538 38.4736 21.4372 37.325 21.0439 36.5879C18.7435 32.2768 19.4435 26.8495 22.7822 23.3194C24.5667 21.4325 26.5067 20.3401 29.0635 19.7744ZM10.5986 28.1455C11.2799 28.1061 12.2078 28.1026 13.4785 28.1221C14.3738 28.1358 15.0942 28.1512 15.667 28.1836C16.2259 28.2152 16.732 28.2664 17.1641 28.3799C17.6288 28.5021 18.0873 28.7163 18.4639 29.1211C18.7203 29.3969 18.8805 29.7024 18.9873 29.9512L19.0781 30.1778L19.1279 30.3242C19.3481 31.0528 19.1651 31.7915 18.9648 32.2647C18.7565 32.7568 18.305 33.4891 17.501 33.7979L17.5 33.7989C17.28 33.8831 17.0492 33.9058 17.0117 33.9102C16.9087 33.9224 16.7909 33.9322 16.6699 33.9405C16.4244 33.9572 16.1067 33.9708 15.7451 33.9825C15.0189 34.0059 14.0722 34.0205 13.0771 34.0205C11.4257 34.0205 10.424 34.0171 9.79297 33.9483C9.45728 33.9116 9.11208 33.8469 8.77832 33.6963C8.42376 33.5363 8.18836 33.3258 8.03906 33.1856H8.03809C7.31652 32.5074 6.96476 31.5561 7.13965 30.5967C7.31346 29.6433 7.97044 28.8807 8.86133 28.4805C9.35823 28.2572 9.95516 28.1828 10.5986 28.1455ZM49.5117 28.0791C50.96 28.0754 51.8717 28.0722 52.4736 28.1563C52.8229 28.2051 53.1548 28.2922 53.4824 28.4639C53.7819 28.6209 54.0146 28.8193 54.1562 28.9385C54.7186 29.4118 55.2014 30.0792 55.2773 30.9287C55.355 31.7979 54.9795 32.5427 54.4629 33.0928C54.3477 33.2154 54.1149 33.4663 53.749 33.6553C53.3951 33.838 53.0273 33.9097 52.6865 33.9483C52.0501 34.0203 51.0081 34.0205 49.2529 34.0205C47.5042 34.0205 46.4638 34.0198 45.8428 33.9502C45.5228 33.9143 45.1304 33.8445 44.7607 33.6338C44.351 33.4002 44.1311 33.083 44.0381 32.9502C43.5222 32.2137 43.3081 31.3119 43.5273 30.4366C43.7492 29.5513 44.3767 28.8518 45.2246 28.4825L45.4072 28.4112C45.8489 28.259 46.3932 28.196 46.916 28.1563C47.5764 28.1061 48.4371 28.0819 49.5117 28.0791ZM14.1084 12.6787C14.7938 12.5119 15.4025 12.7073 15.875 12.9649C16.3227 13.209 16.7817 13.5808 17.2617 14.0127C17.756 14.4575 18.3507 15.0392 19.0742 15.7627C19.9485 16.637 20.6508 17.3778 21.1426 17.9463C21.3858 18.2274 21.5999 18.4918 21.7607 18.7237C21.8399 18.8379 21.927 18.9742 22 19.1201C22.0489 19.218 22.1982 19.5201 22.1982 19.9092C22.1982 20.7425 21.7603 21.4522 21.3486 21.8946C20.951 22.3217 20.246 22.8525 19.3584 22.8526C18.9199 22.8526 18.5508 22.7046 18.2705 22.5508C17.9938 22.399 17.7193 22.194 17.4453 21.9659C16.8965 21.5089 16.1508 20.7887 15.0967 19.7325C14.3756 19.0099 13.7953 18.4156 13.3516 17.9209C12.9207 17.4406 12.55 16.9804 12.3066 16.5313C12.0495 16.0568 11.8561 15.448 12.0234 14.7637C12.1741 14.1478 12.5646 13.7206 12.8154 13.4698C13.0643 13.2209 13.4917 12.829 14.1084 12.6787ZM45.9062 12.9727C46.3819 12.7155 46.959 12.5434 47.6084 12.6768C48.1842 12.7951 48.6153 13.1208 48.8799 13.335L48.9971 13.4346C49.2649 13.6754 49.4976 13.9759 49.6543 14.3526C49.8276 14.7693 49.869 15.1872 49.8584 15.5635V15.5645C49.8497 15.8679 49.7959 16.1939 49.6406 16.5498C49.499 16.8743 49.2975 17.1671 49.0732 17.4463C48.64 17.9858 47.9188 18.7202 46.7939 19.836C46.1068 20.5176 45.5445 21.0643 45.0791 21.4834C44.6262 21.8912 44.1944 22.2427 43.7705 22.4805C43.317 22.7349 42.7703 22.9164 42.1445 22.8262C41.7198 22.7649 41.3686 22.5906 41.1064 22.4278L40.875 22.2735C40.5265 22.0295 40.2192 21.6973 40.0244 21.2412C39.8445 20.8198 39.8047 20.3927 39.8047 20.0274C39.8047 19.7704 39.8254 19.438 39.9629 19.0586C40.0925 18.701 40.2927 18.3915 40.5166 18.1035C40.9376 17.5623 41.6662 16.8221 42.8271 15.6612C43.5202 14.9682 44.0885 14.4105 44.5615 13.9844C45.0208 13.5706 45.4658 13.2109 45.9062 12.9727ZM31.2041 6.95316C31.662 6.95316 32.0796 7.10996 32.3574 7.24515C32.6607 7.39273 32.9843 7.60548 33.2549 7.87601C33.3657 7.98675 33.61 8.22152 33.7949 8.56741C33.9847 8.92243 34.0625 9.28955 34.1045 9.64066C34.1807 10.2788 34.1787 11.319 34.1787 13.0752C34.1787 14.8316 34.1807 15.8717 34.1045 16.5098C34.0625 16.8608 33.9846 17.2271 33.7949 17.5821C33.61 17.928 33.3657 18.1627 33.2549 18.2735C32.9842 18.544 32.6607 18.7567 32.3574 18.9043C32.0796 19.0395 31.6621 19.1973 31.2041 19.1973C30.7461 19.1972 30.3286 19.0395 30.0508 18.9043C29.7475 18.7567 29.4239 18.5441 29.1533 18.2735C29.0425 18.1627 28.7991 17.9278 28.6143 17.5821C28.4246 17.2272 28.3466 16.8608 28.3047 16.5098C28.2285 15.8717 28.2295 14.8316 28.2295 13.0752C28.2295 11.319 28.2285 10.2788 28.3047 9.64066C28.3466 9.28955 28.4245 8.92243 28.6143 8.56741C28.7991 8.2217 29.0425 7.98676 29.1533 7.87601C29.424 7.60541 29.7475 7.39278 30.0508 7.24515C30.3286 7.10996 30.7461 6.95321 31.2041 6.95316Z" fill="#FF7BC4" stroke="#FF5FAA" stroke-width="2.90318"/>
</svg>
