<svg width="614" height="164" viewBox="0 0 614 164" fill="none" xmlns="http://www.w3.org/2000/svg">
<g filter="url(#filter0_d_11_27)">
<path d="M560.407 132.348L550.484 132.474L540.561 132.599L530.638 132.724L520.715 132.849L522.864 123.168L532.787 123.043L542.71 122.918L552.633 122.793L562.556 122.668L564.705 112.987L554.782 113.112L544.859 113.237L534.936 113.362L537.084 103.681L527.161 103.807L529.31 94.1257L539.233 94.0005L541.382 84.3196L551.305 84.1944L561.228 84.0692L571.151 83.944L581.074 83.8188L578.925 93.4997L569.002 93.6249L559.079 93.7501L549.156 93.8753L547.007 103.556L556.931 103.431L566.854 103.306L576.777 103.181L574.628 112.861L584.551 112.736L582.402 122.417L572.479 122.542L570.33 132.223L560.407 132.348Z" fill="url(#paint0_linear_11_27)"/>
<path d="M520.715 132.849L519.585 132.863L519.34 133.966L520.47 133.952L520.715 132.849ZM522.864 123.168L523.108 122.066L521.978 122.08L521.733 123.183L522.864 123.168ZM562.556 122.668L562.311 123.77L563.441 123.756L563.686 122.653L562.556 122.668ZM564.705 112.987L565.835 112.972L566.08 111.87L564.949 111.884L564.705 112.987ZM534.936 113.362L533.805 113.376L533.561 114.479L534.691 114.465L534.936 113.362ZM537.084 103.681L538.215 103.667L538.459 102.564L537.329 102.579L537.084 103.681ZM527.161 103.807L526.031 103.821L525.786 104.924L526.917 104.909L527.161 103.807ZM529.31 94.1257L529.555 93.023L528.425 93.0373L528.18 94.14L529.31 94.1257ZM539.233 94.0005L538.989 95.1032L540.119 95.0889L540.364 93.9862L539.233 94.0005ZM541.382 84.3196L541.627 83.2169L540.497 83.2312L540.252 84.3339L541.382 84.3196ZM581.074 83.8188L582.205 83.8046L582.449 82.7019L581.319 82.7162L581.074 83.8188ZM578.925 93.4997L578.681 94.6024L579.811 94.5881L580.056 93.4854L578.925 93.4997ZM549.156 93.8753L549.401 92.7726L548.271 92.7869L548.026 93.8896L549.156 93.8753ZM547.007 103.556L545.877 103.57L545.632 104.673L546.763 104.659L547.007 103.556ZM576.777 103.181L577.907 103.166L578.152 102.064L577.021 102.078L576.777 103.181ZM574.628 112.861L573.497 112.876L573.253 113.978L574.383 113.964L574.628 112.861ZM584.551 112.736L585.681 112.722L585.926 111.619L584.796 111.634L584.551 112.736ZM582.402 122.417L582.157 123.52L583.287 123.506L583.532 122.403L582.402 122.417ZM572.479 122.542L572.724 121.44L571.593 121.454L571.349 122.557L572.479 122.542ZM570.33 132.223L570.085 133.326L571.216 133.312L571.46 132.209L570.33 132.223ZM560.407 132.348L560.652 131.246L550.729 131.371L550.484 132.474L550.239 133.576L560.162 133.451L560.407 132.348ZM550.484 132.474L550.729 131.371L540.806 131.496L540.561 132.599L540.316 133.701L550.239 133.576L550.484 132.474ZM540.561 132.599L540.806 131.496L530.883 131.621L530.638 132.724L530.393 133.827L540.316 133.701L540.561 132.599ZM530.638 132.724L530.883 131.621L520.96 131.746L520.715 132.849L520.47 133.952L530.393 133.827L530.638 132.724ZM520.715 132.849L521.845 132.835L523.994 123.154L522.864 123.168L521.733 123.183L519.585 132.863L520.715 132.849ZM522.864 123.168L522.619 124.271L532.542 124.146L532.787 123.043L533.032 121.94L523.108 122.066L522.864 123.168ZM532.787 123.043L532.542 124.146L542.465 124.021L542.71 122.918L542.955 121.815L533.032 121.94L532.787 123.043ZM542.71 122.918L542.465 124.021L552.388 123.895L552.633 122.793L552.878 121.69L542.955 121.815L542.71 122.918ZM552.633 122.793L552.388 123.895L562.311 123.77L562.556 122.668L562.801 121.565L552.878 121.69L552.633 122.793ZM562.556 122.668L563.686 122.653L565.835 112.972L564.705 112.987L563.574 113.001L561.426 122.682L562.556 122.668ZM564.705 112.987L564.949 111.884L555.026 112.009L554.782 113.112L554.537 114.215L564.46 114.089L564.705 112.987ZM554.782 113.112L555.026 112.009L545.103 112.134L544.859 113.237L544.614 114.34L554.537 114.215L554.782 113.112ZM544.859 113.237L545.103 112.134L535.18 112.26L534.936 113.362L534.691 114.465L544.614 114.34L544.859 113.237ZM534.936 113.362L536.066 113.348L538.215 103.667L537.084 103.681L535.954 103.696L533.805 113.376L534.936 113.362ZM537.084 103.681L537.329 102.579L527.406 102.704L527.161 103.807L526.917 104.909L536.84 104.784L537.084 103.681ZM527.161 103.807L528.292 103.792L530.441 94.1114L529.31 94.1257L528.18 94.14L526.031 103.821L527.161 103.807ZM529.31 94.1257L529.066 95.2284L538.989 95.1032L539.233 94.0005L539.478 92.8978L529.555 93.023L529.31 94.1257ZM539.233 94.0005L540.364 93.9862L542.512 84.3054L541.382 84.3196L540.252 84.3339L538.103 94.0148L539.233 94.0005ZM541.382 84.3196L541.137 85.4223L551.06 85.2971L551.305 84.1944L551.55 83.0917L541.627 83.2169L541.382 84.3196ZM551.305 84.1944L551.06 85.2971L560.983 85.1719L561.228 84.0692L561.473 82.9665L551.55 83.0917L551.305 84.1944ZM561.228 84.0692L560.983 85.1719L570.907 85.0467L571.151 83.944L571.396 82.8413L561.473 82.9665L561.228 84.0692ZM571.151 83.944L570.907 85.0467L580.83 84.9215L581.074 83.8188L581.319 82.7162L571.396 82.8413L571.151 83.944ZM581.074 83.8188L579.944 83.8331L577.795 93.514L578.925 93.4997L580.056 93.4854L582.205 83.8046L581.074 83.8188ZM578.925 93.4997L579.17 92.397L569.247 92.5222L569.002 93.6249L568.758 94.7276L578.681 94.6024L578.925 93.4997ZM569.002 93.6249L569.247 92.5222L559.324 92.6474L559.079 93.7501L558.835 94.8528L568.758 94.7276L569.002 93.6249ZM559.079 93.7501L559.324 92.6474L549.401 92.7726L549.156 93.8753L548.912 94.978L558.835 94.8528L559.079 93.7501ZM549.156 93.8753L548.026 93.8896L545.877 103.57L547.007 103.556L548.138 103.542L550.287 93.861L549.156 93.8753ZM547.007 103.556L546.763 104.659L556.686 104.534L556.931 103.431L557.175 102.328L547.252 102.453L547.007 103.556ZM556.931 103.431L556.686 104.534L566.609 104.408L566.854 103.306L567.098 102.203L557.175 102.328L556.931 103.431ZM566.854 103.306L566.609 104.408L576.532 104.283L576.777 103.181L577.021 102.078L567.098 102.203L566.854 103.306ZM576.777 103.181L575.646 103.195L573.497 112.876L574.628 112.861L575.758 112.847L577.907 103.166L576.777 103.181ZM574.628 112.861L574.383 113.964L584.306 113.839L584.551 112.736L584.796 111.634L574.872 111.759L574.628 112.861ZM584.551 112.736L583.421 112.751L581.272 122.431L582.402 122.417L583.532 122.403L585.681 112.722L584.551 112.736ZM582.402 122.417L582.647 121.314L572.724 121.44L572.479 122.542L572.234 123.645L582.157 123.52L582.402 122.417ZM572.479 122.542L571.349 122.557L569.2 132.237L570.33 132.223L571.46 132.209L573.609 122.528L572.479 122.542ZM570.33 132.223L570.575 131.121L560.652 131.246L560.407 132.348L560.162 133.451L570.085 133.326L570.33 132.223Z" fill="white"/>
</g>
<g filter="url(#filter1_d_11_27)">
<path d="M496.467 122.301L506.074 122.18L504.359 131.627L494.752 131.748L485.146 131.87L475.539 131.991L465.932 132.112L467.647 122.665L458.04 122.786L459.755 113.339L461.47 103.892L463.185 94.4445L472.792 94.3233L474.507 84.8761L484.113 84.7549L493.72 84.6337L503.327 84.5125L512.934 84.3912L511.219 93.8384L520.826 93.7172L519.111 103.164L509.504 103.286L507.789 112.733L498.182 112.854L488.575 112.975L478.969 113.096L477.254 122.544L486.86 122.422L496.467 122.301ZM490.29 103.528L499.897 103.407L501.612 93.9597L492.005 94.0809L482.398 94.2021L480.683 103.649L490.29 103.528Z" fill="url(#paint1_linear_11_27)"/>
<path d="M506.074 122.18L507.204 122.166L507.406 121.054L506.276 121.069L506.074 122.18ZM504.359 131.627L504.157 132.739L505.288 132.724L505.489 131.613L504.359 131.627ZM465.932 132.112L464.802 132.126L464.6 133.238L465.73 133.224L465.932 132.112ZM467.647 122.665L468.777 122.651L468.979 121.539L467.849 121.553L467.647 122.665ZM458.04 122.786L456.91 122.8L456.708 123.912L457.838 123.898L458.04 122.786ZM463.185 94.4445L463.387 93.333L462.256 93.3473L462.055 94.4587L463.185 94.4445ZM472.792 94.3233L472.59 95.4348L473.72 95.4205L473.922 94.309L472.792 94.3233ZM474.507 84.8761L474.708 83.7646L473.578 83.7789L473.376 84.8903L474.507 84.8761ZM512.934 84.3912L514.064 84.377L514.266 83.2655L513.136 83.2798L512.934 84.3912ZM511.219 93.8384L510.089 93.8527L509.887 94.9642L511.017 94.9499L511.219 93.8384ZM520.826 93.7172L521.956 93.703L522.158 92.5915L521.027 92.6058L520.826 93.7172ZM519.111 103.164L518.909 104.276L520.039 104.262L520.241 103.15L519.111 103.164ZM509.504 103.286L509.706 102.174L508.575 102.188L508.374 103.3L509.504 103.286ZM507.789 112.733L507.587 113.844L508.718 113.83L508.919 112.719L507.789 112.733ZM478.969 113.096L479.17 111.985L478.04 111.999L477.838 113.111L478.969 113.096ZM477.254 122.544L476.123 122.558L475.922 123.669L477.052 123.655L477.254 122.544ZM499.897 103.407L499.695 104.518L500.826 104.504L501.027 103.393L499.897 103.407ZM501.612 93.9597L502.742 93.9454L502.944 92.8339L501.814 92.8482L501.612 93.9597ZM482.398 94.2021L482.6 93.0906L481.47 93.1049L481.268 94.2163L482.398 94.2021ZM480.683 103.649L479.553 103.664L479.351 104.775L480.482 104.761L480.683 103.649ZM496.467 122.301L496.265 123.413L505.872 123.292L506.074 122.18L506.276 121.069L496.669 121.19L496.467 122.301ZM506.074 122.18L504.944 122.194L503.229 131.642L504.359 131.627L505.489 131.613L507.204 122.166L506.074 122.18ZM504.359 131.627L504.561 130.516L494.954 130.637L494.752 131.748L494.551 132.86L504.157 132.739L504.359 131.627ZM494.752 131.748L494.954 130.637L485.347 130.758L485.146 131.87L484.944 132.981L494.551 132.86L494.752 131.748ZM485.146 131.87L485.347 130.758L475.74 130.879L475.539 131.991L475.337 133.102L484.944 132.981L485.146 131.87ZM475.539 131.991L475.74 130.879L466.134 131.001L465.932 132.112L465.73 133.224L475.337 133.102L475.539 131.991ZM465.932 132.112L467.062 132.098L468.777 122.651L467.647 122.665L466.517 122.679L464.802 132.126L465.932 132.112ZM467.647 122.665L467.849 121.553L458.242 121.675L458.04 122.786L457.838 123.898L467.445 123.776L467.647 122.665ZM458.04 122.786L459.17 122.772L460.885 113.325L459.755 113.339L458.625 113.353L456.91 122.8L458.04 122.786ZM459.755 113.339L460.885 113.325L462.6 103.877L461.47 103.892L460.34 103.906L458.625 113.353L459.755 113.339ZM461.47 103.892L462.6 103.877L464.315 94.4302L463.185 94.4445L462.055 94.4587L460.34 103.906L461.47 103.892ZM463.185 94.4445L462.983 95.556L472.59 95.4348L472.792 94.3233L472.993 93.2118L463.387 93.333L463.185 94.4445ZM472.792 94.3233L473.922 94.309L475.637 84.8618L474.507 84.8761L473.376 84.8903L471.661 94.3375L472.792 94.3233ZM474.507 84.8761L474.305 85.9876L483.912 85.8663L484.113 84.7549L484.315 83.6434L474.708 83.7646L474.507 84.8761ZM484.113 84.7549L483.912 85.8663L493.518 85.7451L493.72 84.6337L493.922 83.5222L484.315 83.6434L484.113 84.7549ZM493.72 84.6337L493.518 85.7451L503.125 85.6239L503.327 84.5125L503.529 83.401L493.922 83.5222L493.72 84.6337ZM503.327 84.5125L503.125 85.6239L512.732 85.5027L512.934 84.3912L513.136 83.2798L503.529 83.401L503.327 84.5125ZM512.934 84.3912L511.804 84.4055L510.089 93.8527L511.219 93.8384L512.349 93.8242L514.064 84.377L512.934 84.3912ZM511.219 93.8384L511.017 94.9499L520.624 94.8287L520.826 93.7172L521.027 92.6058L511.421 92.727L511.219 93.8384ZM520.826 93.7172L519.695 93.7315L517.981 103.179L519.111 103.164L520.241 103.15L521.956 93.703L520.826 93.7172ZM519.111 103.164L519.313 102.053L509.706 102.174L509.504 103.286L509.302 104.397L518.909 104.276L519.111 103.164ZM509.504 103.286L508.374 103.3L506.659 112.747L507.789 112.733L508.919 112.719L510.634 103.271L509.504 103.286ZM507.789 112.733L507.991 111.621L498.384 111.743L498.182 112.854L497.98 113.966L507.587 113.844L507.789 112.733ZM498.182 112.854L498.384 111.743L488.777 111.864L488.575 112.975L488.374 114.087L497.98 113.966L498.182 112.854ZM488.575 112.975L488.777 111.864L479.17 111.985L478.969 113.096L478.767 114.208L488.374 114.087L488.575 112.975ZM478.969 113.096L477.838 113.111L476.123 122.558L477.254 122.544L478.384 122.529L480.099 113.082L478.969 113.096ZM477.254 122.544L477.052 123.655L486.659 123.534L486.86 122.422L487.062 121.311L477.455 121.432L477.254 122.544ZM486.86 122.422L486.659 123.534L496.265 123.413L496.467 122.301L496.669 121.19L487.062 121.311L486.86 122.422ZM490.29 103.528L490.089 104.64L499.695 104.518L499.897 103.407L500.099 102.295L490.492 102.417L490.29 103.528ZM499.897 103.407L501.027 103.393L502.742 93.9454L501.612 93.9597L500.482 93.9739L498.767 103.421L499.897 103.407ZM501.612 93.9597L501.814 92.8482L492.207 92.9694L492.005 94.0809L491.803 95.1923L501.41 95.0711L501.612 93.9597ZM492.005 94.0809L492.207 92.9694L482.6 93.0906L482.398 94.2021L482.197 95.3136L491.803 95.1923L492.005 94.0809ZM482.398 94.2021L481.268 94.2163L479.553 103.664L480.683 103.649L481.814 103.635L483.529 94.1878L482.398 94.2021ZM480.683 103.649L480.482 104.761L490.089 104.64L490.29 103.528L490.492 102.417L480.885 102.538L480.683 103.649Z" fill="white"/>
</g>
<g filter="url(#filter2_d_11_27)">
<path d="M431.808 134.533L420.073 134.538L423.007 123.187L411.272 123.192L414.206 111.841L417.14 100.489L420.074 89.1374L408.339 89.143L411.273 77.7914L423.007 77.7858L425.941 66.4342L437.676 66.4286L449.411 66.4231L446.477 77.7747L458.212 77.7691L455.278 89.1208L443.543 89.1263L440.61 100.478L437.676 111.83L434.742 123.181L446.477 123.176L443.543 134.527L431.808 134.533Z" fill="url(#paint2_linear_11_27)"/>
<path d="M420.073 134.538L418.943 134.539L418.66 135.632L419.791 135.632L420.073 134.538ZM423.007 123.187L424.138 123.186L424.42 122.093L423.29 122.093L423.007 123.187ZM411.272 123.192L410.142 123.193L409.859 124.286L410.99 124.286L411.272 123.192ZM420.074 89.1374L421.204 89.1369L421.487 88.0434L420.356 88.044L420.074 89.1374ZM408.339 89.143L407.208 89.1435L406.926 90.237L408.056 90.2365L408.339 89.143ZM411.273 77.7914L411.555 76.6979L410.425 76.6984L410.142 77.7919L411.273 77.7914ZM423.007 77.7858L422.725 78.8793L423.855 78.8787L424.138 77.7853L423.007 77.7858ZM425.941 66.4342L426.224 65.3407L425.093 65.3413L424.811 66.4347L425.941 66.4342ZM449.411 66.4231L450.541 66.4225L450.824 65.3291L449.694 65.3296L449.411 66.4231ZM446.477 77.7747L445.347 77.7752L445.064 78.8687L446.195 78.8682L446.477 77.7747ZM458.212 77.7691L459.343 77.7686L459.625 76.6751L458.495 76.6757L458.212 77.7691ZM455.278 89.1208L454.996 90.2142L456.126 90.2137L456.409 89.1202L455.278 89.1208ZM443.543 89.1263L443.826 88.0328L442.696 88.0334L442.413 89.1269L443.543 89.1263ZM434.742 123.181L433.612 123.182L433.329 124.275L434.459 124.275L434.742 123.181ZM446.477 123.176L447.607 123.175L447.89 122.082L446.76 122.082L446.477 123.176ZM443.543 134.527L443.261 135.621L444.391 135.62L444.674 134.527L443.543 134.527ZM431.808 134.533L432.091 133.439L420.356 133.445L420.073 134.538L419.791 135.632L431.526 135.626L431.808 134.533ZM420.073 134.538L421.204 134.538L424.138 123.186L423.007 123.187L421.877 123.187L418.943 134.539L420.073 134.538ZM423.007 123.187L423.29 122.093L411.555 122.099L411.272 123.192L410.99 124.286L422.725 124.28L423.007 123.187ZM411.272 123.192L412.403 123.192L415.336 111.84L414.206 111.841L413.076 111.841L410.142 123.193L411.272 123.192ZM414.206 111.841L415.336 111.84L418.27 100.489L417.14 100.489L416.009 100.49L413.076 111.841L414.206 111.841ZM417.14 100.489L418.27 100.489L421.204 89.1369L420.074 89.1374L418.943 89.138L416.009 100.49L417.14 100.489ZM420.074 89.1374L420.356 88.044L408.621 88.0495L408.339 89.143L408.056 90.2365L419.791 90.2309L420.074 89.1374ZM408.339 89.143L409.469 89.1424L412.403 77.7908L411.273 77.7914L410.142 77.7919L407.208 89.1435L408.339 89.143ZM411.273 77.7914L410.99 78.8848L422.725 78.8793L423.007 77.7858L423.29 76.6923L411.555 76.6979L411.273 77.7914ZM423.007 77.7858L424.138 77.7853L427.072 66.4337L425.941 66.4342L424.811 66.4347L421.877 77.7863L423.007 77.7858ZM425.941 66.4342L425.659 67.5277L437.393 67.5221L437.676 66.4286L437.959 65.3352L426.224 65.3407L425.941 66.4342ZM437.676 66.4286L437.393 67.5221L449.128 67.5166L449.411 66.4231L449.694 65.3296L437.959 65.3352L437.676 66.4286ZM449.411 66.4231L448.281 66.4236L445.347 77.7752L446.477 77.7747L447.608 77.7742L450.541 66.4225L449.411 66.4231ZM446.477 77.7747L446.195 78.8682L457.93 78.8626L458.212 77.7691L458.495 76.6757L446.76 76.6812L446.477 77.7747ZM458.212 77.7691L457.082 77.7697L454.148 89.1213L455.278 89.1208L456.409 89.1202L459.343 77.7686L458.212 77.7691ZM455.278 89.1208L455.561 88.0273L443.826 88.0328L443.543 89.1263L443.261 90.2198L454.996 90.2142L455.278 89.1208ZM443.543 89.1263L442.413 89.1269L439.479 100.478L440.61 100.478L441.74 100.477L444.674 89.1258L443.543 89.1263ZM440.61 100.478L439.479 100.478L436.545 111.83L437.676 111.83L438.806 111.829L441.74 100.477L440.61 100.478ZM437.676 111.83L436.545 111.83L433.612 123.182L434.742 123.181L435.872 123.181L438.806 111.829L437.676 111.83ZM434.742 123.181L434.459 124.275L446.194 124.269L446.477 123.176L446.76 122.082L435.025 122.088L434.742 123.181ZM446.477 123.176L445.347 123.176L442.413 134.528L443.543 134.527L444.674 134.527L447.607 123.175L446.477 123.176ZM443.543 134.527L443.826 133.434L432.091 133.439L431.808 134.533L431.526 135.626L443.261 135.621L443.543 134.527Z" fill="white"/>
</g>
<g filter="url(#filter3_d_11_27)">
<path d="M372.923 133.03L364.258 133.139L355.592 133.249L346.927 133.358L348.967 124.943L357.632 124.833L366.297 124.724L374.963 124.615L377.003 116.199L368.337 116.309L359.672 116.418L351.007 116.527L353.047 108.112L344.381 108.221L346.421 99.8057L348.461 91.3903L350.501 82.9749L359.166 82.8656L367.831 82.7562L365.792 91.1716L363.752 99.587L361.712 108.002L370.377 107.893L379.042 107.784L381.082 99.3684L383.122 90.953L385.162 82.5376L393.827 82.4282L402.493 82.3189L400.453 90.7343L398.413 99.1497L396.373 107.565L394.333 115.981L392.293 124.396L383.628 124.505L381.588 132.921L372.923 133.03Z" fill="url(#paint3_linear_11_27)"/>
<path d="M346.927 133.358L345.797 133.372L345.531 134.47L346.661 134.456L346.927 133.358ZM348.967 124.943L349.233 123.845L348.103 123.859L347.837 124.957L348.967 124.943ZM374.963 124.615L374.697 125.712L375.827 125.698L376.093 124.6L374.963 124.615ZM377.003 116.199L378.133 116.185L378.399 115.087L377.269 115.102L377.003 116.199ZM351.007 116.527L349.876 116.541L349.61 117.639L350.741 117.625L351.007 116.527ZM353.047 108.112L354.177 108.097L354.443 107L353.313 107.014L353.047 108.112ZM344.381 108.221L343.251 108.235L342.985 109.333L344.115 109.319L344.381 108.221ZM350.501 82.9749L350.767 81.8772L349.637 81.8915L349.371 82.9891L350.501 82.9749ZM367.831 82.7562L368.962 82.742L369.228 81.6443L368.097 81.6586L367.831 82.7562ZM361.712 108.002L360.582 108.017L360.316 109.114L361.446 109.1L361.712 108.002ZM379.042 107.784L378.776 108.881L379.907 108.867L380.173 107.77L379.042 107.784ZM385.162 82.5376L385.428 81.4399L384.298 81.4542L384.032 82.5518L385.162 82.5376ZM402.493 82.3189L403.623 82.3046L403.889 81.207L402.759 81.2212L402.493 82.3189ZM392.293 124.396L392.027 125.494L393.158 125.479L393.424 124.382L392.293 124.396ZM383.628 124.505L383.894 123.408L382.764 123.422L382.498 124.52L383.628 124.505ZM381.588 132.921L381.322 134.018L382.452 134.004L382.718 132.906L381.588 132.921ZM372.923 133.03L373.189 131.932L364.524 132.042L364.258 133.139L363.992 134.237L372.657 134.128L372.923 133.03ZM364.258 133.139L364.524 132.042L355.858 132.151L355.592 133.249L355.326 134.346L363.992 134.237L364.258 133.139ZM355.592 133.249L355.858 132.151L347.193 132.26L346.927 133.358L346.661 134.456L355.326 134.346L355.592 133.249ZM346.927 133.358L348.057 133.344L350.097 124.928L348.967 124.943L347.837 124.957L345.797 133.372L346.927 133.358ZM348.967 124.943L348.701 126.04L357.366 125.931L357.632 124.833L357.898 123.736L349.233 123.845L348.967 124.943ZM357.632 124.833L357.366 125.931L366.031 125.822L366.297 124.724L366.564 123.626L357.898 123.736L357.632 124.833ZM366.297 124.724L366.031 125.822L374.697 125.712L374.963 124.615L375.229 123.517L366.564 123.626L366.297 124.724ZM374.963 124.615L376.093 124.6L378.133 116.185L377.003 116.199L375.872 116.213L373.833 124.629L374.963 124.615ZM377.003 116.199L377.269 115.102L368.603 115.211L368.337 116.308L368.071 117.406L376.737 117.297L377.003 116.199ZM368.337 116.308L368.603 115.211L359.938 115.32L359.672 116.418L359.406 117.515L368.071 117.406L368.337 116.308ZM359.672 116.418L359.938 115.32L351.273 115.429L351.007 116.527L350.741 117.625L359.406 117.515L359.672 116.418ZM351.007 116.527L352.137 116.513L354.177 108.097L353.047 108.112L351.916 108.126L349.876 116.541L351.007 116.527ZM353.047 108.112L353.313 107.014L344.647 107.123L344.381 108.221L344.115 109.319L352.781 109.209L353.047 108.112ZM344.381 108.221L345.512 108.207L347.551 99.7914L346.421 99.8057L345.291 99.8199L343.251 108.235L344.381 108.221ZM346.421 99.8057L347.551 99.7914L349.591 91.376L348.461 91.3903L347.331 91.4045L345.291 99.8199L346.421 99.8057ZM348.461 91.3903L349.591 91.376L351.631 82.9606L350.501 82.9749L349.371 82.9891L347.331 91.4045L348.461 91.3903ZM350.501 82.9749L350.235 84.0725L358.9 83.9632L359.166 82.8655L359.432 81.7679L350.767 81.8772L350.501 82.9749ZM359.166 82.8655L358.9 83.9632L367.565 83.8539L367.831 82.7562L368.097 81.6586L359.432 81.7679L359.166 82.8655ZM367.831 82.7562L366.701 82.7705L364.661 91.1859L365.792 91.1716L366.922 91.1574L368.962 82.742L367.831 82.7562ZM365.792 91.1716L364.661 91.1859L362.621 99.6013L363.752 99.587L364.882 99.5728L366.922 91.1574L365.792 91.1716ZM363.752 99.587L362.621 99.6013L360.582 108.017L361.712 108.002L362.842 107.988L364.882 99.5728L363.752 99.587ZM361.712 108.002L361.446 109.1L370.111 108.991L370.377 107.893L370.643 106.795L361.978 106.905L361.712 108.002ZM370.377 107.893L370.111 108.991L378.776 108.881L379.042 107.784L379.309 106.686L370.643 106.795L370.377 107.893ZM379.042 107.784L380.173 107.77L382.213 99.3541L381.082 99.3684L379.952 99.3826L377.912 107.798L379.042 107.784ZM381.082 99.3684L382.213 99.3541L384.252 90.9387L383.122 90.953L381.992 90.9672L379.952 99.3826L381.082 99.3684ZM383.122 90.953L384.252 90.9387L386.292 82.5233L385.162 82.5376L384.032 82.5518L381.992 90.9672L383.122 90.953ZM385.162 82.5376L384.896 83.6352L393.561 83.5259L393.827 82.4282L394.093 81.3306L385.428 81.4399L385.162 82.5376ZM393.827 82.4282L393.561 83.5259L402.226 83.4166L402.493 82.3189L402.759 81.2212L394.093 81.3306L393.827 82.4282ZM402.493 82.3189L401.362 82.3332L399.322 90.7486L400.453 90.7343L401.583 90.72L403.623 82.3046L402.493 82.3189ZM400.453 90.7343L399.322 90.7486L397.283 99.164L398.413 99.1497L399.543 99.1355L401.583 90.72L400.453 90.7343ZM398.413 99.1497L397.283 99.164L395.243 107.579L396.373 107.565L397.503 107.551L399.543 99.1355L398.413 99.1497ZM396.373 107.565L395.243 107.579L393.203 115.995L394.333 115.981L395.463 115.966L397.503 107.551L396.373 107.565ZM394.333 115.981L393.203 115.995L391.163 124.41L392.293 124.396L393.424 124.382L395.463 115.966L394.333 115.981ZM392.293 124.396L392.559 123.298L383.894 123.408L383.628 124.505L383.362 125.603L392.027 125.494L392.293 124.396ZM383.628 124.505L382.498 124.52L380.458 132.935L381.588 132.921L382.718 132.906L384.758 124.491L383.628 124.505ZM381.588 132.921L381.854 131.823L373.189 131.932L372.923 133.03L372.657 134.128L381.322 134.018L381.588 132.921Z" fill="white"/>
</g>
<g filter="url(#filter4_d_11_27)">
<path d="M304.327 135.792L290.6 135.965L276.874 136.138L263.147 136.311L249.42 136.485L251.342 122.899L253.265 109.313L255.188 95.7273L257.111 82.1416L259.034 68.5558L260.957 54.9701L274.684 54.7969L288.411 54.6237L302.138 54.4505L315.865 54.2773L329.592 54.1041L327.669 67.6898L341.396 67.5167L339.473 81.1024L325.746 81.2756L323.823 94.8613L337.55 94.6882L335.627 108.274L333.704 121.86L319.977 122.033L318.054 135.619L304.327 135.792ZM292.523 122.379L306.25 122.206L308.173 108.62L310.096 95.0345L296.369 95.2077L282.642 95.3809L280.719 108.967L278.796 122.552L292.523 122.379ZM298.292 81.622L312.019 81.4488L313.942 67.863L300.215 68.0362L286.488 68.2094L284.565 81.7952L298.292 81.622Z" fill="url(#paint4_linear_11_27)"/>
<path d="M249.42 136.485L248.289 136.499L248.131 137.617L249.261 137.603L249.42 136.485ZM260.957 54.9701L261.116 53.8514L259.985 53.8657L259.827 54.9843L260.957 54.9701ZM329.592 54.1041L330.722 54.0898L330.881 52.9712L329.75 52.9855L329.592 54.1041ZM327.669 67.6898L326.539 67.7041L326.381 68.8227L327.511 68.8085L327.669 67.6898ZM341.396 67.5167L342.526 67.5024L342.685 66.3838L341.554 66.398L341.396 67.5167ZM339.473 81.1024L339.315 82.221L340.445 82.2068L340.603 81.0881L339.473 81.1024ZM325.746 81.2756L325.905 80.157L324.774 80.1712L324.616 81.2899L325.746 81.2756ZM323.823 94.8613L322.693 94.8756L322.535 95.9942L323.665 95.98L323.823 94.8613ZM337.55 94.6882L338.681 94.6739L338.839 93.5553L337.709 93.5695L337.55 94.6882ZM333.704 121.86L333.546 122.978L334.676 122.964L334.835 121.845L333.704 121.86ZM319.977 122.033L320.136 120.914L319.005 120.928L318.847 122.047L319.977 122.033ZM318.054 135.619L317.896 136.737L319.026 136.723L319.185 135.604L318.054 135.619ZM306.25 122.206L306.092 123.325L307.222 123.31L307.381 122.192L306.25 122.206ZM310.096 95.0345L311.227 95.0203L311.385 93.9016L310.255 93.9159L310.096 95.0345ZM282.642 95.3809L282.801 94.2623L281.67 94.2766L281.512 95.3952L282.642 95.3809ZM278.796 122.552L277.666 122.567L277.508 123.685L278.638 123.671L278.796 122.552ZM312.019 81.4488L311.861 82.5674L312.991 82.5532L313.15 81.4345L312.019 81.4488ZM313.942 67.863L315.072 67.8488L315.231 66.7302L314.101 66.7444L313.942 67.863ZM286.488 68.2094L286.647 67.0908L285.516 67.1051L285.358 68.2237L286.488 68.2094ZM284.565 81.7952L283.435 81.8094L283.277 82.9281L284.407 82.9138L284.565 81.7952ZM304.327 135.792L304.486 134.673L290.759 134.846L290.6 135.965L290.442 137.084L304.169 136.91L304.327 135.792ZM290.6 135.965L290.759 134.846L277.032 135.02L276.874 136.138L276.715 137.257L290.442 137.084L290.6 135.965ZM276.874 136.138L277.032 135.02L263.305 135.193L263.147 136.311L262.988 137.43L276.715 137.257L276.874 136.138ZM263.147 136.311L263.305 135.193L249.578 135.366L249.42 136.485L249.261 137.603L262.988 137.43L263.147 136.311ZM249.42 136.485L250.55 136.47L252.473 122.885L251.342 122.899L250.212 122.913L248.289 136.499L249.42 136.485ZM251.342 122.899L252.473 122.885L254.396 109.299L253.265 109.313L252.135 109.327L250.212 122.913L251.342 122.899ZM253.265 109.313L254.396 109.299L256.319 95.713L255.188 95.7273L254.058 95.7416L252.135 109.327L253.265 109.313ZM255.188 95.7273L256.319 95.713L258.242 82.1273L257.111 82.1416L255.981 82.1558L254.058 95.7416L255.188 95.7273ZM257.111 82.1416L258.242 82.1273L260.165 68.5416L259.034 68.5558L257.904 68.5701L255.981 82.1558L257.111 82.1416ZM259.034 68.5558L260.165 68.5416L262.087 54.9558L260.957 54.9701L259.827 54.9843L257.904 68.5701L259.034 68.5558ZM260.957 54.9701L260.799 56.0887L274.526 55.9155L274.684 54.7969L274.843 53.6782L261.116 53.8514L260.957 54.9701ZM274.684 54.7969L274.526 55.9155L288.253 55.7423L288.411 54.6237L288.57 53.505L274.843 53.6782L274.684 54.7969ZM288.411 54.6237L288.253 55.7423L301.98 55.5691L302.138 54.4505L302.297 53.3319L288.57 53.505L288.411 54.6237ZM302.138 54.4505L301.98 55.5691L315.707 55.3959L315.865 54.2773L316.023 53.1587L302.297 53.3319L302.138 54.4505ZM315.865 54.2773L315.707 55.3959L329.434 55.2227L329.592 54.1041L329.75 52.9855L316.023 53.1587L315.865 54.2773ZM329.592 54.1041L328.462 54.1184L326.539 67.7041L327.669 67.6898L328.799 67.6756L330.722 54.0898L329.592 54.1041ZM327.669 67.6898L327.511 68.8085L341.238 68.6353L341.396 67.5167L341.554 66.398L327.828 66.5712L327.669 67.6898ZM341.396 67.5167L340.266 67.5309L338.343 81.1167L339.473 81.1024L340.603 81.0881L342.526 67.5024L341.396 67.5167ZM339.473 81.1024L339.632 79.9838L325.905 80.157L325.746 81.2756L325.588 82.3942L339.315 82.221L339.473 81.1024ZM325.746 81.2756L324.616 81.2899L322.693 94.8756L323.823 94.8613L324.954 94.8471L326.876 81.2613L325.746 81.2756ZM323.823 94.8613L323.665 95.98L337.392 95.8068L337.55 94.6882L337.709 93.5695L323.982 93.7427L323.823 94.8613ZM337.55 94.6882L336.42 94.7024L334.497 108.288L335.627 108.274L336.758 108.26L338.681 94.6739L337.55 94.6882ZM335.627 108.274L334.497 108.288L332.574 121.874L333.704 121.86L334.835 121.845L336.758 108.26L335.627 108.274ZM333.704 121.86L333.863 120.741L320.136 120.914L319.977 122.033L319.819 123.151L333.546 122.978L333.704 121.86ZM319.977 122.033L318.847 122.047L316.924 135.633L318.054 135.619L319.185 135.604L321.108 122.019L319.977 122.033ZM318.054 135.619L318.213 134.5L304.486 134.673L304.327 135.792L304.169 136.91L317.896 136.737L318.054 135.619ZM292.523 122.379L292.365 123.498L306.092 123.325L306.25 122.206L306.409 121.087L292.682 121.261L292.523 122.379ZM306.25 122.206L307.381 122.192L309.304 108.606L308.173 108.62L307.043 108.635L305.12 122.22L306.25 122.206ZM308.173 108.62L309.304 108.606L311.227 95.0203L310.096 95.0345L308.966 95.0488L307.043 108.635L308.173 108.62ZM310.096 95.0345L310.255 93.9159L296.528 94.0891L296.369 95.2077L296.211 96.3264L309.938 96.1532L310.096 95.0345ZM296.369 95.2077L296.528 94.0891L282.801 94.2623L282.642 95.3809L282.484 96.4996L296.211 96.3264L296.369 95.2077ZM282.642 95.3809L281.512 95.3952L279.589 108.981L280.719 108.967L281.85 108.952L283.773 95.3667L282.642 95.3809ZM280.719 108.967L279.589 108.981L277.666 122.567L278.796 122.552L279.927 122.538L281.85 108.952L280.719 108.967ZM278.796 122.552L278.638 123.671L292.365 123.498L292.523 122.379L292.682 121.261L278.955 121.434L278.796 122.552ZM298.292 81.622L298.134 82.7406L311.861 82.5674L312.019 81.4488L312.178 80.3302L298.451 80.5034L298.292 81.622ZM312.019 81.4488L313.15 81.4345L315.072 67.8488L313.942 67.863L312.812 67.8773L310.889 81.4631L312.019 81.4488ZM313.942 67.863L314.101 66.7444L300.374 66.9176L300.215 68.0362L300.057 69.1549L313.784 68.9817L313.942 67.863ZM300.215 68.0362L300.374 66.9176L286.647 67.0908L286.488 68.2094L286.33 69.3281L300.057 69.1549L300.215 68.0362ZM286.488 68.2094L285.358 68.2237L283.435 81.8094L284.565 81.7952L285.696 81.7809L287.619 68.1952L286.488 68.2094ZM284.565 81.7952L284.407 82.9138L298.134 82.7406L298.292 81.622L298.451 80.5034L284.724 80.6765L284.565 81.7952Z" fill="white"/>
</g>
<g filter="url(#filter5_di_11_27)">
<mask id="path-11-inside-1_11_27" fill="white">
<path d="M240.299 98.3178C239.693 100.64 238.727 102.735 237.4 104.604C236.072 106.473 234.464 108.079 232.573 109.423C230.683 110.766 228.626 111.81 226.402 112.554C224.179 113.298 221.832 113.707 219.363 113.78C216.26 113.873 213.131 113.39 209.977 112.332C209.866 114.639 210.364 116.217 211.473 117.064C212.67 117.842 214.221 118.202 216.125 118.145C217.889 118.093 219.926 117.795 222.238 117.252C224.62 116.706 226.974 116.399 229.302 116.33C234.381 116.178 236.288 118.527 235.024 123.375C234.543 125.219 233.71 126.937 232.524 128.531C231.409 130.123 229.854 131.524 227.858 132.735C225.951 133.876 223.577 134.794 220.736 135.489C217.877 136.251 214.543 136.69 210.734 136.803C206.079 136.942 202.007 136.454 198.518 135.338C195.118 134.152 192.38 132.438 190.305 130.196C188.23 127.954 186.879 125.217 186.253 121.983C185.697 118.748 185.944 115.115 186.995 111.087C189.15 102.824 193.276 96.2642 199.372 91.4074C205.556 86.4802 213.233 83.8799 222.403 83.6065C226.142 83.4951 229.28 83.808 231.817 84.5454C234.355 85.2829 236.318 86.3423 237.708 87.7237C239.185 89.0347 240.107 90.5995 240.473 92.418C240.909 94.2343 240.851 96.201 240.299 98.3178ZM212.565 103.616C213.746 103.92 214.971 104.053 216.241 104.015C217.652 103.973 218.984 103.696 220.237 103.184C221.561 102.671 222.392 101.765 222.73 100.468C223.158 98.8288 222.455 98.0368 220.62 98.0914C219.139 98.1356 217.683 98.6194 216.252 99.5429C214.822 100.466 213.593 101.824 212.565 103.616Z"/>
</mask>
<path d="M240.299 98.3178C239.693 100.64 238.727 102.735 237.4 104.604C236.072 106.473 234.464 108.079 232.573 109.423C230.683 110.766 228.626 111.81 226.402 112.554C224.179 113.298 221.832 113.707 219.363 113.78C216.26 113.873 213.131 113.39 209.977 112.332C209.866 114.639 210.364 116.217 211.473 117.064C212.67 117.842 214.221 118.202 216.125 118.145C217.889 118.093 219.926 117.795 222.238 117.252C224.62 116.706 226.974 116.399 229.302 116.33C234.381 116.178 236.288 118.527 235.024 123.375C234.543 125.219 233.71 126.937 232.524 128.531C231.409 130.123 229.854 131.524 227.858 132.735C225.951 133.876 223.577 134.794 220.736 135.489C217.877 136.251 214.543 136.69 210.734 136.803C206.079 136.942 202.007 136.454 198.518 135.338C195.118 134.152 192.38 132.438 190.305 130.196C188.23 127.954 186.879 125.217 186.253 121.983C185.697 118.748 185.944 115.115 186.995 111.087C189.15 102.824 193.276 96.2642 199.372 91.4074C205.556 86.4802 213.233 83.8799 222.403 83.6065C226.142 83.4951 229.28 83.808 231.817 84.5454C234.355 85.2829 236.318 86.3423 237.708 87.7237C239.185 89.0347 240.107 90.5995 240.473 92.418C240.909 94.2343 240.851 96.201 240.299 98.3178ZM212.565 103.616C213.746 103.92 214.971 104.053 216.241 104.015C217.652 103.973 218.984 103.696 220.237 103.184C221.561 102.671 222.392 101.765 222.73 100.468C223.158 98.8288 222.455 98.0368 220.62 98.0914C219.139 98.1356 217.683 98.6194 216.252 99.5429C214.822 100.466 213.593 101.824 212.565 103.616Z" fill="url(#paint5_linear_11_27)"/>
<path d="M237.4 104.604L234.762 103.414L234.762 103.414L237.4 104.604ZM232.573 109.423L234.077 111.742V111.742L232.573 109.423ZM226.402 112.554L226.686 115.498L226.686 115.498L226.402 112.554ZM209.977 112.332L211.819 109.327L206.888 107.673L206.627 113.062L209.977 112.332ZM211.473 117.064L208.959 119.717L209.025 119.768L209.096 119.813L211.473 117.064ZM222.238 117.252L222.345 114.198L222.333 114.2L222.322 114.203L222.238 117.252ZM232.524 128.531L229.945 127.26L229.907 127.312L229.87 127.365L232.524 128.531ZM227.858 132.735L229.041 135.264L229.054 135.256L229.068 135.248L227.858 132.735ZM220.736 135.489L220.785 132.448L220.744 132.458L220.702 132.469L220.736 135.489ZM198.518 135.338L196.648 138.334L196.679 138.345L196.711 138.355L198.518 135.338ZM190.305 130.196L193.085 127.786V127.786L190.305 130.196ZM186.253 121.983L182.936 123.283L182.94 123.309L182.945 123.334L186.253 121.983ZM199.372 91.4074L201.09 93.5646L201.09 93.5646L199.372 91.4074ZM231.817 84.5454L230.077 87.5824L230.077 87.5824L231.817 84.5454ZM237.708 87.7237L234.988 90.1962L235.03 90.2381L235.074 90.2777L237.708 87.7237ZM240.473 92.418L237.168 93.7849L237.177 93.8282L237.187 93.8708L240.473 92.418ZM212.565 103.616L209.699 102.783L207.91 105.905L210.904 106.675L212.565 103.616ZM220.237 103.184L219.758 100.311L219.722 100.325L219.686 100.34L220.237 103.184ZM216.252 99.5429L217.575 101.984L217.575 101.984L216.252 99.5429ZM240.299 98.3178L237.047 98.4148C236.54 100.362 235.759 102.01 234.762 103.414L237.4 104.604L240.038 105.794C241.695 103.46 242.847 100.917 243.551 98.2209L240.299 98.3178ZM237.4 104.604L234.762 103.414C233.734 104.861 232.511 106.079 231.069 107.104L232.573 109.423L234.077 111.742C236.417 110.079 238.41 108.085 240.038 105.794L237.4 104.604ZM232.573 109.423L231.069 107.104C229.581 108.162 227.941 109 226.118 109.61L226.402 112.554L226.686 115.498C229.311 114.62 231.785 113.371 234.077 111.742L232.573 109.423ZM226.402 112.554L226.118 109.61C224.314 110.214 222.343 110.568 220.184 110.633L219.363 113.78L218.543 116.928C221.322 116.845 224.044 116.382 226.686 115.498L226.402 112.554ZM219.363 113.78L220.184 110.633C217.502 110.713 214.714 110.298 211.819 109.327L209.977 112.332L208.136 115.338C211.548 116.482 215.018 117.033 218.543 116.928L219.363 113.78ZM209.977 112.332L206.627 113.062C206.496 115.767 207.041 118.251 208.959 119.717L211.473 117.064L213.986 114.412C213.687 114.183 213.235 113.511 213.328 111.603L209.977 112.332ZM211.473 117.064L209.096 119.813C210.786 120.911 212.905 121.365 215.304 121.293L216.125 118.145L216.946 114.998C215.537 115.04 214.554 114.773 213.85 114.316L211.473 117.064ZM216.125 118.145L215.304 121.293C217.363 121.232 219.657 120.887 222.153 120.301L222.238 117.252L222.322 114.203C220.196 114.702 218.414 114.954 216.946 114.998L216.125 118.145ZM222.238 117.252L222.13 120.306C224.27 119.816 226.385 119.54 228.481 119.477L229.302 116.33L230.123 113.182C227.563 113.258 224.969 113.597 222.345 114.198L222.238 117.252ZM229.302 116.33L228.481 119.477C230.531 119.416 231.341 119.877 231.674 120.287C232.001 120.689 232.275 121.544 231.772 123.472L235.024 123.375L238.275 123.278C239.037 120.357 238.99 117.614 237.409 115.668C235.835 113.73 233.152 113.092 230.123 113.182L229.302 116.33ZM235.024 123.375L231.772 123.472C231.407 124.874 230.792 126.122 229.945 127.26L232.524 128.531L235.103 129.802C236.628 127.752 237.679 125.563 238.275 123.278L235.024 123.375ZM232.524 128.531L229.87 127.365C229.189 128.336 228.173 129.298 226.649 130.223L227.858 132.735L229.068 135.248C231.535 133.751 233.629 131.909 235.179 129.697L232.524 128.531ZM227.858 132.735L226.675 130.207C225.283 131.039 223.359 131.819 220.785 132.448L220.736 135.489L220.686 138.529C223.794 137.769 226.618 136.713 229.041 135.264L227.858 132.735ZM220.736 135.489L220.702 132.469C218.216 133.133 215.181 133.547 211.555 133.655L210.734 136.803L209.913 139.951C213.906 139.832 217.538 139.37 220.769 138.508L220.736 135.489ZM210.734 136.803L211.555 133.655C207.194 133.786 203.466 133.326 200.325 132.321L198.518 135.338L196.711 138.355C200.547 139.581 204.963 140.098 209.913 139.951L210.734 136.803ZM198.518 135.338L200.388 132.342C197.309 131.268 194.894 129.74 193.085 127.786L190.305 130.196L187.525 132.607C189.866 135.136 192.926 137.036 196.648 138.334L198.518 135.338ZM190.305 130.196L193.085 127.786C191.286 125.843 190.111 123.47 189.561 120.633L186.253 121.983L182.945 123.334C183.648 126.964 185.174 130.066 187.525 132.607L190.305 130.196ZM186.253 121.983L189.57 120.683C189.087 117.874 189.29 114.659 190.247 110.99L186.995 111.087L183.744 111.183C182.599 115.572 182.307 119.621 182.936 123.283L186.253 121.983ZM186.995 111.087L190.247 110.99C192.239 103.35 195.932 97.674 201.09 93.5646L199.372 91.4074L197.653 89.2503C190.619 94.8545 186.061 102.298 183.744 111.183L186.995 111.087ZM199.372 91.4074L201.09 93.5646C206.294 89.4187 212.994 87.0102 221.583 86.7541L222.403 83.6065L223.224 80.4589C213.472 80.7496 204.818 83.5417 197.653 89.2503L199.372 91.4074ZM222.403 83.6065L221.583 86.7541C225.088 86.6496 227.896 86.9485 230.077 87.5824L231.817 84.5454L233.558 81.5085C230.665 80.6675 227.196 80.3405 223.224 80.4589L222.403 83.6065ZM231.817 84.5454L230.077 87.5824C232.323 88.2352 233.917 89.1322 234.988 90.1962L237.708 87.7237L240.428 85.2512C238.719 83.5523 236.387 82.3305 233.558 81.5085L231.817 84.5454ZM237.708 87.7237L235.074 90.2777C236.245 91.3165 236.908 92.4891 237.168 93.7849L240.473 92.418L243.778 91.051C243.307 88.7099 242.126 86.753 240.341 85.1697L237.708 87.7237ZM240.473 92.418L237.187 93.8708C237.519 95.2529 237.481 96.7539 237.047 98.4148L240.299 98.3178L243.551 98.2209C244.222 95.648 244.299 93.2158 243.759 90.9651L240.473 92.418ZM212.565 103.616L210.904 106.675C212.338 107.044 213.845 107.21 215.42 107.163L216.241 104.015L217.062 100.867C216.097 100.896 215.154 100.796 214.227 100.558L212.565 103.616ZM216.241 104.015L215.42 107.163C217.215 107.109 219.017 106.752 220.788 106.029L220.237 103.184L219.686 100.34C218.951 100.64 218.089 100.837 217.062 100.867L216.241 104.015ZM220.237 103.184L220.716 106.058C221.922 105.59 223.126 104.85 224.125 103.761C225.118 102.68 225.689 101.494 225.982 100.371L222.73 100.468L219.479 100.565C219.455 100.656 219.439 100.679 219.452 100.653C219.469 100.623 219.509 100.557 219.581 100.479C219.654 100.399 219.726 100.342 219.777 100.309C219.823 100.278 219.825 100.285 219.758 100.311L220.237 103.184ZM222.73 100.468L225.982 100.371C226.34 98.9986 226.358 97.4214 225.332 96.2659C224.344 95.1528 222.798 94.9034 221.441 94.9438L220.62 98.0914L219.8 101.239C220.277 101.225 220 101.344 219.715 101.023C219.573 100.864 219.516 100.684 219.502 100.558C219.49 100.449 219.514 100.431 219.479 100.565L222.73 100.468ZM220.62 98.0914L221.441 94.9438C219.232 95.0097 217.023 95.7502 214.929 97.1014L216.252 99.5429L217.575 101.984C218.344 101.489 219.047 101.262 219.8 101.239L220.62 98.0914ZM216.252 99.5429L214.929 97.1014C212.702 98.5389 210.99 100.531 209.699 102.783L212.565 103.616L215.432 104.449C216.195 103.117 216.941 102.394 217.575 101.984L216.252 99.5429Z" fill="white" mask="url(#path-11-inside-1_11_27)"/>
</g>
<g filter="url(#filter6_di_11_27)">
<mask id="path-13-inside-2_11_27" fill="white">
<path d="M151.397 82.8347C155.861 82.8334 159.864 83.5053 163.408 84.8505C167.022 86.1249 170.07 87.9662 172.551 90.3746C175.102 92.783 177.052 95.6876 178.4 99.0884C179.818 102.489 180.528 106.28 180.53 110.46C180.531 114.641 179.824 118.432 178.408 121.834C177.063 125.235 175.116 128.141 172.566 130.551C170.087 132.961 167.041 134.84 163.427 136.187C159.885 137.463 155.882 138.102 151.418 138.104C146.954 138.105 142.915 137.469 139.3 136.194C135.757 134.849 132.709 132.972 130.158 130.564C127.677 128.155 125.727 125.251 124.309 121.85C122.961 118.449 122.286 114.659 122.285 110.478C122.283 106.297 122.955 102.506 124.3 99.1048C125.716 95.7032 127.663 92.7975 130.142 90.3875C132.692 87.9776 135.738 86.1344 139.281 84.8579C142.894 83.5105 146.933 82.8361 151.397 82.8347ZM145.454 106.751C145.455 109.444 145.987 111.605 147.051 113.234C148.185 114.793 149.638 115.572 151.409 115.571C153.252 115.57 154.704 114.791 155.766 113.231C156.828 111.601 157.359 109.44 157.358 106.747C157.357 104.267 156.825 102.213 155.761 100.583C154.698 98.9539 153.245 98.1394 151.403 98.14C149.631 98.1405 148.179 98.9558 147.046 100.586C145.983 102.216 145.453 104.271 145.454 106.751Z"/>
</mask>
<path d="M151.397 82.8347C155.861 82.8334 159.864 83.5053 163.408 84.8505C167.022 86.1249 170.07 87.9662 172.551 90.3746C175.102 92.783 177.052 95.6876 178.4 99.0884C179.818 102.489 180.528 106.28 180.53 110.46C180.531 114.641 179.824 118.432 178.408 121.834C177.063 125.235 175.116 128.141 172.566 130.551C170.087 132.961 167.041 134.84 163.427 136.187C159.885 137.463 155.882 138.102 151.418 138.104C146.954 138.105 142.915 137.469 139.3 136.194C135.757 134.849 132.709 132.972 130.158 130.564C127.677 128.155 125.727 125.251 124.309 121.85C122.961 118.449 122.286 114.659 122.285 110.478C122.283 106.297 122.955 102.506 124.3 99.1048C125.716 95.7032 127.663 92.7975 130.142 90.3875C132.692 87.9776 135.738 86.1344 139.281 84.8579C142.894 83.5105 146.933 82.8361 151.397 82.8347ZM145.454 106.751C145.455 109.444 145.987 111.605 147.051 113.234C148.185 114.793 149.638 115.572 151.409 115.571C153.252 115.57 154.704 114.791 155.766 113.231C156.828 111.601 157.359 109.44 157.358 106.747C157.357 104.267 156.825 102.213 155.761 100.583C154.698 98.9539 153.245 98.1394 151.403 98.14C149.631 98.1405 148.179 98.9558 147.046 100.586C145.983 102.216 145.453 104.271 145.454 106.751Z" fill="url(#paint6_linear_11_27)"/>
<path d="M163.408 84.8505L162.253 87.8917L162.29 87.9055L162.326 87.9184L163.408 84.8505ZM172.551 90.3746L170.285 92.7086L170.301 92.7246L170.318 92.7403L172.551 90.3746ZM178.4 99.0884L175.375 100.287L175.386 100.314L175.397 100.34L178.4 99.0884ZM178.408 121.834L175.405 120.583L175.394 120.61L175.383 120.637L178.408 121.834ZM172.566 130.551L170.331 128.187L170.315 128.202L170.298 128.218L172.566 130.551ZM163.427 136.187L164.53 139.247L164.547 139.241L164.564 139.235L163.427 136.187ZM139.3 136.194L138.146 139.235L138.182 139.249L138.219 139.262L139.3 136.194ZM130.158 130.564L127.892 132.898L127.908 132.914L127.925 132.929L130.158 130.564ZM124.309 121.85L121.284 123.048L121.295 123.075L121.306 123.102L124.309 121.85ZM124.3 99.1048L121.297 97.8546L121.285 97.8814L121.275 97.9085L124.3 99.1048ZM130.142 90.3875L127.908 88.0233L127.891 88.039L127.875 88.0549L130.142 90.3875ZM139.281 84.8579L140.384 87.9182L140.401 87.9121L140.418 87.9058L139.281 84.8579ZM147.051 113.234L144.327 115.012L144.372 115.081L144.42 115.148L147.051 113.234ZM155.766 113.231L158.454 115.063L158.473 115.035L158.491 115.008L155.766 113.231ZM155.761 100.583L153.037 102.361V102.361L155.761 100.583ZM147.046 100.586L144.375 98.7291L144.347 98.769L144.32 98.8097L147.046 100.586ZM151.397 82.8347L151.398 86.0877C155.536 86.0864 159.139 86.7091 162.253 87.8917L163.408 84.8505L164.562 81.8093C160.59 80.3015 156.186 79.5803 151.395 79.5817L151.397 82.8347ZM163.408 84.8505L162.326 87.9184C165.546 89.0535 168.176 90.6614 170.285 92.7086L172.551 90.3746L174.816 88.0407C171.963 85.271 168.498 83.1962 164.489 81.7827L163.408 84.8505ZM172.551 90.3746L170.318 92.7403C172.509 94.8081 174.196 97.3088 175.375 100.287L178.4 99.0884L181.424 97.8902C179.909 94.0664 177.696 90.7579 174.783 88.009L172.551 90.3746ZM178.4 99.0884L175.397 100.34C176.63 103.295 177.275 106.653 177.277 110.461L180.53 110.46L183.783 110.459C183.781 105.907 183.007 101.683 181.402 97.8363L178.4 99.0884ZM180.53 110.46L177.277 110.461C177.278 114.27 176.635 117.628 175.405 120.583L178.408 121.834L181.412 123.084C183.013 119.236 183.784 115.012 183.783 110.459L180.53 110.46ZM178.408 121.834L175.383 120.637C174.206 123.616 172.521 126.118 170.331 128.187L172.566 130.551L174.8 132.915C177.711 130.165 179.921 126.855 181.433 123.03L178.408 121.834ZM172.566 130.551L170.298 128.218C168.178 130.28 165.53 131.931 162.291 133.139L163.427 136.187L164.564 139.235C168.551 137.748 171.996 135.642 174.833 132.884L172.566 130.551ZM163.427 136.187L162.324 133.127C159.194 134.255 155.573 134.849 151.417 134.851L151.418 138.104L151.419 141.357C156.191 141.355 160.576 140.672 164.53 139.247L163.427 136.187ZM151.418 138.104L151.417 134.851C147.262 134.852 143.596 134.26 140.382 133.126L139.3 136.194L138.219 139.262C142.233 140.677 146.646 141.358 151.419 141.357L151.418 138.104ZM139.3 136.194L140.455 133.153C137.279 131.948 134.606 130.29 132.39 128.198L130.158 130.564L127.925 132.929C130.812 135.655 134.235 137.751 138.146 139.235L139.3 136.194ZM130.158 130.564L132.423 128.23C130.279 126.148 128.571 123.619 127.311 120.598L124.309 121.85L121.306 123.102C122.883 126.883 125.074 130.163 127.892 132.898L130.158 130.564ZM124.309 121.85L127.333 120.652C126.156 117.683 125.539 114.306 125.538 110.477L122.285 110.478L119.032 110.479C119.033 115.012 119.766 119.216 121.284 123.048L124.309 121.85ZM122.285 110.478L125.538 110.477C125.536 106.648 126.151 103.271 127.325 100.301L124.3 99.1048L121.275 97.9085C119.759 101.742 119.03 105.947 119.032 110.479L122.285 110.478ZM124.3 99.1048L127.303 100.355C128.561 97.3332 130.267 94.803 132.41 92.7201L130.142 90.3875L127.875 88.0549C125.059 90.7919 122.871 94.0732 121.297 97.8546L124.3 99.1048ZM130.142 90.3875L132.377 92.7518C134.578 90.6713 137.231 89.0543 140.384 87.9182L139.281 84.8579L138.178 81.7975C134.246 83.2145 130.806 85.2839 127.908 88.0233L130.142 90.3875ZM139.281 84.8579L140.418 87.9058C143.615 86.7134 147.261 86.089 151.398 86.0877L151.397 82.8347L151.395 79.5817C146.604 79.5832 142.173 80.3075 138.144 81.8099L139.281 84.8579ZM145.454 106.751L142.201 106.752C142.202 109.842 142.809 112.687 144.327 115.012L147.051 113.234L149.775 111.456C149.165 110.522 148.708 109.045 148.707 106.75L145.454 106.751ZM147.051 113.234L144.42 115.148C146.104 117.462 148.496 118.825 151.41 118.824L151.409 115.571L151.408 112.318C150.78 112.318 150.265 112.123 149.681 111.32L147.051 113.234ZM151.409 115.571L151.41 118.824C154.359 118.823 156.804 117.485 158.454 115.063L155.766 113.231L153.078 111.4C152.603 112.096 152.144 112.318 151.408 112.318L151.409 115.571ZM155.766 113.231L158.491 115.008C160.007 112.682 160.612 109.836 160.611 106.746L157.358 106.747L154.105 106.748C154.106 109.044 153.65 110.52 153.041 111.455L155.766 113.231ZM157.358 106.747L160.611 106.746C160.61 103.807 159.977 101.091 158.485 98.8054L155.761 100.583L153.037 102.361C153.672 103.334 154.104 104.727 154.105 106.748L157.358 106.747ZM155.761 100.583L158.485 98.8054C156.861 96.3173 154.415 94.8861 151.401 94.887L151.403 98.14L151.404 101.393C152.075 101.393 152.534 101.59 153.037 102.361L155.761 100.583ZM151.403 98.14L151.401 94.887C148.424 94.8879 146.03 96.3475 144.375 98.7291L147.046 100.586L149.717 102.443C150.328 101.564 150.839 101.393 151.404 101.393L151.403 98.14ZM147.046 100.586L144.32 98.8097C142.83 101.096 142.2 103.813 142.201 106.752L145.454 106.751L148.707 106.75C148.706 104.729 149.137 103.336 149.771 102.362L147.046 100.586Z" fill="white" mask="url(#path-13-inside-2_11_27)"/>
</g>
<g filter="url(#filter7_di_11_27)">
<mask id="path-15-inside-3_11_27" fill="white">
<path d="M70.3292 63.6274C71.7929 60.3914 73.6017 57.3418 75.7555 54.4787C78.018 51.5235 80.5487 48.9396 83.3474 46.7271C86.1611 44.4221 89.1266 42.627 92.2438 41.3418C95.4699 39.9644 98.7707 39.2819 102.146 39.2942C108.523 39.3174 112.91 41.1856 115.31 44.8988C117.818 48.5197 119.075 53.2011 119.081 58.9429C119.061 63.1103 118.756 67.8786 118.165 73.2479C117.684 78.5249 116.984 83.9864 116.067 89.6322C115.166 95.1856 114.091 100.646 112.844 106.012C111.691 111.38 110.409 116.098 108.998 120.168C108.063 123.035 106.931 125.671 105.603 128.074C104.289 130.384 102.7 132.369 100.836 134.03C99.0649 135.69 96.9322 136.979 94.4377 137.896C92.0369 138.813 89.1956 139.266 85.9137 139.254C80.4752 139.234 76.8486 137.878 75.034 135.186C73.2195 132.494 72.7405 128.51 73.5973 123.234C73.973 120.92 74.6526 118.468 75.6361 115.879C76.6195 113.289 77.6499 110.7 78.7271 108.111C79.8981 105.522 80.9678 102.979 81.9362 100.482C82.9047 97.9853 83.5542 95.7187 83.8849 93.6825C84.3208 90.9983 84.2781 89.2386 83.757 88.4032C83.3297 87.5682 82.741 87.1493 81.9908 87.1465C81.0531 87.1431 80.2353 87.5569 79.5375 88.3878C78.8396 89.2188 78.2523 90.2354 77.7756 91.4376C77.2989 92.6398 76.9009 93.9348 76.5817 95.3228C76.2625 96.7108 75.9733 97.9137 75.7142 98.9315C75.38 100.412 74.9444 101.938 74.4076 103.511C73.9796 104.991 73.2853 106.378 72.3247 107.671C71.3792 108.871 70.0886 109.885 68.4531 110.713C66.9263 111.448 64.8033 111.811 62.084 111.801C59.4585 111.791 57.4557 111.414 56.0756 110.668C54.7106 109.829 53.7507 108.807 53.196 107.601C52.75 106.303 52.5066 104.913 52.4658 103.431C52.5338 101.857 52.6411 100.329 52.7878 98.848C52.8594 97.8295 52.961 96.6259 53.0927 95.2373C53.2244 93.8486 53.2473 92.5521 53.1614 91.3479C53.0755 90.1436 52.8188 89.124 52.3915 88.289C52.0579 87.4542 51.3754 87.035 50.344 87.0313C49.5938 87.0285 48.8229 87.4425 48.0313 88.2731C47.3334 89.104 46.7665 90.8615 46.3306 93.5457C45.9999 95.5819 45.913 97.8505 46.0698 100.352C46.2266 102.853 46.4228 105.4 46.6583 107.994C46.8938 110.588 47.0825 113.182 47.2242 115.775C47.366 118.369 47.249 120.823 46.8732 123.137C46.0165 128.412 44.245 132.388 41.5587 135.064C38.9661 137.74 34.9506 139.068 29.512 139.049C26.3239 139.037 23.6329 138.564 21.4389 137.63C19.245 136.696 17.4863 135.393 16.1628 133.721C14.9331 132.05 14.0372 130.055 13.4753 127.738C12.9284 125.328 12.6535 122.688 12.6506 119.817C12.6555 115.742 12.9063 111.02 13.403 105.65C13.8997 100.281 14.599 94.8192 15.5008 89.2659C16.4176 83.62 17.4451 78.1597 18.5831 72.8851C19.8299 67.5183 21.1197 62.7535 22.4524 58.5909C23.3872 55.7234 24.5188 53.0882 25.8473 50.6851C27.2696 48.2824 28.913 46.251 30.7776 44.5908C32.6572 42.8381 34.7974 41.503 37.1982 40.5857C39.7077 39.5761 42.5565 39.0771 45.7447 39.0887C49.1203 39.101 52.1489 39.8066 54.8302 41.2056C57.6204 42.5123 59.9997 44.3268 61.9682 46.6493C64.0454 48.8795 65.7344 51.4787 67.035 54.447C68.3506 57.3227 69.1674 60.3818 69.4853 63.6243L70.3292 63.6274Z"/>
</mask>
<path d="M70.3292 63.6274C71.7929 60.3914 73.6017 57.3418 75.7555 54.4787C78.018 51.5235 80.5487 48.9396 83.3474 46.7271C86.1611 44.4221 89.1266 42.627 92.2438 41.3418C95.4699 39.9644 98.7707 39.2819 102.146 39.2942C108.523 39.3174 112.91 41.1856 115.31 44.8988C117.818 48.5197 119.075 53.2011 119.081 58.9429C119.061 63.1103 118.756 67.8786 118.165 73.2479C117.684 78.5249 116.984 83.9864 116.067 89.6322C115.166 95.1856 114.091 100.646 112.844 106.012C111.691 111.38 110.409 116.098 108.998 120.168C108.063 123.035 106.931 125.671 105.603 128.074C104.289 130.384 102.7 132.369 100.836 134.03C99.0649 135.69 96.9322 136.979 94.4377 137.896C92.0369 138.813 89.1956 139.266 85.9137 139.254C80.4752 139.234 76.8486 137.878 75.034 135.186C73.2195 132.494 72.7405 128.51 73.5973 123.234C73.973 120.92 74.6526 118.468 75.6361 115.879C76.6195 113.289 77.6499 110.7 78.7271 108.111C79.8981 105.522 80.9678 102.979 81.9362 100.482C82.9047 97.9853 83.5542 95.7187 83.8849 93.6825C84.3208 90.9983 84.2781 89.2386 83.757 88.4032C83.3297 87.5682 82.741 87.1493 81.9908 87.1465C81.0531 87.1431 80.2353 87.5569 79.5375 88.3878C78.8396 89.2188 78.2523 90.2354 77.7756 91.4376C77.2989 92.6398 76.9009 93.9348 76.5817 95.3228C76.2625 96.7108 75.9733 97.9137 75.7142 98.9315C75.38 100.412 74.9444 101.938 74.4076 103.511C73.9796 104.991 73.2853 106.378 72.3247 107.671C71.3792 108.871 70.0886 109.885 68.4531 110.713C66.9263 111.448 64.8033 111.811 62.084 111.801C59.4585 111.791 57.4557 111.414 56.0756 110.668C54.7106 109.829 53.7507 108.807 53.196 107.601C52.75 106.303 52.5066 104.913 52.4658 103.431C52.5338 101.857 52.6411 100.329 52.7878 98.848C52.8594 97.8295 52.961 96.6259 53.0927 95.2373C53.2244 93.8486 53.2473 92.5521 53.1614 91.3479C53.0755 90.1436 52.8188 89.124 52.3915 88.289C52.0579 87.4542 51.3754 87.035 50.344 87.0313C49.5938 87.0285 48.8229 87.4425 48.0313 88.2731C47.3334 89.104 46.7665 90.8615 46.3306 93.5457C45.9999 95.5819 45.913 97.8505 46.0698 100.352C46.2266 102.853 46.4228 105.4 46.6583 107.994C46.8938 110.588 47.0825 113.182 47.2242 115.775C47.366 118.369 47.249 120.823 46.8732 123.137C46.0165 128.412 44.245 132.388 41.5587 135.064C38.9661 137.74 34.9506 139.068 29.512 139.049C26.3239 139.037 23.6329 138.564 21.4389 137.63C19.245 136.696 17.4863 135.393 16.1628 133.721C14.9331 132.05 14.0372 130.055 13.4753 127.738C12.9284 125.328 12.6535 122.688 12.6506 119.817C12.6555 115.742 12.9063 111.02 13.403 105.65C13.8997 100.281 14.599 94.8192 15.5008 89.2659C16.4176 83.62 17.4451 78.1597 18.5831 72.8851C19.8299 67.5183 21.1197 62.7535 22.4524 58.5909C23.3872 55.7234 24.5188 53.0882 25.8473 50.6851C27.2696 48.2824 28.913 46.251 30.7776 44.5908C32.6572 42.8381 34.7974 41.503 37.1982 40.5857C39.7077 39.5761 42.5565 39.0771 45.7447 39.0887C49.1203 39.101 52.1489 39.8066 54.8302 41.2056C57.6204 42.5123 59.9997 44.3268 61.9682 46.6493C64.0454 48.8795 65.7344 51.4787 67.035 54.447C68.3506 57.3227 69.1674 60.3818 69.4853 63.6243L70.3292 63.6274Z" fill="url(#paint7_linear_11_27)"/>
<path d="M70.3292 63.6274L69.8078 66.8382L72.2615 66.8472L73.3137 64.5209L70.3292 63.6274ZM75.7555 54.4787L73.2246 52.8293L73.2143 52.8427L73.2042 52.8562L75.7555 54.4787ZM83.3474 46.7271L85.1706 49.0945L85.1986 49.0724L85.2262 49.0499L83.3474 46.7271ZM92.2438 41.3418L93.1075 44.273L93.13 44.2638L93.1524 44.2542L92.2438 41.3418ZM115.31 44.8988L112.444 46.8953L112.466 46.9299L112.49 46.9638L115.31 44.8988ZM119.081 58.9429L122.375 58.4611L122.375 58.4522L122.375 58.4434L119.081 58.9429ZM118.165 73.2479L114.89 73.4019L114.886 73.4314L114.884 73.4608L118.165 73.2479ZM112.844 106.012L109.635 105.78L109.629 105.807L109.623 105.835L112.844 106.012ZM108.998 120.168L105.89 119.582L105.88 119.613L105.869 119.645L108.998 120.168ZM105.603 128.074L108.429 129.277L108.441 129.257L108.452 129.237L105.603 128.074ZM100.836 134.03L98.8288 131.816L98.7894 131.851L98.7508 131.888L100.836 134.03ZM94.4377 137.896L93.7137 134.91L93.6907 134.919L93.6679 134.928L94.4377 137.896ZM75.034 135.186L77.8725 133.148V133.148L75.034 135.186ZM75.6361 115.879L72.5646 115.194V115.194L75.6361 115.879ZM78.7271 108.111L75.7426 107.217L75.7193 107.269L75.6977 107.321L78.7271 108.111ZM81.9362 100.482L84.9986 101.19V101.19L81.9362 100.482ZM83.757 88.4032L80.7612 90.1744L80.8113 90.2723L80.8692 90.3652L83.757 88.4032ZM79.5375 88.3878L81.9549 90.1788V90.1788L79.5375 88.3878ZM77.7756 91.4376L80.828 92.1711L80.828 92.1711L77.7756 91.4376ZM76.5817 95.3228L73.3706 95.0974V95.0974L76.5817 95.3228ZM75.7142 98.9315L72.5218 98.629L72.5103 98.6741L72.5001 98.7194L75.7142 98.9315ZM74.4076 103.511L71.2948 102.941L71.2676 103.021L71.2444 103.101L74.4076 103.511ZM72.3247 107.671L74.8219 109.364L74.8568 109.319L74.8904 109.274L72.3247 107.671ZM68.4531 110.713L69.5238 113.552L69.5587 113.535L69.5934 113.517L68.4531 110.713ZM56.0756 110.668L54.0264 113.46L54.0892 113.499L54.1545 113.534L56.0756 110.668ZM53.196 107.601L50.0532 109.026L50.0968 109.153L50.1523 109.274L53.196 107.601ZM52.4658 103.431L49.1742 103.794L49.1695 103.903L49.1725 104.011L52.4658 103.431ZM52.7878 98.848L56.067 98.6595L56.0715 98.6142L56.0746 98.5691L52.7878 98.848ZM53.0927 95.2373L56.3731 95.0355L56.3731 95.0355L53.0927 95.2373ZM53.1614 91.3479L56.4483 90.6374V90.6374L53.1614 91.3479ZM52.3915 88.289L49.2947 89.8379L49.3402 89.9518L49.3956 90.0602L52.3915 88.289ZM48.0313 88.2731L45.7836 86.2924L45.6956 86.3848L45.6139 86.4821L48.0313 88.2731ZM46.0698 100.352L49.3584 99.6666L49.3584 99.6666L46.0698 100.352ZM46.6583 107.994L49.9406 107.227V107.227L46.6583 107.994ZM47.2242 115.775L50.5142 115.114L50.5142 115.114L47.2242 115.775ZM41.5587 135.064L39.3851 133.008L39.3593 133.033L39.334 133.059L41.5587 135.064ZM16.1628 133.721L13.3851 135.846L13.4118 135.882L13.4398 135.917L16.1628 133.721ZM13.4753 127.738L10.252 128.88L10.2565 128.9L10.2613 128.92L13.4753 127.738ZM12.6506 119.817L9.35609 120.31L9.3561 120.316L12.6506 119.817ZM13.403 105.65L16.6842 105.441L13.403 105.65ZM18.5831 72.8851L15.3737 72.6524L15.3677 72.6784L15.362 72.7045L18.5831 72.8851ZM22.4524 58.5909L19.324 58.068L19.3211 58.0768L19.3183 58.0857L22.4524 58.5909ZM25.8473 50.6851L23.0546 49.4231L23.0257 49.472L22.9984 49.5214L25.8473 50.6851ZM30.7776 44.5908L32.7845 46.8041L32.8197 46.7728L32.8541 46.7406L30.7776 44.5908ZM37.1982 40.5857L37.968 43.5541L37.9996 43.542L38.031 43.5294L37.1982 40.5857ZM54.8302 41.2056L52.944 44.0907L52.9957 44.1177L53.0487 44.1425L54.8302 41.2056ZM61.9682 46.6493L59.2993 48.9113L59.3379 48.9569L59.3786 49.0006L61.9682 46.6493ZM67.035 54.447L63.9717 56.0761L63.9802 56.0955L63.989 56.1147L67.035 54.447ZM69.4853 63.6243L66.2049 64.4125L66.4415 66.826L68.9638 66.8352L69.4853 63.6243ZM70.3292 63.6274L73.3137 64.5209C74.6639 61.5359 76.328 58.7317 78.3067 56.1013L75.7555 54.4787L73.2042 52.8562C70.8754 55.9519 68.9219 59.2468 67.3446 62.7339L70.3292 63.6274ZM75.7555 54.4787L78.2863 56.1282C80.3555 53.4255 82.6507 51.0866 85.1706 49.0945L83.3474 46.7271L81.5241 44.3597C78.4466 46.7925 75.6805 49.6214 73.2246 52.8293L75.7555 54.4787ZM83.3474 46.7271L85.2262 49.0499C87.7498 46.9825 90.3746 45.3998 93.1075 44.273L92.2438 41.3418L91.3802 38.4107C87.8786 39.8543 84.5724 41.8618 81.4686 44.4044L83.3474 46.7271ZM92.2438 41.3418L93.1524 44.2542C95.905 43.0789 98.7173 42.4945 101.625 42.5051L102.146 39.2942L102.668 36.0833C98.8241 36.0693 95.0348 36.85 91.3353 38.4295L92.2438 41.3418ZM102.146 39.2942L101.625 42.5051C107.361 42.526 110.689 44.1794 112.444 46.8953L115.31 44.8988L118.176 42.9022C115.132 38.1918 109.685 36.1089 102.668 36.0833L102.146 39.2942ZM115.31 44.8988L112.49 46.9638C114.624 50.0452 115.781 54.1457 115.786 59.4425L119.081 58.9429L122.375 58.4434C122.369 52.2565 121.012 46.9942 118.13 42.8338L115.31 44.8988ZM119.081 58.9429L115.786 59.4248C115.767 63.4588 115.471 68.1142 114.89 73.4019L118.165 73.2479L121.441 73.0938C122.04 67.6431 122.355 62.7619 122.375 58.4611L119.081 58.9429ZM118.165 73.2479L114.884 73.4608C114.409 78.6582 113.72 84.0445 112.814 89.6204L116.067 89.6322L119.32 89.6441C120.249 83.9282 120.958 78.3916 121.447 73.0349L118.165 73.2479ZM116.067 89.6322L112.814 89.6204C111.924 95.1023 110.864 100.489 109.635 105.78L112.844 106.012L116.054 106.245C117.318 100.803 118.407 95.2688 119.32 89.6441L116.067 89.6322ZM112.844 106.012L109.623 105.835C108.491 111.103 107.244 115.68 105.89 119.582L108.998 120.168L112.105 120.754C113.575 116.516 114.892 111.656 116.066 106.19L112.844 106.012ZM108.998 120.168L105.869 119.645C104.997 122.321 103.955 124.738 102.754 126.91L105.603 128.074L108.452 129.237C109.908 126.603 111.129 123.75 112.126 120.691L108.998 120.168ZM105.603 128.074L102.776 126.87C101.657 128.839 100.337 130.474 98.8288 131.816L100.836 134.03L102.843 136.243C105.064 134.265 106.922 131.929 108.429 129.277L105.603 128.074ZM100.836 134.03L98.7508 131.888C97.4207 133.135 95.7688 134.155 93.7137 134.91L94.4377 137.896L95.1617 140.882C98.0956 139.803 100.709 138.245 102.921 136.172L100.836 134.03ZM94.4377 137.896L93.6679 134.928C91.809 135.638 89.4277 136.054 86.4351 136.043L85.9137 139.254L85.3923 142.465C88.9636 142.478 92.2649 141.989 95.2075 140.864L94.4377 137.896ZM85.9137 139.254L86.4351 136.043C81.4376 136.025 78.9694 134.775 77.8725 133.148L75.034 135.186L72.1955 137.224C74.7278 140.981 79.5127 142.444 85.3923 142.465L85.9137 139.254ZM75.034 135.186L77.8725 133.148C76.6035 131.265 76.055 128.142 76.8502 123.246L73.5973 123.234L70.3443 123.222C69.426 128.877 69.8354 133.722 72.1955 137.224L75.034 135.186ZM73.5973 123.234L76.8502 123.246C77.1844 121.188 77.7962 118.963 78.7076 116.563L75.6361 115.879L72.5646 115.194C71.5091 117.974 70.7616 120.652 70.3443 123.222L73.5973 123.234ZM75.6361 115.879L78.7076 116.563C79.6775 114.009 80.6938 111.455 81.7565 108.901L78.7271 108.111L75.6977 107.321C74.606 109.945 73.5616 112.569 72.5646 115.194L75.6361 115.879ZM78.7271 108.111L81.7117 109.004C82.9089 106.357 84.0048 103.753 84.9986 101.19L81.9362 100.482L78.8739 99.7741C77.9308 102.206 76.8873 104.687 75.7426 107.217L78.7271 108.111ZM81.9362 100.482L84.9986 101.19C86.0341 98.5204 86.7609 96.0156 87.1378 93.6943L83.8849 93.6825L80.6319 93.6706C80.3476 95.4217 79.7752 97.4501 78.8739 99.7741L81.9362 100.482ZM83.8849 93.6825L87.1378 93.6943C87.3734 92.2437 87.5011 90.9211 87.4734 89.7795C87.4473 88.7002 87.2788 87.4575 86.6449 86.4413L83.757 88.4032L80.8692 90.3652C80.7564 90.1843 80.8698 90.2392 80.8862 90.9196C80.9012 91.5378 80.8322 92.4371 80.6319 93.6706L83.8849 93.6825ZM83.757 88.4032L86.7529 86.632C86.0452 85.2491 84.7135 83.9437 82.5122 83.9357L81.9908 87.1465L81.4694 90.3574C81.3473 90.357 81.2166 90.3388 81.089 90.2987C80.9623 90.2588 80.8651 90.2055 80.7973 90.1573C80.6689 90.0659 80.6821 90.0198 80.7612 90.1744L83.757 88.4032ZM81.9908 87.1465L82.5122 83.9357C80.3857 83.9279 78.4939 84.9612 77.1201 86.5969L79.5375 88.3878L81.9549 90.1788C82.0139 90.1085 81.9723 90.1788 81.8146 90.2586C81.7401 90.2963 81.6635 90.3236 81.5931 90.3401C81.5242 90.3562 81.4804 90.3575 81.4694 90.3574L81.9908 87.1465ZM79.5375 88.3878L77.1201 86.5969C76.0971 87.8149 75.3158 89.2095 74.7232 90.704L77.7756 91.4376L80.828 92.1711C81.1888 91.2612 81.5821 90.6227 81.9549 90.1788L79.5375 88.3878ZM77.7756 91.4376L74.7232 90.704C74.1725 92.0927 73.7244 93.5594 73.3706 95.0974L76.5817 95.3228L79.7928 95.5482C80.0775 94.3103 80.4252 93.1868 80.828 92.1711L77.7756 91.4376ZM76.5817 95.3228L73.3706 95.0974C73.0554 96.4682 72.7726 97.6441 72.5218 98.629L75.7142 98.9315L78.9066 99.234C79.1741 98.1833 79.4696 96.9535 79.7928 95.5482L76.5817 95.3228ZM75.7142 98.9315L72.5001 98.7194C72.1949 100.071 71.7943 101.478 71.2948 102.941L74.4076 103.511L77.5205 104.081C78.0946 102.399 78.565 100.753 78.9283 99.1436L75.7142 98.9315ZM74.4076 103.511L71.2444 103.101C70.938 104.161 70.4468 105.142 69.7591 106.067L72.3247 107.671L74.8904 109.274C76.1238 107.614 77.0212 105.822 77.5708 103.921L74.4076 103.511ZM72.3247 107.671L69.8276 105.978C69.3142 106.63 68.5294 107.293 67.3127 107.908L68.4531 110.713L69.5934 113.517C71.6478 112.478 73.4441 111.113 74.8219 109.364L72.3247 107.671ZM68.4531 110.713L67.3823 107.874C66.6093 108.246 65.1196 108.599 62.6054 108.59L62.084 111.801L61.5626 115.012C64.4869 115.022 67.2433 114.65 69.5238 113.552L68.4531 110.713ZM62.084 111.801L62.6054 108.59C60.2279 108.581 58.7918 108.231 57.9968 107.801L56.0756 110.668L54.1545 113.534C56.1195 114.596 58.689 115.001 61.5626 115.012L62.084 111.801ZM56.0756 110.668L58.1249 107.875C57.1094 107.251 56.5408 106.583 56.2396 105.928L53.196 107.601L50.1523 109.274C50.9606 111.031 52.3118 112.407 54.0264 113.46L56.0756 110.668ZM53.196 107.601L56.3387 106.176C55.9882 105.155 55.7922 104.051 55.7591 102.851L52.4658 103.431L49.1725 104.011C49.221 105.775 49.5118 107.45 50.0532 109.026L53.196 107.601ZM52.4658 103.431L55.7574 103.068C55.823 101.548 55.9264 100.079 56.067 98.6595L52.7878 98.848L49.5087 99.0364C49.3558 100.58 49.2445 102.166 49.1742 103.794L52.4658 103.431ZM52.7878 98.848L56.0746 98.5691C56.1439 97.5835 56.2431 96.4069 56.3731 95.0355L53.0927 95.2373L49.8123 95.439C49.6789 96.845 49.5749 98.0755 49.501 99.1269L52.7878 98.848ZM53.0927 95.2373L56.3731 95.0355C56.5191 93.4967 56.5475 92.0285 56.4483 90.6374L53.1614 91.3479L49.8745 92.0583C49.9471 93.0758 49.9297 94.2005 49.8123 95.439L53.0927 95.2373ZM53.1614 91.3479L56.4483 90.6374C56.3415 89.1404 56.0137 87.7418 55.3873 86.5177L52.3915 88.289L49.3956 90.0602C49.6239 90.5062 49.8094 91.1469 49.8745 92.0583L53.1614 91.3479ZM52.3915 88.289L55.4883 86.74C55.1396 85.8675 54.5533 85.093 53.6787 84.5558C52.8142 84.0248 51.829 83.8239 50.8654 83.8204L50.344 87.0313L49.8225 90.2421C49.8904 90.2424 49.7622 90.253 49.5802 90.1412C49.4941 90.0884 49.4235 90.0242 49.371 89.9595C49.32 89.8965 49.2991 89.8491 49.2947 89.8379L52.3915 88.289ZM50.344 87.0313L50.8654 83.8204C48.735 83.8126 46.9864 85.0305 45.7836 86.2924L48.0313 88.2731L50.2789 90.2537C50.463 90.0605 50.5171 90.0521 50.4297 90.0991C50.3811 90.1252 50.2974 90.1634 50.1837 90.1942C50.0681 90.2254 49.9446 90.2426 49.8225 90.2421L50.344 87.0313ZM48.0313 88.2731L45.6139 86.4821C44.7808 87.474 44.2844 88.6678 43.9509 89.7019C43.5945 90.8068 43.3106 92.0992 43.0777 93.5338L46.3306 93.5456L49.5836 93.5575C49.7865 92.308 50.004 91.3796 50.2145 90.7269C50.4478 90.0036 50.5838 89.9031 50.4486 90.064L48.0313 88.2731ZM46.3306 93.5456L43.0777 93.5338C42.7007 95.8551 42.6135 98.3622 42.7812 101.037L46.0698 100.352L49.3584 99.6666C49.2125 97.3388 49.2992 95.3086 49.5836 93.5575L46.3306 93.5456ZM46.0698 100.352L42.7812 101.037C42.9398 103.566 43.1381 106.141 43.376 108.761L46.6583 107.994L49.9406 107.227C49.7074 104.659 49.5134 102.139 49.3584 99.6666L46.0698 100.352ZM46.6583 107.994L43.376 108.761C43.6084 111.32 43.7944 113.879 43.9342 116.437L47.2242 115.775L50.5142 115.114C50.3705 112.485 50.1793 109.856 49.9406 107.227L46.6583 107.994ZM47.2242 115.775L43.9342 116.437C44.0656 118.84 43.9545 121.067 43.6203 123.125L46.8732 123.137L50.1262 123.148C50.5435 120.579 50.6664 117.898 50.5142 115.114L47.2242 115.775ZM46.8732 123.137L43.6203 123.125C42.8251 128.021 41.2637 131.136 39.3851 133.008L41.5587 135.064L43.7323 137.12C47.2263 133.64 49.2079 128.803 50.1262 123.148L46.8732 123.137ZM41.5587 135.064L39.334 133.059C37.8231 134.619 35.0465 135.856 30.0334 135.838L29.512 139.049L28.9906 142.259C34.8546 142.281 40.1092 140.861 43.7834 137.068L41.5587 135.064ZM29.512 139.049L30.0334 135.838C27.1547 135.827 24.8847 135.4 23.1312 134.653L21.4389 137.63L19.7467 140.607C22.381 141.728 25.4931 142.247 28.9906 142.259L29.512 139.049ZM21.4389 137.63L23.1312 134.653C21.3109 133.878 19.9174 132.828 18.8858 131.525L16.1628 133.721L13.4398 135.917C15.0552 137.958 17.1791 139.514 19.7467 140.607L21.4389 137.63ZM16.1628 133.721L18.9405 131.597C17.9384 130.235 17.1772 128.569 16.6892 126.557L13.4753 127.738L10.2613 128.92C10.8972 131.542 11.9277 133.865 13.3851 135.846L16.1628 133.721ZM13.4753 127.738L16.6986 126.596C16.2043 124.418 15.9478 121.996 15.9451 119.317L12.6506 119.817L9.3561 120.316C9.3592 123.379 9.65247 126.238 10.252 128.88L13.4753 127.738ZM12.6506 119.817L15.9451 119.324C15.9499 115.367 16.1938 110.743 16.6842 105.441L13.403 105.65L10.1219 105.859C9.61892 111.297 9.36119 116.117 9.3561 120.31L12.6506 119.817ZM13.403 105.65L16.6842 105.441C17.1738 100.147 17.8635 94.7597 18.7537 89.2777L15.5008 89.2659L12.2478 89.254C11.3344 94.8787 10.6256 100.414 10.1219 105.859L13.403 105.65ZM15.5008 89.2659L18.7537 89.2777C19.6621 83.6843 20.679 78.2805 21.8041 73.0657L18.5831 72.8851L15.362 72.7045C14.2111 78.039 13.1732 83.5557 12.2478 89.254L15.5008 89.2659ZM18.5831 72.8851L21.7925 73.1178C23.0236 67.8187 24.2894 63.1478 25.5866 59.0962L22.4524 58.5909L19.3183 58.0857C17.95 62.3593 16.6363 67.2178 15.3737 72.6524L18.5831 72.8851ZM22.4524 58.5909L25.5809 59.1139C26.4531 56.4383 27.4956 54.0207 28.6963 51.8488L25.8473 50.6851L22.9984 49.5214C21.5421 52.1556 20.3213 55.0086 19.324 58.068L22.4524 58.5909ZM25.8473 50.6851L28.64 51.9471C29.8828 49.8475 31.2717 48.1511 32.7845 46.8041L30.7776 44.5908L28.7707 42.3775C26.5543 44.351 24.6563 46.7173 23.0546 49.4231L25.8473 50.6851ZM30.7776 44.5908L32.8541 46.7406C34.3441 45.3512 36.0358 44.2924 37.968 43.5541L37.1982 40.5857L36.4283 37.6172C33.5591 38.7136 30.9703 40.3249 28.701 42.441L30.7776 44.5908ZM37.1982 40.5857L38.031 43.5294C40.0044 42.7355 42.379 42.2892 45.2233 42.2996L45.7447 39.0887L46.2661 35.8779C42.734 35.865 39.411 36.4167 36.3653 37.6419L37.1982 40.5857ZM45.7447 39.0887L45.2233 42.2996C48.131 42.3102 50.6887 42.9141 52.944 44.0907L54.8302 41.2056L56.7164 38.3204C53.609 36.6992 50.1096 35.8919 46.2661 35.8779L45.7447 39.0887ZM54.8302 41.2056L53.0487 44.1425C55.489 45.2853 57.5686 46.8695 59.2993 48.9113L61.9682 46.6493L64.637 44.3872C62.4308 41.7842 59.7518 39.7392 56.6118 38.2686L54.8302 41.2056ZM61.9682 46.6493L59.3786 49.0006C61.249 51.0087 62.7822 53.3614 63.9717 56.0761L67.035 54.447L70.0983 52.8179C68.6865 49.596 66.8419 46.7503 64.5577 44.2979L61.9682 46.6493ZM67.035 54.447L63.989 56.1147C65.1805 58.7189 65.9177 61.4818 66.2049 64.4125L69.4853 63.6243L72.7656 62.8361C72.4172 59.2818 71.5208 55.9264 70.0809 52.7792L67.035 54.447ZM69.4853 63.6243L68.9638 66.8352L69.8078 66.8382L70.3292 63.6274L70.8506 60.4165L70.0067 60.4134L69.4853 63.6243Z" fill="white" mask="url(#path-15-inside-3_11_27)"/>
</g>
<defs>
<filter id="filter0_d_11_27" x="519.34" y="82.7019" width="69.4833" height="56.7691" filterUnits="userSpaceOnUse" color-interpolation-filters="sRGB">
<feFlood flood-opacity="0" result="BackgroundImageFix"/>
<feColorMatrix in="SourceAlpha" type="matrix" values="0 0 0 0 0 0 0 0 0 0 0 0 0 0 0 0 0 0 127 0" result="hardAlpha"/>
<feOffset dx="2.89733" dy="5.50494"/>
<feComposite in2="hardAlpha" operator="out"/>
<feColorMatrix type="matrix" values="0 0 0 0 1 0 0 0 0 0.302885 0 0 0 0 0.697917 0 0 0 1 0"/>
<feBlend mode="normal" in2="BackgroundImageFix" result="effect1_dropShadow_11_27"/>
<feBlend mode="normal" in="SourceGraphic" in2="effect1_dropShadow_11_27" result="shape"/>
</filter>
<filter id="filter1_d_11_27" x="456.708" y="83.2654" width="68.3471" height="55.4773" filterUnits="userSpaceOnUse" color-interpolation-filters="sRGB">
<feFlood flood-opacity="0" result="BackgroundImageFix"/>
<feColorMatrix in="SourceAlpha" type="matrix" values="0 0 0 0 0 0 0 0 0 0 0 0 0 0 0 0 0 0 127 0" result="hardAlpha"/>
<feOffset dx="2.89734" dy="5.50494"/>
<feComposite in2="hardAlpha" operator="out"/>
<feColorMatrix type="matrix" values="0 0 0 0 1 0 0 0 0 0.302885 0 0 0 0 0.697917 0 0 0 1 0"/>
<feBlend mode="normal" in2="BackgroundImageFix" result="effect1_dropShadow_11_27"/>
<feBlend mode="normal" in="SourceGraphic" in2="effect1_dropShadow_11_27" result="shape"/>
</filter>
<filter id="filter2_d_11_27" x="406.926" y="65.3291" width="55.5967" height="75.8082" filterUnits="userSpaceOnUse" color-interpolation-filters="sRGB">
<feFlood flood-opacity="0" result="BackgroundImageFix"/>
<feColorMatrix in="SourceAlpha" type="matrix" values="0 0 0 0 0 0 0 0 0 0 0 0 0 0 0 0 0 0 127 0" result="hardAlpha"/>
<feOffset dx="2.89733" dy="5.50494"/>
<feComposite in2="hardAlpha" operator="out"/>
<feColorMatrix type="matrix" values="0 0 0 0 1 0 0 0 0 0.302885 0 0 0 0 0.697917 0 0 0 1 0"/>
<feBlend mode="normal" in2="BackgroundImageFix" result="effect1_dropShadow_11_27"/>
<feBlend mode="normal" in="SourceGraphic" in2="effect1_dropShadow_11_27" result="shape"/>
</filter>
<filter id="filter3_d_11_27" x="342.985" y="81.207" width="63.8013" height="58.7679" filterUnits="userSpaceOnUse" color-interpolation-filters="sRGB">
<feFlood flood-opacity="0" result="BackgroundImageFix"/>
<feColorMatrix in="SourceAlpha" type="matrix" values="0 0 0 0 0 0 0 0 0 0 0 0 0 0 0 0 0 0 127 0" result="hardAlpha"/>
<feOffset dx="2.89733" dy="5.50494"/>
<feComposite in2="hardAlpha" operator="out"/>
<feColorMatrix type="matrix" values="0 0 0 0 1 0 0 0 0 0.302885 0 0 0 0 0.697917 0 0 0 1 0"/>
<feBlend mode="normal" in2="BackgroundImageFix" result="effect1_dropShadow_11_27"/>
<feBlend mode="normal" in="SourceGraphic" in2="effect1_dropShadow_11_27" result="shape"/>
</filter>
<filter id="filter4_d_11_27" x="248.131" y="52.9712" width="97.4511" height="90.1512" filterUnits="userSpaceOnUse" color-interpolation-filters="sRGB">
<feFlood flood-opacity="0" result="BackgroundImageFix"/>
<feColorMatrix in="SourceAlpha" type="matrix" values="0 0 0 0 0 0 0 0 0 0 0 0 0 0 0 0 0 0 127 0" result="hardAlpha"/>
<feOffset dx="2.89733" dy="5.50494"/>
<feComposite in2="hardAlpha" operator="out"/>
<feColorMatrix type="matrix" values="0 0 0 0 1 0 0 0 0 0.302885 0 0 0 0 0.697917 0 0 0 1 0"/>
<feBlend mode="normal" in2="BackgroundImageFix" result="effect1_dropShadow_11_27"/>
<feBlend mode="normal" in="SourceGraphic" in2="effect1_dropShadow_11_27" result="shape"/>
</filter>
<filter id="filter5_di_11_27" x="180.049" y="82.9158" width="69.1046" height="59.6817" filterUnits="userSpaceOnUse" color-interpolation-filters="sRGB">
<feFlood flood-opacity="0" result="BackgroundImageFix"/>
<feColorMatrix in="SourceAlpha" type="matrix" values="0 0 0 0 0 0 0 0 0 0 0 0 0 0 0 0 0 0 127 0" result="hardAlpha"/>
<feOffset dx="3.57827" dy="4.87947"/>
<feComposite in2="hardAlpha" operator="out"/>
<feColorMatrix type="matrix" values="0 0 0 0 1 0 0 0 0 0.637019 0 0 0 0 0.903205 0 0 0 1 0"/>
<feBlend mode="normal" in2="BackgroundImageFix" result="effect1_dropShadow_11_27"/>
<feBlend mode="normal" in="SourceGraphic" in2="effect1_dropShadow_11_27" result="shape"/>
<feColorMatrix in="SourceAlpha" type="matrix" values="0 0 0 0 0 0 0 0 0 0 0 0 0 0 0 0 0 0 127 0" result="hardAlpha"/>
<feOffset dx="-3.25298" dy="1.62649"/>
<feComposite in2="hardAlpha" operator="arithmetic" k2="-1" k3="1"/>
<feColorMatrix type="matrix" values="0 0 0 0 1 0 0 0 0 1 0 0 0 0 1 0 0 0 1 0"/>
<feBlend mode="normal" in2="shape" result="effect2_innerShadow_11_27"/>
</filter>
<filter id="filter6_di_11_27" x="122.274" y="82.8259" width="61.8445" height="60.1661" filterUnits="userSpaceOnUse" color-interpolation-filters="sRGB">
<feFlood flood-opacity="0" result="BackgroundImageFix"/>
<feColorMatrix in="SourceAlpha" type="matrix" values="0 0 0 0 0 0 0 0 0 0 0 0 0 0 0 0 0 0 127 0" result="hardAlpha"/>
<feOffset dx="3.57828" dy="4.87947"/>
<feComposite in2="hardAlpha" operator="out"/>
<feColorMatrix type="matrix" values="0 0 0 0 1 0 0 0 0 0.637019 0 0 0 0 0.903205 0 0 0 1 0"/>
<feBlend mode="normal" in2="BackgroundImageFix" result="effect1_dropShadow_11_27"/>
<feBlend mode="normal" in="SourceGraphic" in2="effect1_dropShadow_11_27" result="shape"/>
<feColorMatrix in="SourceAlpha" type="matrix" values="0 0 0 0 0 0 0 0 0 0 0 0 0 0 0 0 0 0 127 0" result="hardAlpha"/>
<feOffset dx="-3.25298" dy="1.62649"/>
<feComposite in2="hardAlpha" operator="arithmetic" k2="-1" k3="1"/>
<feColorMatrix type="matrix" values="0 0 0 0 1 0 0 0 0 1 0 0 0 0 1 0 0 0 1 0"/>
<feBlend mode="normal" in2="shape" result="effect2_innerShadow_11_27"/>
</filter>
<filter id="filter7_di_11_27" x="7.42953" y="39.0083" width="120.378" height="105.206" filterUnits="userSpaceOnUse" color-interpolation-filters="sRGB">
<feFlood flood-opacity="0" result="BackgroundImageFix"/>
<feColorMatrix in="SourceAlpha" type="matrix" values="0 0 0 0 0 0 0 0 0 0 0 0 0 0 0 0 0 0 127 0" result="hardAlpha"/>
<feOffset dx="3.57828" dy="4.87947"/>
<feComposite in2="hardAlpha" operator="out"/>
<feColorMatrix type="matrix" values="0 0 0 0 1 0 0 0 0 0.637019 0 0 0 0 0.903205 0 0 0 1 0"/>
<feBlend mode="normal" in2="BackgroundImageFix" result="effect1_dropShadow_11_27"/>
<feBlend mode="normal" in="SourceGraphic" in2="effect1_dropShadow_11_27" result="shape"/>
<feColorMatrix in="SourceAlpha" type="matrix" values="0 0 0 0 0 0 0 0 0 0 0 0 0 0 0 0 0 0 127 0" result="hardAlpha"/>
<feOffset dx="-3.25298" dy="1.62649"/>
<feComposite in2="hardAlpha" operator="arithmetic" k2="-1" k3="1"/>
<feColorMatrix type="matrix" values="0 0 0 0 1 0 0 0 0 1 0 0 0 0 1 0 0 0 1 0"/>
<feBlend mode="normal" in2="shape" result="effect2_innerShadow_11_27"/>
</filter>
<linearGradient id="paint0_linear_11_27" x1="576.532" y1="38.6092" x2="577.884" y2="145.816" gradientUnits="userSpaceOnUse">
<stop stop-color="white"/>
<stop offset="0.586538" stop-color="#FF50B3"/>
</linearGradient>
<linearGradient id="paint1_linear_11_27" x1="506.884" y1="40.5684" x2="508.201" y2="144.995" gradientUnits="userSpaceOnUse">
<stop stop-color="white"/>
<stop offset="0.586538" stop-color="#FF50B3"/>
</linearGradient>
<linearGradient id="paint2_linear_11_27" x1="454.738" y1="23.7407" x2="454.798" y2="150.511" gradientUnits="userSpaceOnUse">
<stop stop-color="white"/>
<stop offset="0.586538" stop-color="#FF50B3"/>
</linearGradient>
<linearGradient id="paint3_linear_11_27" x1="390.728" y1="42.4473" x2="391.911" y2="136.217" gradientUnits="userSpaceOnUse">
<stop stop-color="white"/>
<stop offset="0.586538" stop-color="#FF50B3"/>
</linearGradient>
<linearGradient id="paint4_linear_11_27" x1="316.621" y1="3.71334" x2="318.525" y2="154.604" gradientUnits="userSpaceOnUse">
<stop stop-color="white"/>
<stop offset="0.586538" stop-color="#FF50B3"/>
</linearGradient>
<linearGradient id="paint5_linear_11_27" x1="227.747" y1="54.632" x2="230.723" y2="154.448" gradientUnits="userSpaceOnUse">
<stop stop-color="white"/>
<stop offset="0.740385" stop-color="#FF50D3"/>
</linearGradient>
<linearGradient id="paint6_linear_11_27" x1="151.605" y1="52.0408" x2="151.637" y2="156.303" gradientUnits="userSpaceOnUse">
<stop stop-color="white"/>
<stop offset="0.740385" stop-color="#FF50D3"/>
</linearGradient>
<linearGradient id="paint7_linear_11_27" x1="76.251" y1="26.2263" x2="75.7527" y2="163.006" gradientUnits="userSpaceOnUse">
<stop stop-color="white"/>
<stop offset="0.740385" stop-color="#FF50D3"/>
</linearGradient>
</defs>
</svg>
