<svg width="2150" height="640" viewBox="0 0 2150 640" fill="none" xmlns="http://www.w3.org/2000/svg">
<g filter="url(#filter0_d_19_3)">
<path d="M1976.08 475.463L1941.83 475.948L1907.58 476.433L1873.33 476.918L1839.09 477.403L1845.73 443.803L1879.98 443.318L1914.23 442.833L1948.48 442.348L1982.72 441.863L1989.37 408.262L1955.12 408.747L1920.87 409.232L1886.63 409.717L1893.27 376.117L1859.02 376.601L1865.67 343.001L1899.92 342.516L1906.57 308.915L1940.81 308.431L1975.06 307.946L2009.31 307.461L2043.56 306.976L2036.91 340.576L2002.66 341.061L1968.42 341.546L1934.17 342.031L1927.52 375.632L1961.77 375.147L1996.02 374.662L2030.27 374.177L2023.62 407.777L2057.87 407.293L2051.22 440.893L2016.97 441.378L2010.33 474.979L1976.08 475.463Z" fill="url(#paint0_linear_19_3)"/>
<path d="M1839.09 477.403L1835.19 477.458L1834.43 481.285L1838.33 481.23L1839.09 477.403ZM1845.73 443.803L1846.49 439.975L1842.59 440.031L1841.83 443.858L1845.73 443.803ZM1982.72 441.863L1981.97 445.69L1985.87 445.635L1986.63 441.808L1982.72 441.863ZM1989.37 408.262L1993.27 408.207L1994.03 404.38L1990.13 404.435L1989.37 408.262ZM1886.63 409.717L1882.73 409.772L1881.97 413.6L1885.87 413.544L1886.63 409.717ZM1893.27 376.117L1897.17 376.061L1897.93 372.234L1894.03 372.289L1893.27 376.117ZM1859.02 376.601L1855.12 376.657L1854.37 380.484L1858.27 380.429L1859.02 376.601ZM1865.67 343.001L1866.43 339.174L1862.53 339.229L1861.77 343.056L1865.67 343.001ZM1899.92 342.516L1899.16 346.343L1903.06 346.288L1903.82 342.461L1899.92 342.516ZM1906.57 308.915L1907.32 305.088L1903.42 305.144L1902.66 308.971L1906.57 308.915ZM2043.56 306.976L2047.46 306.921L2048.22 303.093L2044.32 303.149L2043.56 306.976ZM2036.91 340.576L2036.15 344.404L2040.06 344.348L2040.81 340.521L2036.91 340.576ZM1934.17 342.031L1934.92 338.204L1931.02 338.259L1930.27 342.086L1934.17 342.031ZM1927.52 375.632L1923.62 375.687L1922.86 379.514L1926.76 379.459L1927.52 375.632ZM2030.27 374.177L2034.17 374.122L2034.92 370.295L2031.02 370.35L2030.27 374.177ZM2023.62 407.777L2019.72 407.833L2018.96 411.66L2022.86 411.605L2023.62 407.777ZM2057.87 407.293L2061.77 407.237L2062.53 403.41L2058.62 403.465L2057.87 407.293ZM2051.22 440.893L2050.46 444.72L2054.37 444.665L2055.12 440.838L2051.22 440.893ZM2016.97 441.378L2017.73 437.551L2013.83 437.606L2013.07 441.433L2016.97 441.378ZM2010.33 474.979L2009.57 478.806L2013.47 478.75L2014.23 474.923L2010.33 474.979ZM1976.08 475.463L1976.84 471.636L1942.59 472.121L1941.83 475.948L1941.07 479.776L1975.32 479.291L1976.08 475.463ZM1941.83 475.948L1942.59 472.121L1908.34 472.606L1907.58 476.433L1906.83 480.26L1941.07 479.776L1941.83 475.948ZM1907.58 476.433L1908.34 472.606L1874.09 473.091L1873.33 476.918L1872.58 480.745L1906.83 480.26L1907.58 476.433ZM1873.33 476.918L1874.09 473.091L1839.84 473.576L1839.09 477.403L1838.33 481.23L1872.58 480.745L1873.33 476.918ZM1839.09 477.403L1842.99 477.348L1849.63 443.747L1845.73 443.803L1841.83 443.858L1835.19 477.458L1839.09 477.403ZM1845.73 443.803L1844.98 447.63L1879.22 447.145L1879.98 443.318L1880.74 439.49L1846.49 439.975L1845.73 443.803ZM1879.98 443.318L1879.22 447.145L1913.47 446.66L1914.23 442.833L1914.99 439.006L1880.74 439.49L1879.98 443.318ZM1914.23 442.833L1913.47 446.66L1947.72 446.175L1948.48 442.348L1949.23 438.521L1914.99 439.006L1914.23 442.833ZM1948.48 442.348L1947.72 446.175L1981.97 445.69L1982.72 441.863L1983.48 438.036L1949.23 438.521L1948.48 442.348ZM1982.72 441.863L1986.63 441.808L1993.27 408.207L1989.37 408.262L1985.47 408.318L1978.82 441.918L1982.72 441.863ZM1989.37 408.262L1990.13 404.435L1955.88 404.92L1955.12 408.747L1954.37 412.574L1988.61 412.09L1989.37 408.262ZM1955.12 408.747L1955.88 404.92L1921.63 405.405L1920.87 409.232L1920.12 413.059L1954.37 412.574L1955.12 408.747ZM1920.87 409.232L1921.63 405.405L1887.38 405.89L1886.63 409.717L1885.87 413.544L1920.12 413.059L1920.87 409.232ZM1886.63 409.717L1890.53 409.662L1897.17 376.061L1893.27 376.117L1889.37 376.172L1882.73 409.772L1886.63 409.717ZM1893.27 376.117L1894.03 372.289L1859.78 372.774L1859.02 376.601L1858.27 380.429L1892.52 379.944L1893.27 376.117ZM1859.02 376.601L1862.93 376.546L1869.57 342.946L1865.67 343.001L1861.77 343.056L1855.12 376.657L1859.02 376.601ZM1865.67 343.001L1864.91 346.828L1899.16 346.343L1899.92 342.516L1900.68 338.689L1866.43 339.174L1865.67 343.001ZM1899.92 342.516L1903.82 342.461L1910.47 308.86L1906.57 308.915L1902.66 308.971L1896.02 342.571L1899.92 342.516ZM1906.57 308.915L1905.81 312.743L1940.06 312.258L1940.81 308.431L1941.57 304.603L1907.32 305.088L1906.57 308.915ZM1940.81 308.431L1940.06 312.258L1974.3 311.773L1975.06 307.946L1975.82 304.119L1941.57 304.603L1940.81 308.431ZM1975.06 307.946L1974.3 311.773L2008.55 311.288L2009.31 307.461L2010.07 303.634L1975.82 304.119L1975.06 307.946ZM2009.31 307.461L2008.55 311.288L2042.8 310.803L2043.56 306.976L2044.32 303.149L2010.07 303.634L2009.31 307.461ZM2043.56 306.976L2039.66 307.031L2033.01 340.632L2036.91 340.576L2040.81 340.521L2047.46 306.921L2043.56 306.976ZM2036.91 340.576L2037.67 336.749L2003.42 337.234L2002.66 341.061L2001.91 344.889L2036.15 344.404L2036.91 340.576ZM2002.66 341.061L2003.42 337.234L1969.17 337.719L1968.42 341.546L1967.66 345.373L2001.91 344.889L2002.66 341.061ZM1968.42 341.546L1969.17 337.719L1934.92 338.204L1934.17 342.031L1933.41 345.858L1967.66 345.373L1968.42 341.546ZM1934.17 342.031L1930.27 342.086L1923.62 375.687L1927.52 375.632L1931.42 375.576L1938.07 341.976L1934.17 342.031ZM1927.52 375.632L1926.76 379.459L1961.01 378.974L1961.77 375.147L1962.53 371.32L1928.28 371.804L1927.52 375.632ZM1961.77 375.147L1961.01 378.974L1995.26 378.489L1996.02 374.662L1996.77 370.835L1962.53 371.32L1961.77 375.147ZM1996.02 374.662L1995.26 378.489L2029.51 378.004L2030.27 374.177L2031.02 370.35L1996.77 370.835L1996.02 374.662ZM2030.27 374.177L2026.36 374.232L2019.72 407.833L2023.62 407.777L2027.52 407.722L2034.17 374.122L2030.27 374.177ZM2023.62 407.777L2022.86 411.605L2057.11 411.12L2057.87 407.293L2058.62 403.465L2024.38 403.95L2023.62 407.777ZM2057.87 407.293L2053.97 407.348L2047.32 440.948L2051.22 440.893L2055.12 440.838L2061.77 407.237L2057.87 407.293ZM2051.22 440.893L2051.98 437.066L2017.73 437.551L2016.97 441.378L2016.22 445.205L2050.46 444.72L2051.22 440.893ZM2016.97 441.378L2013.07 441.433L2006.43 475.034L2010.33 474.979L2014.23 474.923L2020.87 441.323L2016.97 441.378ZM2010.33 474.979L2011.08 471.151L1976.84 471.636L1976.08 475.463L1975.32 479.291L2009.57 478.806L2010.33 474.979Z" fill="white"/>
</g>
<g filter="url(#filter1_d_19_3)">
<path d="M1753.22 441.704L1786.38 441.235L1781.08 473.969L1747.93 474.439L1714.77 474.908L1681.61 475.378L1648.46 475.847L1653.75 443.113L1620.6 443.582L1625.89 410.848L1631.19 378.113L1636.48 345.379L1669.64 344.909L1674.93 312.175L1708.09 311.705L1741.25 311.236L1774.4 310.766L1807.56 310.297L1802.27 343.031L1835.42 342.562L1830.13 375.296L1796.97 375.766L1791.67 408.5L1758.52 408.97L1725.36 409.439L1692.2 409.909L1686.91 442.643L1720.07 442.174L1753.22 441.704ZM1730.66 376.705L1763.81 376.235L1769.11 343.501L1735.95 343.97L1702.8 344.44L1697.5 377.174L1730.66 376.705Z" fill="url(#paint1_linear_19_3)"/>
<path d="M1786.38 441.235L1790.28 441.18L1790.9 437.328L1787 437.384L1786.38 441.235ZM1781.08 473.969L1780.46 477.821L1784.36 477.766L1784.99 473.914L1781.08 473.969ZM1648.46 475.847L1644.56 475.903L1643.93 479.754L1647.83 479.699L1648.46 475.847ZM1653.75 443.113L1657.65 443.058L1658.28 439.206L1654.38 439.261L1653.75 443.113ZM1620.6 443.582L1616.69 443.637L1616.07 447.489L1619.97 447.433L1620.6 443.582ZM1636.48 345.379L1637.1 341.527L1633.2 341.583L1632.58 345.434L1636.48 345.379ZM1669.64 344.909L1669.02 348.76L1672.92 348.705L1673.54 344.854L1669.64 344.909ZM1674.93 312.175L1675.56 308.323L1671.66 308.379L1671.03 312.23L1674.93 312.175ZM1807.56 310.297L1811.46 310.242L1812.08 306.39L1808.18 306.446L1807.56 310.297ZM1802.27 343.031L1798.36 343.087L1797.74 346.938L1801.64 346.883L1802.27 343.031ZM1835.42 342.562L1839.32 342.507L1839.95 338.655L1836.05 338.711L1835.42 342.562ZM1830.13 375.296L1829.5 379.148L1833.4 379.092L1834.03 375.241L1830.13 375.296ZM1796.97 375.766L1797.59 371.915L1793.69 371.97L1793.07 375.821L1796.97 375.766ZM1791.67 408.5L1791.05 412.352L1794.95 412.296L1795.58 408.445L1791.67 408.5ZM1692.2 409.909L1692.83 406.057L1688.93 406.113L1688.3 409.964L1692.2 409.909ZM1686.91 442.643L1683.01 442.699L1682.39 446.55L1686.29 446.495L1686.91 442.643ZM1763.81 376.235L1763.19 380.087L1767.09 380.031L1767.71 376.18L1763.81 376.235ZM1769.11 343.501L1773.01 343.446L1773.63 339.594L1769.73 339.65L1769.11 343.501ZM1702.8 344.44L1703.42 340.588L1699.52 340.644L1698.89 344.495L1702.8 344.44ZM1697.5 377.174L1693.6 377.229L1692.98 381.081L1696.88 381.025L1697.5 377.174ZM1753.22 441.704L1752.6 445.556L1785.76 445.086L1786.38 441.235L1787 437.384L1753.85 437.853L1753.22 441.704ZM1786.38 441.235L1782.48 441.29L1777.18 474.025L1781.08 473.969L1784.99 473.914L1790.28 441.18L1786.38 441.235ZM1781.08 473.969L1781.71 470.118L1748.55 470.588L1747.93 474.439L1747.3 478.29L1780.46 477.821L1781.08 473.969ZM1747.93 474.439L1748.55 470.588L1715.39 471.057L1714.77 474.908L1714.15 478.76L1747.3 478.29L1747.93 474.439ZM1714.77 474.908L1715.39 471.057L1682.24 471.527L1681.61 475.378L1680.99 479.229L1714.15 478.76L1714.77 474.908ZM1681.61 475.378L1682.24 471.527L1649.08 471.996L1648.46 475.847L1647.83 479.699L1680.99 479.229L1681.61 475.378ZM1648.46 475.847L1652.36 475.792L1657.65 443.058L1653.75 443.113L1649.85 443.168L1644.56 475.903L1648.46 475.847ZM1653.75 443.113L1654.38 439.261L1621.22 439.731L1620.6 443.582L1619.97 447.433L1653.13 446.964L1653.75 443.113ZM1620.6 443.582L1624.5 443.527L1629.79 410.792L1625.89 410.848L1621.99 410.903L1616.69 443.637L1620.6 443.582ZM1625.89 410.848L1629.79 410.792L1635.09 378.058L1631.19 378.113L1627.29 378.168L1621.99 410.903L1625.89 410.848ZM1631.19 378.113L1635.09 378.058L1640.38 345.323L1636.48 345.379L1632.58 345.434L1627.29 378.168L1631.19 378.113ZM1636.48 345.379L1635.86 349.23L1669.02 348.76L1669.64 344.909L1670.26 341.058L1637.1 341.527L1636.48 345.379ZM1669.64 344.909L1673.54 344.854L1678.83 312.119L1674.93 312.175L1671.03 312.23L1665.74 344.964L1669.64 344.909ZM1674.93 312.175L1674.31 316.026L1707.47 315.556L1708.09 311.705L1708.71 307.854L1675.56 308.323L1674.93 312.175ZM1708.09 311.705L1707.47 315.556L1740.62 315.087L1741.25 311.236L1741.87 307.384L1708.71 307.854L1708.09 311.705ZM1741.25 311.236L1740.62 315.087L1773.78 314.618L1774.4 310.766L1775.03 306.915L1741.87 307.384L1741.25 311.236ZM1774.4 310.766L1773.78 314.618L1806.94 314.148L1807.56 310.297L1808.18 306.446L1775.03 306.915L1774.4 310.766ZM1807.56 310.297L1803.66 310.352L1798.36 343.087L1802.27 343.031L1806.17 342.976L1811.46 310.242L1807.56 310.297ZM1802.27 343.031L1801.64 346.883L1834.8 346.413L1835.42 342.562L1836.05 338.711L1802.89 339.18L1802.27 343.031ZM1835.42 342.562L1831.52 342.617L1826.23 375.352L1830.13 375.296L1834.03 375.241L1839.32 342.507L1835.42 342.562ZM1830.13 375.296L1830.75 371.445L1797.59 371.915L1796.97 375.766L1796.35 379.617L1829.5 379.148L1830.13 375.296ZM1796.97 375.766L1793.07 375.821L1787.77 408.556L1791.67 408.5L1795.58 408.445L1800.87 375.711L1796.97 375.766ZM1791.67 408.5L1792.3 404.649L1759.14 405.119L1758.52 408.97L1757.89 412.821L1791.05 412.352L1791.67 408.5ZM1758.52 408.97L1759.14 405.119L1725.98 405.588L1725.36 409.439L1724.74 413.291L1757.89 412.821L1758.52 408.97ZM1725.36 409.439L1725.98 405.588L1692.83 406.057L1692.2 409.909L1691.58 413.76L1724.74 413.291L1725.36 409.439ZM1692.2 409.909L1688.3 409.964L1683.01 442.699L1686.91 442.643L1690.81 442.588L1696.11 409.854L1692.2 409.909ZM1686.91 442.643L1686.29 446.495L1719.44 446.025L1720.07 442.174L1720.69 438.323L1687.53 438.792L1686.91 442.643ZM1720.07 442.174L1719.44 446.025L1752.6 445.556L1753.22 441.704L1753.85 437.853L1720.69 438.323L1720.07 442.174ZM1730.66 376.705L1730.03 380.556L1763.19 380.087L1763.81 376.235L1764.44 372.384L1731.28 372.854L1730.66 376.705ZM1763.81 376.235L1767.71 376.18L1773.01 343.446L1769.11 343.501L1765.21 343.556L1759.91 376.291L1763.81 376.235ZM1769.11 343.501L1769.73 339.65L1736.57 340.119L1735.95 343.97L1735.33 347.822L1768.49 347.352L1769.11 343.501ZM1735.95 343.97L1736.57 340.119L1703.42 340.588L1702.8 344.44L1702.17 348.291L1735.33 347.822L1735.95 343.97ZM1702.8 344.44L1698.89 344.495L1693.6 377.229L1697.5 377.174L1701.4 377.119L1706.7 344.384L1702.8 344.44ZM1697.5 377.174L1696.88 381.025L1730.03 380.556L1730.66 376.705L1731.28 372.854L1698.12 373.323L1697.5 377.174Z" fill="white"/>
</g>
<g filter="url(#filter2_d_19_3)">
<path d="M1535.29 475.865L1494.79 475.887L1503.88 436.419L1463.38 436.441L1472.47 396.973L1481.56 357.505L1490.65 318.038L1450.14 318.059L1459.23 278.592L1499.73 278.57L1508.82 239.103L1549.33 239.081L1589.83 239.06L1580.74 278.527L1621.24 278.506L1612.15 317.973L1571.65 317.995L1562.56 357.462L1553.47 396.93L1544.38 436.398L1584.88 436.376L1575.79 475.844L1535.29 475.865Z" fill="url(#paint2_linear_19_3)"/>
<path d="M1494.79 475.887L1490.89 475.889L1490.01 479.691L1493.91 479.689L1494.79 475.887ZM1503.88 436.419L1507.78 436.417L1508.65 432.615L1504.75 432.617L1503.88 436.419ZM1463.38 436.441L1459.47 436.443L1458.6 440.245L1462.5 440.242L1463.38 436.441ZM1490.65 318.038L1494.55 318.036L1495.42 314.234L1491.52 314.236L1490.65 318.038ZM1450.14 318.059L1446.24 318.061L1445.37 321.863L1449.27 321.861L1450.14 318.059ZM1459.23 278.592L1460.11 274.79L1456.21 274.792L1455.33 278.594L1459.23 278.592ZM1499.73 278.57L1498.86 282.372L1502.76 282.37L1503.64 278.568L1499.73 278.57ZM1508.82 239.103L1509.7 235.301L1505.8 235.303L1504.92 239.105L1508.82 239.103ZM1589.83 239.06L1593.73 239.058L1594.6 235.256L1590.7 235.258L1589.83 239.06ZM1580.74 278.527L1576.83 278.529L1575.96 282.331L1579.86 282.329L1580.74 278.527ZM1621.24 278.506L1625.14 278.504L1626.01 274.702L1622.11 274.704L1621.24 278.506ZM1612.15 317.973L1611.27 321.775L1615.17 321.773L1616.05 317.971L1612.15 317.973ZM1571.65 317.995L1572.52 314.193L1568.62 314.195L1567.75 317.997L1571.65 317.995ZM1544.38 436.398L1540.48 436.4L1539.6 440.201L1543.5 440.199L1544.38 436.398ZM1584.88 436.376L1588.78 436.374L1589.66 432.572L1585.75 432.574L1584.88 436.376ZM1575.79 475.844L1574.91 479.645L1578.81 479.643L1579.69 475.842L1575.79 475.844ZM1535.29 475.865L1536.16 472.063L1495.66 472.085L1494.79 475.887L1493.91 479.689L1534.41 479.667L1535.29 475.865ZM1494.79 475.887L1498.69 475.885L1507.78 436.417L1503.88 436.419L1499.98 436.421L1490.89 475.889L1494.79 475.887ZM1503.88 436.419L1504.75 432.617L1464.25 432.639L1463.38 436.441L1462.5 440.242L1503 440.221L1503.88 436.419ZM1463.38 436.441L1467.28 436.439L1476.37 396.971L1472.47 396.973L1468.56 396.975L1459.47 436.443L1463.38 436.441ZM1472.47 396.973L1476.37 396.971L1485.46 357.503L1481.56 357.505L1477.65 357.508L1468.56 396.975L1472.47 396.973ZM1481.56 357.505L1485.46 357.503L1494.55 318.036L1490.65 318.038L1486.74 318.04L1477.65 357.508L1481.56 357.505ZM1490.65 318.038L1491.52 314.236L1451.02 314.258L1450.14 318.059L1449.27 321.861L1489.77 321.84L1490.65 318.038ZM1450.14 318.059L1454.05 318.057L1463.14 278.59L1459.23 278.592L1455.33 278.594L1446.24 318.061L1450.14 318.059ZM1459.23 278.592L1458.36 282.394L1498.86 282.372L1499.73 278.57L1500.61 274.769L1460.11 274.79L1459.23 278.592ZM1499.73 278.57L1503.64 278.568L1512.73 239.101L1508.82 239.103L1504.92 239.105L1495.83 278.572L1499.73 278.57ZM1508.82 239.103L1507.95 242.905L1548.45 242.883L1549.33 239.081L1550.2 235.279L1509.7 235.301L1508.82 239.103ZM1549.33 239.081L1548.45 242.883L1588.95 242.861L1589.83 239.06L1590.7 235.258L1550.2 235.279L1549.33 239.081ZM1589.83 239.06L1585.92 239.062L1576.83 278.529L1580.74 278.527L1584.64 278.525L1593.73 239.058L1589.83 239.06ZM1580.74 278.527L1579.86 282.329L1620.36 282.308L1621.24 278.506L1622.11 274.704L1581.61 274.725L1580.74 278.527ZM1621.24 278.506L1617.34 278.508L1608.25 317.975L1612.15 317.973L1616.05 317.971L1625.14 278.504L1621.24 278.506ZM1612.15 317.973L1613.02 314.172L1572.52 314.193L1571.65 317.995L1570.77 321.797L1611.27 321.775L1612.15 317.973ZM1571.65 317.995L1567.75 317.997L1558.66 357.465L1562.56 357.462L1566.46 357.46L1575.55 317.993L1571.65 317.995ZM1562.56 357.462L1558.66 357.465L1549.57 396.932L1553.47 396.93L1557.37 396.928L1566.46 357.46L1562.56 357.462ZM1553.47 396.93L1549.57 396.932L1540.48 436.4L1544.38 436.398L1548.28 436.396L1557.37 396.928L1553.47 396.93ZM1544.38 436.398L1543.5 440.199L1584 440.178L1584.88 436.376L1585.75 432.574L1545.25 432.596L1544.38 436.398ZM1584.88 436.376L1580.98 436.378L1571.89 475.846L1575.79 475.844L1579.69 475.842L1588.78 436.374L1584.88 436.376ZM1575.79 475.844L1576.66 472.042L1536.16 472.063L1535.29 475.865L1534.41 479.667L1574.91 479.645L1575.79 475.844Z" fill="white"/>
</g>
<g filter="url(#filter3_d_19_3)">
<path d="M1329.68 478.029L1299.77 478.452L1269.86 478.876L1239.96 479.299L1246.27 450.063L1276.18 449.64L1306.09 449.216L1335.99 448.793L1342.31 419.557L1312.4 419.981L1282.5 420.404L1252.59 420.827L1258.9 391.591L1229 392.015L1235.31 362.779L1241.63 333.543L1247.94 304.307L1277.85 303.884L1307.76 303.46L1301.44 332.696L1295.13 361.932L1288.81 391.168L1318.72 390.745L1348.62 390.321L1354.94 361.085L1361.25 331.849L1367.57 302.613L1397.48 302.19L1427.38 301.767L1421.07 331.002L1414.75 360.238L1408.44 389.474L1402.12 418.71L1395.81 447.946L1365.9 448.37L1359.59 477.606L1329.68 478.029Z" fill="url(#paint3_linear_19_3)"/>
<path d="M1239.96 479.299L1236.06 479.354L1235.23 483.168L1239.13 483.113L1239.96 479.299ZM1246.27 450.063L1247.1 446.25L1243.2 446.305L1242.37 450.119L1246.27 450.063ZM1335.99 448.793L1335.17 452.606L1339.07 452.551L1339.9 448.738L1335.99 448.793ZM1342.31 419.557L1346.21 419.502L1347.03 415.688L1343.13 415.744L1342.31 419.557ZM1252.59 420.827L1248.69 420.883L1247.86 424.696L1251.76 424.641L1252.59 420.827ZM1258.9 391.591L1262.8 391.536L1263.63 387.723L1259.73 387.778L1258.9 391.591ZM1229 392.015L1225.09 392.07L1224.27 395.884L1228.17 395.828L1229 392.015ZM1247.94 304.307L1248.76 300.494L1244.86 300.549L1244.04 304.362L1247.94 304.307ZM1307.76 303.46L1311.66 303.405L1312.48 299.592L1308.58 299.647L1307.76 303.46ZM1288.81 391.168L1284.91 391.223L1284.09 395.037L1287.99 394.981L1288.81 391.168ZM1348.62 390.321L1347.8 394.135L1351.7 394.079L1352.53 390.266L1348.62 390.321ZM1367.57 302.613L1368.39 298.8L1364.49 298.855L1363.67 302.669L1367.57 302.613ZM1427.38 301.767L1431.29 301.711L1432.11 297.898L1428.21 297.953L1427.38 301.767ZM1395.81 447.946L1394.99 451.76L1398.89 451.704L1399.71 447.891L1395.81 447.946ZM1365.9 448.37L1366.73 444.556L1362.82 444.611L1362 448.425L1365.9 448.37ZM1359.59 477.605L1358.76 481.419L1362.66 481.364L1363.49 477.55L1359.59 477.605ZM1329.68 478.029L1330.5 474.216L1300.6 474.639L1299.77 478.452L1298.95 482.266L1328.86 481.842L1329.68 478.029ZM1299.77 478.452L1300.6 474.639L1270.69 475.062L1269.86 478.876L1269.04 482.689L1298.95 482.266L1299.77 478.452ZM1269.86 478.876L1270.69 475.062L1240.78 475.486L1239.96 479.299L1239.13 483.113L1269.04 482.689L1269.86 478.876ZM1239.96 479.299L1243.86 479.244L1250.17 450.008L1246.27 450.063L1242.37 450.119L1236.06 479.354L1239.96 479.299ZM1246.27 450.063L1245.45 453.877L1275.36 453.453L1276.18 449.64L1277 445.826L1247.1 446.25L1246.27 450.063ZM1276.18 449.64L1275.36 453.453L1305.26 453.03L1306.09 449.216L1306.91 445.403L1277 445.826L1276.18 449.64ZM1306.09 449.216L1305.26 453.03L1335.17 452.606L1335.99 448.793L1336.82 444.98L1306.91 445.403L1306.09 449.216ZM1335.99 448.793L1339.9 448.738L1346.21 419.502L1342.31 419.557L1338.41 419.612L1332.09 448.848L1335.99 448.793ZM1342.31 419.557L1343.13 415.744L1313.23 416.167L1312.4 419.981L1311.58 423.794L1341.49 423.37L1342.31 419.557ZM1312.4 419.981L1313.23 416.167L1283.32 416.591L1282.5 420.404L1281.67 424.217L1311.58 423.794L1312.4 419.981ZM1282.5 420.404L1283.32 416.591L1253.41 417.014L1252.59 420.827L1251.76 424.641L1281.67 424.217L1282.5 420.404ZM1252.59 420.827L1256.49 420.772L1262.8 391.536L1258.9 391.591L1255 391.647L1248.69 420.883L1252.59 420.827ZM1258.9 391.591L1259.73 387.778L1229.82 388.202L1229 392.015L1228.17 395.828L1258.08 395.405L1258.9 391.591ZM1229 392.015L1232.9 391.96L1239.21 362.724L1235.31 362.779L1231.41 362.834L1225.09 392.07L1229 392.015ZM1235.31 362.779L1239.21 362.724L1245.53 333.488L1241.63 333.543L1237.72 333.598L1231.41 362.834L1235.31 362.779ZM1241.63 333.543L1245.53 333.488L1251.84 304.252L1247.94 304.307L1244.04 304.362L1237.72 333.598L1241.63 333.543ZM1247.94 304.307L1247.12 308.121L1277.02 307.697L1277.85 303.884L1278.67 300.07L1248.76 300.494L1247.94 304.307ZM1277.85 303.884L1277.02 307.697L1306.93 307.274L1307.76 303.46L1308.58 299.647L1278.67 300.07L1277.85 303.884ZM1307.76 303.46L1303.85 303.516L1297.54 332.751L1301.44 332.696L1305.34 332.641L1311.66 303.405L1307.76 303.46ZM1301.44 332.696L1297.54 332.751L1291.22 361.987L1295.13 361.932L1299.03 361.877L1305.34 332.641L1301.44 332.696ZM1295.13 361.932L1291.22 361.987L1284.91 391.223L1288.81 391.168L1292.71 391.113L1299.03 361.877L1295.13 361.932ZM1288.81 391.168L1287.99 394.981L1317.89 394.558L1318.72 390.745L1319.54 386.931L1289.63 387.355L1288.81 391.168ZM1318.72 390.745L1317.89 394.558L1347.8 394.135L1348.62 390.321L1349.45 386.508L1319.54 386.931L1318.72 390.745ZM1348.62 390.321L1352.53 390.266L1358.84 361.03L1354.94 361.085L1351.04 361.14L1344.72 390.376L1348.62 390.321ZM1354.94 361.085L1358.84 361.03L1365.16 331.794L1361.25 331.849L1357.35 331.905L1351.04 361.14L1354.94 361.085ZM1361.25 331.849L1365.16 331.794L1371.47 302.558L1367.57 302.613L1363.67 302.669L1357.35 331.905L1361.25 331.849ZM1367.57 302.613L1366.75 306.427L1396.65 306.003L1397.48 302.19L1398.3 298.377L1368.39 298.8L1367.57 302.613ZM1397.48 302.19L1396.65 306.003L1426.56 305.58L1427.38 301.767L1428.21 297.953L1398.3 298.377L1397.48 302.19ZM1427.38 301.767L1423.48 301.822L1417.17 331.058L1421.07 331.002L1424.97 330.947L1431.29 301.711L1427.38 301.767ZM1421.07 331.002L1417.17 331.058L1410.85 360.294L1414.75 360.238L1418.65 360.183L1424.97 330.947L1421.07 331.002ZM1414.75 360.238L1410.85 360.294L1404.54 389.53L1408.44 389.474L1412.34 389.419L1418.65 360.183L1414.75 360.238ZM1408.44 389.474L1404.54 389.53L1398.22 418.765L1402.12 418.71L1406.02 418.655L1412.34 389.419L1408.44 389.474ZM1402.12 418.71L1398.22 418.765L1391.91 448.001L1395.81 447.946L1399.71 447.891L1406.02 418.655L1402.12 418.71ZM1395.81 447.946L1396.63 444.133L1366.73 444.556L1365.9 448.37L1365.08 452.183L1394.99 451.76L1395.81 447.946ZM1365.9 448.37L1362 448.425L1355.69 477.661L1359.59 477.605L1363.49 477.55L1369.8 448.314L1365.9 448.37ZM1359.59 477.605L1360.41 473.792L1330.5 474.216L1329.68 478.029L1328.86 481.842L1358.76 481.419L1359.59 477.605Z" fill="white"/>
</g>
<g filter="url(#filter4_d_19_3)">
<path d="M1091.86 470.664L1044.48 471.335L997.106 472.006L949.729 472.677L902.352 473.347L908.281 426.338L914.211 379.329L920.14 332.32L926.069 285.31L931.999 238.301L937.928 191.292L985.305 190.621L1032.68 189.95L1080.06 189.279L1127.44 188.609L1174.81 187.938L1168.88 234.947L1216.26 234.276L1210.33 281.286L1162.95 281.956L1157.02 328.966L1204.4 328.295L1198.47 375.304L1192.54 422.313L1145.17 422.984L1139.24 469.993L1091.86 470.664ZM1050.41 424.326L1097.79 423.655L1103.72 376.646L1109.65 329.636L1062.27 330.307L1014.89 330.978L1008.96 377.987L1003.04 424.997L1050.41 424.326ZM1068.2 283.298L1115.58 282.627L1121.51 235.618L1074.13 236.289L1026.75 236.96L1020.82 283.969L1068.2 283.298Z" fill="url(#paint4_linear_19_3)"/>
<path d="M902.352 473.347L898.451 473.403L897.963 477.273L901.864 477.218L902.352 473.347ZM937.928 191.292L938.416 187.421L934.515 187.476L934.027 191.347L937.928 191.292ZM1174.81 187.938L1178.71 187.883L1179.2 184.012L1175.3 184.067L1174.81 187.938ZM1168.88 234.947L1164.98 235.002L1164.49 238.873L1168.4 238.818L1168.88 234.947ZM1216.26 234.276L1220.16 234.221L1220.65 230.35L1216.75 230.406L1216.26 234.276ZM1210.33 281.286L1209.84 285.156L1213.74 285.101L1214.23 281.23L1210.33 281.286ZM1162.95 281.956L1163.44 278.086L1159.54 278.141L1159.05 282.012L1162.95 281.956ZM1157.02 328.966L1153.12 329.021L1152.64 332.892L1156.54 332.836L1157.02 328.966ZM1204.4 328.295L1208.3 328.24L1208.79 324.369L1204.89 324.424L1204.4 328.295ZM1192.54 422.313L1192.05 426.184L1195.96 426.129L1196.44 422.258L1192.54 422.313ZM1145.17 422.984L1145.65 419.114L1141.75 419.169L1141.27 423.039L1145.17 422.984ZM1139.24 469.993L1138.75 473.864L1142.65 473.809L1143.14 469.938L1139.24 469.993ZM1097.79 423.655L1097.3 427.526L1101.2 427.47L1101.69 423.6L1097.79 423.655ZM1109.65 329.636L1113.55 329.581L1114.04 325.711L1110.14 325.766L1109.65 329.636ZM1014.89 330.978L1015.38 327.107L1011.48 327.163L1010.99 331.033L1014.89 330.978ZM1003.04 424.997L999.134 425.052L998.646 428.922L1002.55 428.867L1003.04 424.997ZM1115.58 282.627L1115.09 286.498L1118.99 286.443L1119.48 282.572L1115.58 282.627ZM1121.51 235.618L1125.41 235.563L1125.9 231.692L1121.99 231.747L1121.51 235.618ZM1026.75 236.959L1027.24 233.089L1023.34 233.144L1022.85 237.015L1026.75 236.959ZM1020.82 283.969L1016.92 284.024L1016.43 287.895L1020.34 287.839L1020.82 283.969ZM1091.86 470.664L1092.35 466.794L1044.97 467.464L1044.48 471.335L1043.99 475.206L1091.37 474.535L1091.86 470.664ZM1044.48 471.335L1044.97 467.464L997.594 468.135L997.106 472.006L996.618 475.877L1043.99 475.206L1044.48 471.335ZM997.106 472.006L997.594 468.135L950.217 468.806L949.729 472.677L949.241 476.547L996.618 475.877L997.106 472.006ZM949.729 472.677L950.217 468.806L902.84 469.477L902.352 473.347L901.864 477.218L949.241 476.547L949.729 472.677ZM902.352 473.347L906.253 473.292L912.182 426.283L908.281 426.338L904.38 426.393L898.451 473.403L902.352 473.347ZM908.281 426.338L912.182 426.283L918.112 379.274L914.211 379.329L910.31 379.384L904.38 426.393L908.281 426.338ZM914.211 379.329L918.112 379.274L924.041 332.264L920.14 332.32L916.239 332.375L910.31 379.384L914.211 379.329ZM920.14 332.32L924.041 332.264L929.97 285.255L926.069 285.31L922.168 285.366L916.239 332.375L920.14 332.32ZM926.069 285.31L929.97 285.255L935.9 238.246L931.999 238.301L928.098 238.356L922.168 285.366L926.069 285.31ZM931.999 238.301L935.9 238.246L941.829 191.237L937.928 191.292L934.027 191.347L928.098 238.356L931.999 238.301ZM937.928 191.292L937.44 195.162L984.817 194.492L985.305 190.621L985.793 186.75L938.416 187.421L937.928 191.292ZM985.305 190.621L984.817 194.492L1032.19 193.821L1032.68 189.95L1033.17 186.08L985.793 186.75L985.305 190.621ZM1032.68 189.95L1032.19 193.821L1079.57 193.15L1080.06 189.279L1080.55 185.409L1033.17 186.08L1032.68 189.95ZM1080.06 189.279L1079.57 193.15L1126.95 192.479L1127.44 188.609L1127.92 184.738L1080.55 185.409L1080.06 189.279ZM1127.44 188.609L1126.95 192.479L1174.32 191.809L1174.81 187.938L1175.3 184.067L1127.92 184.738L1127.44 188.609ZM1174.81 187.938L1170.91 187.993L1164.98 235.002L1168.88 234.947L1172.78 234.892L1178.71 187.883L1174.81 187.938ZM1168.88 234.947L1168.4 238.818L1215.77 238.147L1216.26 234.276L1216.75 230.406L1169.37 231.076L1168.88 234.947ZM1216.26 234.276L1212.36 234.332L1206.43 281.341L1210.33 281.286L1214.23 281.23L1220.16 234.221L1216.26 234.276ZM1210.33 281.286L1210.82 277.415L1163.44 278.086L1162.95 281.956L1162.47 285.827L1209.84 285.156L1210.33 281.286ZM1162.95 281.956L1159.05 282.012L1153.12 329.021L1157.02 328.966L1160.93 328.91L1166.86 281.901L1162.95 281.956ZM1157.02 328.966L1156.54 332.836L1203.91 332.166L1204.4 328.295L1204.89 324.424L1157.51 325.095L1157.02 328.966ZM1204.4 328.295L1200.5 328.35L1194.57 375.359L1198.47 375.304L1202.37 375.249L1208.3 328.24L1204.4 328.295ZM1198.47 375.304L1194.57 375.359L1188.64 422.369L1192.54 422.313L1196.44 422.258L1202.37 375.249L1198.47 375.304ZM1192.54 422.313L1193.03 418.443L1145.65 419.114L1145.17 422.984L1144.68 426.855L1192.05 426.184L1192.54 422.313ZM1145.17 422.984L1141.27 423.039L1135.34 470.049L1139.24 469.993L1143.14 469.938L1149.07 422.929L1145.17 422.984ZM1139.24 469.993L1139.73 466.123L1092.35 466.794L1091.86 470.664L1091.37 474.535L1138.75 473.864L1139.24 469.993ZM1050.41 424.326L1049.92 428.196L1097.3 427.526L1097.79 423.655L1098.28 419.784L1050.9 420.455L1050.41 424.326ZM1097.79 423.655L1101.69 423.6L1107.62 376.591L1103.72 376.646L1099.82 376.701L1093.89 423.71L1097.79 423.655ZM1103.72 376.646L1107.62 376.591L1113.55 329.581L1109.65 329.636L1105.75 329.692L1099.82 376.701L1103.72 376.646ZM1109.65 329.636L1110.14 325.766L1062.76 326.437L1062.27 330.307L1061.78 334.178L1109.16 333.507L1109.65 329.636ZM1062.27 330.307L1062.76 326.437L1015.38 327.107L1014.89 330.978L1014.41 334.849L1061.78 334.178L1062.27 330.307ZM1014.89 330.978L1010.99 331.033L1005.06 378.043L1008.96 377.987L1012.87 377.932L1018.79 330.923L1014.89 330.978ZM1008.96 377.987L1005.06 378.043L999.134 425.052L1003.04 424.997L1006.94 424.941L1012.87 377.932L1008.96 377.987ZM1003.04 424.997L1002.55 428.867L1049.92 428.196L1050.41 424.326L1050.9 420.455L1003.52 421.126L1003.04 424.997ZM1068.2 283.298L1067.71 287.169L1115.09 286.498L1115.58 282.627L1116.07 278.757L1068.69 279.427L1068.2 283.298ZM1115.58 282.627L1119.48 282.572L1125.41 235.563L1121.51 235.618L1117.61 235.673L1111.68 282.682L1115.58 282.627ZM1121.51 235.618L1121.99 231.747L1074.62 232.418L1074.13 236.289L1073.64 240.159L1121.02 239.489L1121.51 235.618ZM1074.13 236.289L1074.62 232.418L1027.24 233.089L1026.75 236.959L1026.26 240.83L1073.64 240.159L1074.13 236.289ZM1026.75 236.959L1022.85 237.015L1016.92 284.024L1020.82 283.969L1024.72 283.914L1030.65 236.904L1026.75 236.959ZM1020.82 283.969L1020.34 287.839L1067.71 287.169L1068.2 283.298L1068.69 279.427L1021.31 280.098L1020.82 283.969Z" fill="white"/>
</g>
<g filter="url(#filter5_d_19_3)">
<mask id="path-11-inside-1_19_3" fill="white">
<path d="M855.831 359.645C854.656 367.68 852.146 374.936 848.301 381.414C844.455 387.891 839.534 393.463 833.538 398.13C827.541 402.797 820.85 406.428 813.466 409.024C806.081 411.621 798.14 413.059 789.645 413.34C778.964 413.694 767.971 412.058 756.664 408.434C757.188 416.413 759.532 421.862 763.695 424.782C768.135 427.457 773.632 428.687 780.186 428.47C786.255 428.269 793.172 427.217 800.939 425.314C808.948 423.403 816.958 422.314 824.968 422.049C842.445 421.471 849.958 429.572 847.505 446.351C846.572 452.732 844.374 458.684 840.909 464.208C837.687 469.724 832.87 474.587 826.457 478.797C820.321 482.763 812.486 485.962 802.951 488.394C793.382 491.063 782.043 492.614 768.935 493.048C752.914 493.578 738.661 491.933 726.175 488.112C713.966 484.048 703.837 478.15 695.788 470.42C687.738 462.69 681.994 453.238 678.555 442.063C675.358 430.88 674.779 418.316 676.817 404.373C680.997 375.777 692.653 353.049 711.785 336.188C731.195 319.083 756.678 310.009 788.233 308.965C801.098 308.539 812.057 309.588 821.109 312.11C830.161 314.633 837.359 318.275 842.702 323.038C848.322 327.555 852.123 332.956 854.103 339.241C856.326 345.517 856.902 352.319 855.831 359.645ZM762.16 378.266C766.357 379.303 770.64 379.749 775.009 379.605C779.864 379.444 784.354 378.473 788.48 376.69C792.848 374.899 795.36 371.758 796.017 367.268C796.846 361.596 794.105 358.865 787.793 359.074C782.696 359.242 777.859 360.931 773.284 364.14C768.708 367.349 765 372.057 762.16 378.266Z"/>
</mask>
<path d="M855.831 359.645C854.656 367.68 852.146 374.936 848.301 381.414C844.455 387.891 839.534 393.463 833.538 398.13C827.541 402.797 820.85 406.428 813.466 409.024C806.081 411.621 798.14 413.059 789.645 413.34C778.964 413.694 767.971 412.058 756.664 408.434C757.188 416.413 759.532 421.862 763.695 424.782C768.135 427.457 773.632 428.687 780.186 428.47C786.255 428.269 793.172 427.217 800.939 425.314C808.948 423.403 816.958 422.314 824.968 422.049C842.445 421.471 849.958 429.572 847.505 446.351C846.572 452.732 844.374 458.684 840.909 464.208C837.687 469.724 832.87 474.587 826.457 478.797C820.321 482.763 812.486 485.962 802.951 488.394C793.382 491.063 782.043 492.614 768.935 493.048C752.914 493.578 738.661 491.933 726.175 488.112C713.966 484.048 703.837 478.15 695.788 470.42C687.738 462.69 681.994 453.238 678.555 442.063C675.358 430.88 674.779 418.316 676.817 404.373C680.997 375.777 692.653 353.049 711.785 336.188C731.195 319.083 756.678 310.009 788.233 308.965C801.098 308.539 812.057 309.588 821.109 312.11C830.161 314.633 837.359 318.275 842.702 323.038C848.322 327.555 852.123 332.956 854.103 339.241C856.326 345.517 856.902 352.319 855.831 359.645ZM762.16 378.266C766.357 379.303 770.64 379.749 775.009 379.605C779.864 379.444 784.354 378.473 788.48 376.69C792.848 374.899 795.36 371.758 796.017 367.268C796.846 361.596 794.105 358.865 787.793 359.074C782.696 359.242 777.859 360.931 773.284 364.14C768.708 367.349 765 372.057 762.16 378.266Z" fill="url(#paint5_linear_19_3)"/>
<path d="M848.301 381.414L838.723 377.328V377.328L848.301 381.414ZM833.538 398.13L839.646 406.132L839.646 406.132L833.538 398.13ZM813.466 409.024L815.608 419.202L815.608 419.202L813.466 409.024ZM756.664 408.434L761.835 398.021L744.158 392.355L745.383 410.993L756.664 408.434ZM763.695 424.782L756.063 433.982L756.311 434.156L756.573 434.314L763.695 424.782ZM800.939 425.314L800.103 414.751L800.065 414.76L800.028 414.769L800.939 425.314ZM840.909 464.208L831.502 459.842L831.389 460.022L831.283 460.204L840.909 464.208ZM826.457 478.797L831.539 487.529L831.582 487.501L831.625 487.473L826.457 478.797ZM802.951 488.394L801.922 477.88L801.782 477.915L801.643 477.954L802.951 488.394ZM726.175 488.112L720.9 498.492L721.013 498.529L721.126 498.564L726.175 488.112ZM695.788 470.42L704.435 462.055V462.055L695.788 470.42ZM678.555 442.063L667.614 446.594L667.639 446.682L667.665 446.768L678.555 442.063ZM711.785 336.188L718.571 343.629V343.629L711.785 336.188ZM821.109 312.11L816.297 322.631L816.297 322.631L821.109 312.11ZM842.702 323.038L834.286 331.617L834.448 331.761L834.618 331.898L842.702 323.038ZM854.103 339.241L843.231 344.004L843.279 344.153L843.331 344.3L854.103 339.241ZM762.16 378.266L751.934 375.416L746.988 386.231L757.632 388.861L762.16 378.266ZM788.48 376.69L785.692 366.758L785.572 366.807L785.454 366.858L788.48 376.69ZM773.284 364.14L778.816 372.568L778.816 372.568L773.284 364.14ZM855.831 359.645L844.642 360.015C843.657 366.755 841.612 372.462 838.723 377.328L848.301 381.414L857.879 385.5C862.681 377.411 865.656 368.606 867.02 359.275L855.831 359.645ZM848.301 381.414L838.723 377.328C835.746 382.341 832.001 386.569 827.429 390.127L833.538 398.13L839.646 406.132C847.067 400.357 853.164 393.44 857.879 385.5L848.301 381.414ZM833.538 398.13L827.429 390.127C822.708 393.802 817.376 396.719 811.323 398.847L813.466 409.024L815.608 419.202C824.324 416.138 832.374 411.791 839.646 406.132L833.538 398.13ZM813.466 409.024L811.323 398.847C805.33 400.954 798.664 402.201 791.237 402.447L789.645 413.34L788.052 424.234C797.617 423.917 806.832 422.287 815.608 419.202L813.466 409.024ZM789.645 413.34L791.237 402.447C782.005 402.752 772.217 401.348 761.835 398.021L756.664 408.434L751.492 418.847C763.724 422.768 775.923 424.635 788.052 424.234L789.645 413.34ZM756.664 408.434L745.383 410.993C745.999 420.35 748.862 428.931 756.063 433.982L763.695 424.782L771.327 415.583C770.202 414.793 768.378 412.476 767.944 405.875L756.664 408.434ZM763.695 424.782L756.573 434.314C762.84 438.09 770.337 439.637 778.594 439.363L780.186 428.47L781.779 417.576C776.928 417.737 773.43 416.825 770.817 415.25L763.695 424.782ZM780.186 428.47L778.594 439.363C785.679 439.129 793.462 437.914 801.85 435.858L800.939 425.314L800.028 414.769C792.882 416.52 786.83 417.409 781.779 417.576L780.186 428.47ZM800.939 425.314L801.774 435.877C808.968 434.16 816.164 433.182 823.376 432.943L824.968 422.049L826.561 411.156C817.752 411.447 808.929 412.645 800.103 414.751L800.939 425.314ZM824.968 422.049L823.376 432.943C830.429 432.71 833.409 434.293 834.72 435.708C836.007 437.095 837.291 440.05 836.316 446.721L847.505 446.351L858.694 445.981C860.171 435.873 858.926 426.388 852.7 419.675C846.5 412.988 836.985 410.811 826.561 411.156L824.968 422.049ZM847.505 446.351L836.316 446.721C835.607 451.574 833.977 455.897 831.502 459.842L840.909 464.208L850.316 468.574C854.771 461.472 857.538 453.89 858.694 445.981L847.505 446.351ZM840.909 464.208L831.283 460.204C829.317 463.57 826.187 466.906 821.289 470.122L826.457 478.797L831.625 487.473C839.552 482.268 846.058 475.878 850.535 468.212L840.909 464.208ZM826.457 478.797L821.374 470.066C816.898 472.96 810.561 475.676 801.922 477.88L802.951 488.394L803.98 498.909C814.411 496.249 823.745 492.567 831.539 487.529L826.457 478.797ZM802.951 488.394L801.643 477.954C793.322 480.274 783.005 481.741 770.527 482.154L768.935 493.048L767.343 503.941C781.081 503.487 793.441 501.852 804.259 498.835L802.951 488.394ZM768.935 493.048L770.527 482.154C755.522 482.651 742.466 481.1 731.224 477.661L726.175 488.112L721.126 498.564C734.857 502.765 750.307 504.505 767.343 503.941L768.935 493.048ZM726.175 488.112L731.45 477.733C720.396 474.053 711.453 468.795 704.435 462.055L695.788 470.42L687.14 478.785C696.222 487.506 707.537 494.043 720.9 498.492L726.175 488.112ZM695.788 470.42L704.435 462.055C697.458 455.355 692.461 447.163 689.444 437.357L678.555 442.063L667.665 446.768C671.526 459.313 678.019 470.026 687.14 478.785L695.788 470.42ZM678.555 442.063L689.495 437.531C686.72 427.821 686.15 416.701 688.006 404.003L676.817 404.373L665.628 404.743C663.408 419.932 663.996 433.938 667.614 446.594L678.555 442.063ZM676.817 404.373L688.006 404.003C691.871 377.562 702.383 357.895 718.571 343.629L711.785 336.188L704.999 328.747C682.923 348.203 670.123 373.993 665.628 404.743L676.817 404.373ZM711.785 336.188L718.571 343.629C734.903 329.237 757.087 320.836 786.641 319.858L788.233 308.965L789.826 298.071C756.268 299.181 727.487 308.93 704.999 328.747L711.785 336.188ZM788.233 308.965L786.641 319.858C798.705 319.459 808.516 320.463 816.297 322.631L821.109 312.11L825.922 301.59C815.598 298.713 803.492 297.619 789.826 298.071L788.233 308.965ZM821.109 312.11L816.297 322.631C824.311 324.864 830.171 327.949 834.286 331.617L842.702 323.038L851.118 314.458C844.547 308.602 836.012 304.402 825.922 301.59L821.109 312.11ZM842.702 323.038L834.618 331.898C839.071 335.477 841.82 339.525 843.231 344.004L854.103 339.241L864.974 334.478C862.425 326.388 857.574 319.633 850.786 314.177L842.702 323.038ZM854.103 339.241L843.331 344.3C845.022 349.076 845.482 354.267 844.642 360.015L855.831 359.645L867.02 359.275C868.321 350.37 867.629 341.959 864.875 334.182L854.103 339.241ZM762.16 378.266L757.632 388.861C762.729 390.121 767.998 390.678 773.417 390.498L775.009 379.605L776.601 368.711C773.282 368.821 769.985 368.485 766.689 367.671L762.16 378.266ZM775.009 379.605L773.417 390.498C779.592 390.294 785.675 389.041 791.506 386.522L788.48 376.69L785.454 366.858C783.033 367.904 780.136 368.594 776.601 368.711L775.009 379.605ZM788.48 376.69L791.267 386.622C795.248 384.99 799.112 382.42 802.134 378.643C805.134 374.893 806.637 370.785 807.206 366.898L796.017 367.268L784.828 367.638C784.782 367.953 784.734 368.035 784.771 367.944C784.815 367.839 784.928 367.613 785.147 367.34C785.367 367.064 785.594 366.866 785.756 366.75C785.904 366.644 785.913 366.667 785.692 366.758L788.48 376.69ZM796.017 367.268L807.206 366.898C807.9 362.149 807.341 356.695 803.342 352.71C799.49 348.871 794.054 348.026 789.386 348.18L787.793 359.074L786.201 369.967C787.844 369.913 786.934 370.328 785.823 369.221C785.271 368.671 785.004 368.051 784.904 367.614C784.819 367.237 784.895 367.175 784.828 367.638L796.017 367.268ZM787.793 359.074L789.386 348.18C781.781 348.432 774.447 351.016 767.752 355.711L773.284 364.14L778.816 372.568C781.272 370.846 783.611 370.053 786.201 369.967L787.793 359.074ZM773.284 364.14L767.752 355.711C760.63 360.706 755.504 367.613 751.934 375.416L762.16 378.266L772.386 381.116C774.497 376.501 776.787 373.991 778.816 372.568L773.284 364.14Z" fill="white" mask="url(#path-11-inside-1_19_3)"/>
</g>
<g filter="url(#filter6_d_19_3)">
<mask id="path-13-inside-2_19_3" fill="white">
<path d="M540.434 303.112C555.841 303.112 569.862 305.426 582.495 310.055C595.351 314.441 606.421 320.775 615.706 329.058C625.235 337.342 632.834 347.331 638.504 359.025C644.418 370.719 648.004 383.754 649.262 398.128C650.519 412.502 649.214 425.536 645.346 437.231C641.722 448.925 635.871 458.914 627.791 467.197C619.956 475.481 610.005 481.937 597.937 486.566C586.093 490.951 572.467 493.144 557.06 493.144C541.652 493.144 527.52 490.951 514.664 486.566C502.031 481.937 490.95 475.481 481.421 467.197C472.137 458.914 464.537 448.925 458.623 437.231C452.953 425.536 449.49 412.502 448.232 398.128C446.974 383.754 448.157 370.719 451.781 359.025C455.649 347.331 461.501 337.342 469.336 329.058C477.415 320.775 487.377 314.441 499.221 310.055C511.289 305.426 525.027 303.112 540.434 303.112ZM527.085 385.337C527.895 394.595 530.379 402.026 534.538 407.629C538.92 412.989 544.167 415.669 550.282 415.669C556.64 415.669 561.419 412.989 564.619 407.629C567.797 402.026 568.981 394.595 568.171 385.337C567.425 376.81 564.973 369.745 560.814 364.141C556.655 358.538 551.397 355.736 545.038 355.736C538.924 355.736 534.156 358.538 530.733 364.141C527.555 369.745 526.339 376.81 527.085 385.337Z"/>
</mask>
<path d="M540.434 303.112C555.841 303.112 569.862 305.426 582.495 310.055C595.351 314.441 606.421 320.775 615.706 329.058C625.235 337.342 632.834 347.331 638.504 359.025C644.418 370.719 648.004 383.754 649.262 398.128C650.519 412.502 649.214 425.536 645.346 437.231C641.722 448.925 635.871 458.914 627.791 467.197C619.956 475.481 610.005 481.937 597.937 486.566C586.093 490.951 572.467 493.144 557.06 493.144C541.652 493.144 527.52 490.951 514.664 486.566C502.031 481.937 490.95 475.481 481.421 467.197C472.137 458.914 464.537 448.925 458.623 437.231C452.953 425.536 449.49 412.502 448.232 398.128C446.974 383.754 448.157 370.719 451.781 359.025C455.649 347.331 461.501 337.342 469.336 329.058C477.415 320.775 487.377 314.441 499.221 310.055C511.289 305.426 525.027 303.112 540.434 303.112ZM527.085 385.337C527.895 394.595 530.379 402.026 534.538 407.629C538.92 412.989 544.167 415.669 550.282 415.669C556.64 415.669 561.419 412.989 564.619 407.629C567.797 402.026 568.981 394.595 568.171 385.337C567.425 376.81 564.973 369.745 560.814 364.141C556.655 358.538 551.397 355.736 545.038 355.736C538.924 355.736 534.156 358.538 530.733 364.141C527.555 369.745 526.339 376.81 527.085 385.337Z" fill="url(#paint6_linear_19_3)"/>
<path d="M582.495 310.055L579.421 320.511L579.551 320.558L579.681 320.602L582.495 310.055ZM615.706 329.058L608.584 337.081L608.646 337.136L608.708 337.19L615.706 329.058ZM638.504 359.025L628.425 363.142L628.47 363.235L628.516 363.327L638.504 359.025ZM645.346 437.231L634.606 432.929L634.575 433.021L634.546 433.114L645.346 437.231ZM627.791 467.197L619.371 459.066L619.318 459.12L619.266 459.175L627.791 467.197ZM597.937 486.566L602.661 497.089L602.718 497.069L602.774 497.047L597.937 486.566ZM514.664 486.566L511.591 497.021L511.72 497.069L511.85 497.113L514.664 486.566ZM481.421 467.197L474.3 475.22L474.361 475.275L474.423 475.329L481.421 467.197ZM458.623 437.231L448.544 441.347L448.589 441.44L448.636 441.532L458.623 437.231ZM451.781 359.025L441.041 354.723L441.01 354.816L440.981 354.908L451.781 359.025ZM469.336 329.058L460.915 320.927L460.862 320.981L460.811 321.036L469.336 329.058ZM499.221 310.055L503.945 320.579L504.002 320.558L504.058 320.536L499.221 310.055ZM534.538 407.629L525.668 413.739L525.845 413.978L526.033 414.208L534.538 407.629ZM564.619 407.629L574.446 413.93L574.503 413.835L574.557 413.739L564.619 407.629ZM560.814 364.141L551.944 370.251H551.944L560.814 364.141ZM530.733 364.141L520.957 357.754L520.874 357.891L520.794 358.031L530.733 364.141ZM540.434 303.112L541.413 314.296C555.695 314.296 568.316 316.441 579.421 320.511L582.495 310.055L585.568 299.6C571.408 294.411 555.988 291.927 539.455 291.927L540.434 303.112ZM582.495 310.055L579.681 320.602C591.133 324.509 600.693 330.04 608.584 337.081L615.706 329.058L622.827 321.036C612.15 311.51 599.569 304.372 585.309 299.508L582.495 310.055ZM615.706 329.058L608.708 337.19C616.89 344.302 623.46 352.902 628.425 363.142L638.504 359.025L648.583 354.908C642.208 341.759 633.58 330.382 622.703 320.927L615.706 329.058ZM638.504 359.025L628.516 363.327C633.655 373.487 636.888 385.032 638.034 398.128H649.262H660.489C659.12 382.475 655.182 367.952 648.491 354.723L638.504 359.025ZM649.262 398.128H638.034C639.18 411.223 637.966 422.769 634.606 432.929L645.346 437.231L656.086 441.532C660.462 428.304 661.859 413.781 660.489 398.128H649.262ZM645.346 437.231L634.546 433.114C631.374 443.354 626.308 451.954 619.371 459.066L627.791 467.197L636.212 475.329C645.434 465.874 652.071 454.496 656.145 441.347L645.346 437.231ZM627.791 467.197L619.266 459.175C612.565 466.26 603.921 471.934 593.101 476.085L597.937 486.566L602.774 497.047C616.089 491.939 627.348 484.702 636.316 475.22L627.791 467.197ZM597.937 486.566L593.214 476.042C582.747 479.917 570.427 481.959 556.081 481.959L557.06 493.144L558.038 504.329C574.507 504.329 589.439 501.985 602.661 497.089L597.937 486.566ZM557.06 493.144L556.081 481.959C541.741 481.959 528.912 479.919 517.478 476.019L514.664 486.566L511.85 497.113C526.129 501.984 541.564 504.329 558.038 504.329L557.06 493.144ZM514.664 486.566L517.738 476.111C506.417 471.962 496.694 466.259 488.419 459.066L481.421 467.197L474.423 475.329C485.206 484.702 497.646 491.911 511.591 497.021L514.664 486.566ZM481.421 467.197L488.542 459.175C480.518 452.015 473.865 443.317 468.611 432.929L458.623 437.231L448.636 441.532C455.21 454.532 463.756 465.812 474.3 475.22L481.421 467.197ZM458.623 437.231L468.702 433.114C463.752 422.904 460.611 411.292 459.459 398.128H448.232H437.005C438.368 413.712 442.155 428.169 448.544 441.347L458.623 437.231ZM448.232 398.128H459.459C458.308 384.963 459.417 373.352 462.581 363.142L451.781 359.025L440.981 354.908C436.898 368.087 435.641 382.544 437.005 398.128H448.232ZM451.781 359.025L462.521 363.327C465.957 352.938 471.089 344.24 477.861 337.081L469.336 329.058L460.811 321.036C451.912 330.443 445.341 341.723 441.041 354.723L451.781 359.025ZM469.336 329.058L477.756 337.19C484.731 330.039 493.404 324.482 503.945 320.579L499.221 310.055L494.498 299.532C481.35 304.4 470.099 311.511 460.915 320.927L469.336 329.058ZM499.221 310.055L504.058 320.536C514.738 316.44 527.136 314.296 541.413 314.296L540.434 303.112L539.455 291.927C522.917 291.927 507.841 294.413 494.385 299.574L499.221 310.055ZM527.085 385.337H515.857C516.787 395.961 519.735 405.745 525.668 413.739L534.538 407.629L543.407 401.52C541.023 398.306 539.003 393.229 538.312 385.337H527.085ZM534.538 407.629L526.033 414.208C532.538 422.165 541.201 426.854 551.26 426.854L550.282 415.669L549.303 404.484C547.134 404.484 545.301 403.814 543.042 401.051L534.538 407.629ZM550.282 415.669L551.26 426.854C561.437 426.854 569.476 422.258 574.446 413.93L564.619 407.629L554.791 401.329C553.363 403.721 551.843 404.484 549.303 404.484L550.282 415.669ZM564.619 407.629L574.557 413.739C579.091 405.745 580.328 395.961 579.398 385.337H568.171H556.944C557.634 393.229 556.502 398.306 554.68 401.52L564.619 407.629ZM568.171 385.337H579.398C578.514 375.232 575.517 365.891 569.684 358.031L560.814 364.141L551.944 370.251C554.428 373.598 556.336 378.388 556.944 385.337H568.171ZM560.814 364.141L569.684 358.031C563.333 349.475 554.461 344.551 544.06 344.551L545.038 355.736L546.017 366.921C548.333 366.921 549.977 367.601 551.944 370.251L560.814 364.141ZM545.038 355.736L544.06 344.551C533.782 344.551 525.958 349.567 520.957 357.754L530.733 364.141L540.508 370.528C542.353 367.508 544.066 366.921 546.017 366.921L545.038 355.736ZM530.733 364.141L520.794 358.031C516.336 365.891 514.973 375.232 515.857 385.337H527.085H538.312C537.704 378.388 538.773 373.598 540.672 370.251L530.733 364.141Z" fill="white" mask="url(#path-13-inside-2_19_3)"/>
</g>
<g filter="url(#filter7_d_19_3)">
<mask id="path-15-inside-3_19_3" fill="white">
<path d="M256.253 238.865C260.14 227.712 265.284 217.203 271.687 207.338C278.432 197.155 286.236 188.253 295.099 180.632C303.98 172.693 313.569 166.512 323.865 162.089C334.504 157.349 345.651 155.004 357.306 155.055C379.322 155.153 395.139 161.605 404.757 174.414C414.718 186.905 420.742 203.048 422.83 222.845C424.262 237.213 424.926 253.652 424.821 272.162C425.059 290.355 424.612 309.183 423.481 328.646C422.368 347.79 420.627 366.612 418.256 385.112C416.209 403.614 413.482 419.878 410.076 433.906C407.883 443.79 404.926 452.873 401.206 461.154C397.505 469.117 392.735 475.957 386.897 481.676C381.383 487.397 374.487 491.834 366.207 494.989C358.252 498.146 348.608 499.699 337.276 499.649C318.498 499.566 305.493 494.881 298.26 485.594C291.028 476.307 287.94 462.569 288.997 444.383C289.461 436.406 290.924 427.955 293.386 419.03C295.848 410.104 298.471 401.18 301.257 392.256C304.366 383.333 307.143 374.569 309.586 365.963C312.029 357.356 313.455 349.543 313.863 342.524C314.401 333.271 313.62 327.204 311.521 324.322C309.745 321.442 307.562 319.996 304.972 319.985C301.734 319.97 299.061 321.395 296.951 324.258C294.842 327.121 293.181 330.624 291.969 334.768C290.756 338.911 289.849 343.375 289.247 348.16C288.645 352.945 288.08 357.091 287.552 360.599C286.932 365.703 285.978 370.965 284.692 376.385C283.748 381.487 281.851 386.266 279.001 390.721C276.17 394.858 272.081 398.35 266.733 401.199C261.729 403.73 254.532 404.975 245.143 404.934C236.077 404.894 229.029 403.586 223.997 401.011C218.984 398.116 215.303 394.589 212.954 390.43C210.947 385.953 209.606 381.16 208.932 376.051C208.6 370.624 208.42 365.357 208.393 360.25C208.273 356.739 208.191 352.59 208.145 347.802C208.099 343.015 207.712 338.545 206.981 334.393C206.251 330.241 204.998 326.725 203.223 323.844C201.771 320.966 199.264 319.518 195.703 319.503C193.113 319.491 190.601 320.916 188.168 323.778C186.058 326.641 184.735 332.699 184.197 341.952C183.789 348.972 184.306 356.793 185.747 365.416C187.189 374.04 188.784 382.823 190.531 391.767C192.278 400.711 193.863 409.654 195.286 418.597C196.709 427.539 197.189 435.999 196.726 443.976C195.669 462.163 190.986 475.865 182.678 485.084C174.693 494.304 161.312 498.873 142.534 498.79C131.526 498.741 122.068 497.104 114.159 493.878C106.251 490.651 99.7116 486.154 94.5415 480.387C89.6951 474.621 85.885 467.742 83.111 459.751C80.3556 451.441 78.456 442.337 77.4121 432.439C75.9618 418.39 75.127 402.109 74.9076 383.598C74.6882 365.086 75.1349 346.258 76.2477 327.114C77.379 307.651 78.9588 288.828 80.9873 270.646C83.358 252.145 86.0938 235.721 89.1947 221.373C91.3884 211.489 94.3452 202.406 98.065 194.125C102.109 185.845 107.049 178.845 112.887 173.126C118.743 167.088 125.649 162.491 133.605 159.335C141.903 155.861 151.556 154.148 162.564 154.197C174.219 154.248 184.926 156.689 194.685 161.519C204.785 166.032 213.651 172.294 221.281 180.307C229.254 188.001 236.019 196.967 241.577 207.205C247.154 217.123 251.074 227.672 253.339 238.852L256.253 238.865Z"/>
</mask>
<path d="M256.253 238.865C260.14 227.712 265.284 217.203 271.687 207.338C278.432 197.155 286.236 188.253 295.099 180.632C303.98 172.693 313.569 166.512 323.865 162.089C334.504 157.349 345.651 155.004 357.306 155.055C379.322 155.153 395.139 161.605 404.757 174.414C414.718 186.905 420.742 203.048 422.83 222.845C424.262 237.213 424.926 253.652 424.821 272.162C425.059 290.355 424.612 309.183 423.481 328.646C422.368 347.79 420.627 366.612 418.256 385.112C416.209 403.614 413.482 419.878 410.076 433.906C407.883 443.79 404.926 452.873 401.206 461.154C397.505 469.117 392.735 475.957 386.897 481.676C381.383 487.397 374.487 491.834 366.207 494.989C358.252 498.146 348.608 499.699 337.276 499.649C318.498 499.566 305.493 494.881 298.26 485.594C291.028 476.307 287.94 462.569 288.997 444.383C289.461 436.406 290.924 427.955 293.386 419.03C295.848 410.104 298.471 401.18 301.257 392.256C304.366 383.333 307.143 374.569 309.586 365.963C312.029 357.356 313.455 349.543 313.863 342.524C314.401 333.271 313.62 327.204 311.521 324.322C309.745 321.442 307.562 319.996 304.972 319.985C301.734 319.97 299.061 321.395 296.951 324.258C294.842 327.121 293.181 330.624 291.969 334.768C290.756 338.911 289.849 343.375 289.247 348.16C288.645 352.945 288.08 357.091 287.552 360.599C286.932 365.703 285.978 370.965 284.692 376.385C283.748 381.487 281.851 386.266 279.001 390.721C276.17 394.858 272.081 398.35 266.733 401.199C261.729 403.73 254.532 404.975 245.143 404.934C236.077 404.894 229.029 403.586 223.997 401.011C218.984 398.116 215.303 394.589 212.954 390.43C210.947 385.953 209.606 381.16 208.932 376.051C208.6 370.624 208.42 365.357 208.393 360.25C208.273 356.739 208.191 352.59 208.145 347.802C208.099 343.015 207.712 338.545 206.981 334.393C206.251 330.241 204.998 326.725 203.223 323.844C201.771 320.966 199.264 319.518 195.703 319.503C193.113 319.491 190.601 320.916 188.168 323.778C186.058 326.641 184.735 332.699 184.197 341.952C183.789 348.972 184.306 356.793 185.747 365.416C187.189 374.04 188.784 382.823 190.531 391.767C192.278 400.711 193.863 409.654 195.286 418.597C196.709 427.539 197.189 435.999 196.726 443.976C195.669 462.163 190.986 475.865 182.678 485.084C174.693 494.304 161.312 498.873 142.534 498.79C131.526 498.741 122.068 497.104 114.159 493.878C106.251 490.651 99.7116 486.154 94.5415 480.387C89.6951 474.621 85.885 467.742 83.111 459.751C80.3556 451.441 78.456 442.337 77.4121 432.439C75.9618 418.39 75.127 402.109 74.9076 383.598C74.6882 365.086 75.1349 346.258 76.2477 327.114C77.379 307.651 78.9588 288.828 80.9873 270.646C83.358 252.145 86.0938 235.721 89.1947 221.373C91.3884 211.489 94.3452 202.406 98.065 194.125C102.109 185.845 107.049 178.845 112.887 173.126C118.743 167.088 125.649 162.491 133.605 159.335C141.903 155.861 151.556 154.148 162.564 154.197C174.219 154.248 184.926 156.689 194.685 161.519C204.785 166.032 213.651 172.294 221.281 180.307C229.254 188.001 236.019 196.967 241.577 207.205C247.154 217.123 251.074 227.672 253.339 238.852L256.253 238.865Z" fill="url(#paint7_linear_19_3)"/>
<path d="M256.253 238.865L255.609 249.934L264.082 249.972L266.876 241.954L256.253 238.865ZM271.687 207.338L262.358 201.644L262.327 201.69L262.297 201.737L271.687 207.338ZM295.099 180.632L302.244 188.799L302.333 188.723L302.42 188.645L295.099 180.632ZM323.865 162.089L327.902 172.197L327.976 172.165L328.05 172.132L323.865 162.089ZM404.757 174.414L395.585 181.29L395.675 181.409L395.768 181.526L404.757 174.414ZM422.83 222.845L434.027 221.192L434.024 221.162L434.021 221.131L422.83 222.845ZM424.821 272.162L413.571 272.684L413.571 272.786L413.572 272.888L424.821 272.162ZM418.256 385.112L407.095 384.301L407.083 384.396L407.072 384.491L418.256 385.112ZM410.076 433.906L399.141 431.877L399.115 431.986L399.09 432.095L410.076 433.906ZM401.206 461.154L411.395 465.311L411.427 465.243L411.458 465.174L401.206 461.154ZM386.897 481.676L379.174 474.04L379.05 474.161L378.93 474.285L386.897 481.676ZM366.207 494.989L362.633 484.694L362.557 484.723L362.481 484.753L366.207 494.989ZM298.26 485.594L307.323 478.575V478.575L298.26 485.594ZM293.386 419.03L282.538 416.662V416.662L293.386 419.03ZM301.257 392.256L290.634 389.167L290.572 389.344L290.517 389.523L301.257 392.256ZM309.586 365.963L320.411 368.412V368.412L309.586 365.963ZM311.521 324.322L301.818 330.421L302.026 330.758L302.26 331.079L311.521 324.322ZM296.951 324.258L305.94 330.439L305.94 330.439L296.951 324.258ZM291.969 334.768L302.768 337.305L302.768 337.305L291.969 334.768ZM289.247 348.16L278.083 347.374V347.374L289.247 348.16ZM287.552 360.599L276.425 359.548L276.402 359.704L276.383 359.86L287.552 360.599ZM284.692 376.385L273.743 374.412L273.678 374.686L273.627 374.963L284.692 376.385ZM279.001 390.721L288.229 396.565L288.334 396.412L288.434 396.256L279.001 390.721ZM266.733 401.199L271.451 410.989L271.566 410.931L271.679 410.871L266.733 401.199ZM223.997 401.011L217.93 410.634L218.161 410.767L218.399 410.889L223.997 401.011ZM212.954 390.43L202.62 395.336L202.816 395.773L203.051 396.189L212.954 390.43ZM208.932 376.051L197.702 377.295L197.725 377.67L197.774 378.042L208.932 376.051ZM208.393 360.25L219.643 359.609L219.642 359.453L219.637 359.297L208.393 360.25ZM208.145 347.802L219.395 347.115L219.395 347.115L208.145 347.802ZM206.981 334.393L218.07 331.952V331.952L206.981 334.393ZM203.223 323.844L193.092 329.177L193.29 329.569L193.52 329.943L203.223 323.844ZM188.168 323.778L179.697 316.943L179.426 317.261L179.179 317.597L188.168 323.778ZM185.747 365.416L196.851 363.064L196.851 363.064L185.747 365.416ZM190.531 391.767L201.583 389.131V389.131L190.531 391.767ZM195.286 418.597L206.403 416.326V416.326L195.286 418.597ZM182.678 485.084L174.435 477.989L174.355 478.077L174.278 478.167L182.678 485.084ZM94.5415 480.387L85.7193 487.704L85.8247 487.829L85.9341 487.951L94.5415 480.387ZM83.111 459.751L72.397 463.678L72.4199 463.747L72.4437 463.816L83.111 459.751ZM77.4121 432.439L66.2188 434.129L66.22 434.141L66.2212 434.152L77.4121 432.439ZM74.9076 383.598L86.1569 382.886L74.9076 383.598ZM80.9873 270.646L69.8264 269.835L69.8149 269.924L69.8049 270.014L80.9873 270.646ZM89.1947 221.373L78.2087 219.562L78.2019 219.592L78.1953 219.623L89.1947 221.373ZM98.065 194.125L87.9716 189.766L87.8895 189.935L87.8129 190.105L98.065 194.125ZM112.887 173.126L120.611 180.763L120.721 180.655L120.828 180.544L112.887 173.126ZM133.605 159.335L137.331 169.571L137.436 169.53L137.54 169.486L133.605 159.335ZM194.685 161.519L189.213 171.461L189.401 171.554L189.593 171.64L194.685 161.519ZM221.281 180.307L212.884 188.099L213.034 188.256L213.19 188.407L221.281 180.307ZM241.577 207.205L231.591 212.813L231.627 212.88L231.665 212.947L241.577 207.205ZM253.339 238.852L242.301 241.561L243.987 249.883L252.696 249.921L253.339 238.852ZM256.253 238.865L266.876 241.954C270.461 231.666 275.195 222.002 281.077 212.938L271.687 207.338L262.297 201.737C255.374 212.404 249.818 223.758 245.63 235.777L256.253 238.865ZM271.687 207.338L281.016 213.031C287.185 203.718 294.264 195.661 302.244 188.799L295.099 180.632L287.953 172.465C278.208 180.845 269.679 190.591 262.358 201.644L271.687 207.338ZM295.099 180.632L302.42 188.645C310.385 181.524 318.875 176.075 327.902 172.197L323.865 162.089L319.829 151.981C308.263 156.949 297.575 163.861 287.778 172.619L295.099 180.632ZM323.865 162.089L328.05 172.132C337.127 168.088 346.623 166.08 356.663 166.124L357.306 155.055L357.949 143.987C344.678 143.928 331.88 146.609 319.681 152.045L323.865 162.089ZM357.306 155.055L356.663 166.124C376.466 166.212 388.55 171.921 395.585 181.29L404.757 174.414L413.93 167.538C401.728 151.289 382.177 144.093 357.949 143.987L357.306 155.055ZM404.757 174.414L395.768 181.526C404.244 192.155 409.713 206.296 411.639 224.558L422.83 222.845L434.021 221.131C431.771 199.8 425.192 181.654 413.747 167.302L404.757 174.414ZM422.83 222.845L411.633 224.497C413.019 238.405 413.674 254.455 413.571 272.684L424.821 272.162L436.071 271.64C436.177 252.848 435.505 236.02 434.027 221.192L422.83 222.845ZM424.821 272.162L413.572 272.888C413.806 290.806 413.367 309.374 412.249 328.596L423.481 328.646L434.713 328.695C435.858 308.991 436.312 289.904 436.07 271.437L424.821 272.162ZM423.481 328.646L412.249 328.596C411.151 347.494 409.432 366.062 407.095 384.301L418.256 385.112L429.417 385.923C431.821 367.162 433.586 348.085 434.713 328.695L423.481 328.646ZM418.256 385.112L407.072 384.491C405.063 402.651 402.407 418.428 399.141 431.877L410.076 433.906L421.012 435.935C424.558 421.329 427.355 404.576 429.439 385.733L418.256 385.112ZM410.076 433.906L399.09 432.095C397.043 441.317 394.316 449.65 390.954 457.134L401.206 461.154L411.458 465.174C415.536 456.096 418.722 446.263 421.062 435.717L410.076 433.906ZM401.206 461.154L391.017 456.997C387.863 463.782 383.896 469.414 379.174 474.04L386.897 481.676L394.621 489.312C401.575 482.5 407.147 474.451 411.395 465.311L401.206 461.154ZM386.897 481.676L378.93 474.285C374.788 478.582 369.454 482.094 362.633 484.694L366.207 494.989L369.781 505.285C379.519 501.574 387.979 496.211 394.865 489.067L386.897 481.676ZM366.207 494.989L362.481 484.753C356.321 487.197 348.252 488.626 337.92 488.58L337.276 499.649L336.633 510.718C348.964 510.772 360.182 509.095 369.933 505.226L366.207 494.989ZM337.276 499.649L337.92 488.58C320.664 488.504 311.695 484.189 307.323 478.575L298.26 485.594L289.197 492.613C299.291 505.574 316.332 510.628 336.633 510.718L337.276 499.649ZM298.26 485.594L307.323 478.575C302.266 472.08 299.248 461.312 300.229 444.432L288.997 444.383L277.766 444.333C276.633 463.826 279.79 480.533 289.197 492.613L298.26 485.594ZM288.997 444.383L300.229 444.432C300.642 437.338 301.952 429.669 304.233 421.397L293.386 419.03L282.538 416.662C279.896 426.241 278.281 435.474 277.766 444.333L288.997 444.383ZM293.386 419.03L304.233 421.397C306.661 412.595 309.249 403.792 311.997 394.988L301.257 392.256L290.517 389.523C287.693 398.567 285.034 407.613 282.538 416.662L293.386 419.03ZM301.257 392.256L311.88 395.344C315.059 386.221 317.903 377.244 320.411 368.412L309.586 365.963L298.761 363.513C296.382 371.894 293.674 380.445 290.634 389.167L301.257 392.256ZM309.586 365.963L320.411 368.412C323.023 359.21 324.63 350.576 325.095 342.573L313.863 342.524L302.631 342.474C302.28 348.511 301.035 355.503 298.761 363.513L309.586 365.963ZM313.863 342.524L325.095 342.573C325.385 337.573 325.35 333.013 324.843 329.077C324.364 325.356 323.335 321.071 320.781 317.566L311.521 324.322L302.26 331.079C301.805 330.455 302.216 330.644 302.518 332.99C302.793 335.122 302.878 338.222 302.631 342.474L313.863 342.524ZM311.521 324.322L321.223 318.223C318.282 313.454 313.216 308.949 305.615 308.916L304.972 319.985L304.329 331.054C303.907 331.052 303.449 330.989 302.995 330.85C302.543 330.712 302.188 330.528 301.937 330.362C301.461 330.046 301.49 329.888 301.818 330.421L311.521 324.322ZM304.972 319.985L305.615 308.916C298.273 308.883 292.115 312.441 287.963 318.077L296.951 324.258L305.94 330.439C306.118 330.197 306 330.439 305.484 330.714C305.241 330.844 304.987 330.938 304.749 330.994C304.517 331.049 304.367 331.054 304.329 331.054L304.972 319.985ZM296.951 324.258L287.963 318.077C284.871 322.273 282.676 327.079 281.169 332.231L291.969 334.768L302.768 337.305C303.686 334.169 304.813 331.968 305.94 330.439L296.951 324.258ZM291.969 334.768L281.169 332.231C279.769 337.017 278.75 342.073 278.083 347.374L289.247 348.16L300.411 348.946C300.948 344.678 301.744 340.806 302.768 337.305L291.969 334.768ZM289.247 348.16L278.083 347.374C277.489 352.099 276.936 356.153 276.425 359.548L287.552 360.599L298.68 361.651C299.225 358.029 299.802 353.79 300.411 348.946L289.247 348.16ZM287.552 360.599L276.383 359.86C275.816 364.52 274.94 369.369 273.743 374.412L284.692 376.385L295.641 378.357C297.017 372.56 298.048 366.886 298.722 361.339L287.552 360.599ZM284.692 376.385L273.627 374.963C272.951 378.616 271.609 381.997 269.568 385.187L279.001 390.721L288.434 396.256C292.093 390.535 294.545 384.358 295.757 377.807L284.692 376.385ZM279.001 390.721L269.773 384.878C268.235 387.124 265.766 389.408 261.788 391.528L266.733 401.199L271.679 410.871C278.396 407.293 284.104 402.592 288.229 396.565L279.001 390.721ZM266.733 401.199L262.016 391.409C259.482 392.691 254.467 393.903 245.786 393.865L245.143 404.934L244.499 416.003C254.596 416.047 263.976 414.77 271.451 410.989L266.733 401.199ZM245.143 404.934L245.786 393.865C237.577 393.829 232.494 392.616 229.596 391.133L223.997 401.011L218.399 410.889C225.563 414.556 234.578 415.959 244.499 416.003L245.143 404.934ZM223.997 401.011L230.064 391.388C226.335 389.234 224.132 386.929 222.856 384.671L212.954 390.43L203.051 396.189C206.474 402.25 211.633 406.998 217.93 410.634L223.997 401.011ZM212.954 390.43L223.287 385.524C221.71 382.006 220.636 378.198 220.09 374.059L208.932 376.051L197.774 378.042C198.577 384.122 200.184 389.901 202.62 395.336L212.954 390.43ZM208.932 376.051L220.162 374.806C219.841 369.567 219.669 364.501 219.643 359.609L208.393 360.25L197.143 360.891C197.171 366.212 197.358 371.681 197.702 377.295L208.932 376.051ZM208.393 360.25L219.637 359.297C219.521 355.9 219.44 351.843 219.395 347.115L208.145 347.802L196.895 348.489C196.941 353.336 197.026 357.578 197.149 361.203L208.393 360.25ZM208.145 347.802L219.395 347.115C219.344 341.81 218.914 336.748 218.07 331.952L206.981 334.393L195.893 336.834C196.51 340.342 196.855 344.219 196.895 348.489L208.145 347.802ZM206.981 334.393L218.07 331.952C217.162 326.79 215.528 321.968 212.925 317.746L203.223 323.844L193.52 329.943C194.469 331.482 195.34 333.691 195.893 336.834L206.981 334.393ZM203.223 323.844L213.353 318.512C211.836 315.503 209.533 312.831 206.321 310.977C203.146 309.144 199.673 308.448 196.346 308.434L195.703 319.503L195.059 330.572C195.294 330.573 194.855 330.609 194.186 330.223C193.87 330.041 193.603 329.819 193.399 329.596C193.2 329.379 193.111 329.215 193.092 329.177L203.223 323.844ZM195.703 319.503L196.346 308.434C188.99 308.401 183.394 312.596 179.697 316.943L188.168 323.778L196.638 330.613C197.204 329.947 197.388 329.918 197.103 330.08C196.945 330.17 196.67 330.302 196.288 330.407C195.901 330.515 195.481 330.573 195.059 330.572L195.703 319.503ZM188.168 323.778L179.179 317.597C176.661 321.014 175.378 325.129 174.599 328.694C173.767 332.502 173.253 336.957 172.965 341.902L184.197 341.952L195.428 342.002C195.679 337.694 196.095 334.494 196.587 332.244C197.132 329.751 197.565 329.405 197.156 329.959L188.168 323.778ZM184.197 341.952L172.965 341.902C172.5 349.905 173.102 358.548 174.644 367.769L185.747 365.416L196.851 363.064C195.509 355.038 195.078 348.038 195.428 342.002L184.197 341.952ZM185.747 365.416L174.644 367.769C176.102 376.491 177.714 385.37 179.478 394.404L190.531 391.767L201.583 389.131C199.854 380.277 198.277 371.588 196.851 363.064L185.747 365.416ZM190.531 391.767L179.478 394.404C181.202 403.227 182.765 412.049 184.169 420.868L195.286 418.597L206.403 416.326C204.96 407.26 203.354 398.195 201.583 389.131L190.531 391.767ZM195.286 418.597L184.169 420.868C185.488 429.155 185.906 436.832 185.494 443.926L196.726 443.976L207.957 444.025C208.472 435.166 207.931 425.924 206.403 416.326L195.286 418.597ZM196.726 443.976L185.494 443.926C184.513 460.806 180.245 471.542 174.435 477.989L182.678 485.084L190.92 492.179C201.726 480.189 206.824 463.519 207.957 444.025L196.726 443.976ZM182.678 485.084L174.278 478.167C169.624 483.541 160.487 487.797 143.178 487.721L142.534 498.79L141.891 509.859C162.138 509.948 179.763 505.068 191.078 492.001L182.678 485.084ZM142.534 498.79L143.178 487.721C133.238 487.677 125.249 486.197 118.928 483.619L114.159 493.878L109.391 504.136C118.887 508.01 129.815 509.806 141.891 509.859L142.534 498.79ZM114.159 493.878L118.928 483.619C112.367 480.942 107.179 477.318 103.149 472.823L94.5415 480.387L85.9341 487.951C92.2444 494.99 100.135 500.361 109.391 504.136L114.159 493.878ZM94.5415 480.387L103.364 473.07C99.4142 468.371 96.1874 462.626 93.7784 455.686L83.111 459.751L72.4437 463.816C75.5826 472.858 79.976 480.87 85.7193 487.704L94.5415 480.387ZM83.111 459.751L93.8251 455.824C91.3347 448.313 89.577 439.961 88.6029 430.725L77.4121 432.439L66.2212 434.152C67.335 444.713 69.3766 454.569 72.397 463.678L83.111 459.751ZM77.4121 432.439L88.6054 430.749C87.1968 417.104 86.3735 401.162 86.1569 382.886L74.9076 383.598L63.6582 384.31C63.8804 403.056 64.7267 419.675 66.2188 434.129L77.4121 432.439ZM74.9076 383.598L86.1569 382.886C85.9407 364.635 86.3809 346.062 87.4794 327.164L76.2477 327.114L65.016 327.065C63.8889 346.455 63.4358 365.537 63.6582 384.31L74.9076 383.598ZM76.2477 327.114L87.4794 327.164C88.6002 307.881 90.1642 289.253 92.1696 271.277L80.9873 270.646L69.8049 270.014C67.7535 288.403 66.1578 307.421 65.016 327.065L76.2477 327.114ZM80.9873 270.646L92.1481 271.457C94.4889 253.19 97.1758 237.089 100.194 223.123L89.1947 221.373L78.1953 219.623C75.0118 234.353 72.227 251.101 69.8264 269.835L80.9873 270.646ZM89.1947 221.373L100.181 223.185C102.228 213.962 104.955 205.63 108.317 198.145L98.065 194.125L87.8129 190.105C83.7353 199.183 80.5492 209.016 78.2087 219.562L89.1947 221.373ZM98.065 194.125L108.158 198.483C111.692 191.248 115.874 185.403 120.611 180.763L112.887 173.126L105.163 165.49C98.2239 172.288 92.5253 180.442 87.9716 189.766L98.065 194.125ZM112.887 173.126L120.828 180.544C125.471 175.758 130.928 172.112 137.331 169.571L133.605 159.335L129.879 149.098C120.371 152.871 112.016 158.419 104.946 165.709L112.887 173.126ZM133.605 159.335L137.54 169.486C144.065 166.754 152.1 165.222 161.92 165.265L162.564 154.197L163.207 143.128C151.012 143.074 139.741 144.967 129.67 149.183L133.605 159.335ZM162.564 154.197L161.92 165.265C171.96 165.31 181.005 167.398 189.213 171.461L194.685 161.519L200.156 151.577C188.847 145.979 176.478 143.186 163.207 143.128L162.564 154.197ZM194.685 161.519L189.593 171.64C198.427 175.587 206.176 181.054 212.884 188.099L221.281 180.307L229.678 172.515C221.126 163.534 211.143 156.477 199.776 151.398L194.685 161.519ZM221.281 180.307L213.19 188.407C220.369 195.335 226.508 203.451 231.591 212.813L241.577 207.205L251.563 201.596C245.53 190.484 238.139 180.668 229.372 172.207L221.281 180.307ZM241.577 207.205L231.665 212.947C236.715 221.929 240.254 231.456 242.301 241.561L253.339 238.852L264.377 236.144C261.895 223.888 257.593 212.317 251.489 201.463L241.577 207.205ZM253.339 238.852L252.696 249.921L255.609 249.934L256.253 238.865L256.896 227.796L253.982 227.784L253.339 238.852Z" fill="white" mask="url(#path-15-inside-3_19_3)"/>
</g>
<defs>
<filter id="filter0_d_19_3" x="1834.43" y="303.093" width="238.097" height="197.192" filterUnits="userSpaceOnUse" color-interpolation-filters="sRGB">
<feFlood flood-opacity="0" result="BackgroundImageFix"/>
<feColorMatrix in="SourceAlpha" type="matrix" values="0 0 0 0 0 0 0 0 0 0 0 0 0 0 0 0 0 0 127 0" result="hardAlpha"/>
<feOffset dx="10" dy="19"/>
<feComposite in2="hardAlpha" operator="out"/>
<feColorMatrix type="matrix" values="0 0 0 0 1 0 0 0 0 0.302885 0 0 0 0 0.697917 0 0 0 1 0"/>
<feBlend mode="normal" in2="BackgroundImageFix" result="effect1_dropShadow_19_3"/>
<feBlend mode="normal" in="SourceGraphic" in2="effect1_dropShadow_19_3" result="shape"/>
</filter>
<filter id="filter1_d_19_3" x="1616.07" y="306.39" width="233.874" height="192.363" filterUnits="userSpaceOnUse" color-interpolation-filters="sRGB">
<feFlood flood-opacity="0" result="BackgroundImageFix"/>
<feColorMatrix in="SourceAlpha" type="matrix" values="0 0 0 0 0 0 0 0 0 0 0 0 0 0 0 0 0 0 127 0" result="hardAlpha"/>
<feOffset dx="10" dy="19"/>
<feComposite in2="hardAlpha" operator="out"/>
<feColorMatrix type="matrix" values="0 0 0 0 1 0 0 0 0 0.302885 0 0 0 0 0.697917 0 0 0 1 0"/>
<feBlend mode="normal" in2="BackgroundImageFix" result="effect1_dropShadow_19_3"/>
<feBlend mode="normal" in="SourceGraphic" in2="effect1_dropShadow_19_3" result="shape"/>
</filter>
<filter id="filter2_d_19_3" x="1445.37" y="235.256" width="190.647" height="263.435" filterUnits="userSpaceOnUse" color-interpolation-filters="sRGB">
<feFlood flood-opacity="0" result="BackgroundImageFix"/>
<feColorMatrix in="SourceAlpha" type="matrix" values="0 0 0 0 0 0 0 0 0 0 0 0 0 0 0 0 0 0 127 0" result="hardAlpha"/>
<feOffset dx="10" dy="19"/>
<feComposite in2="hardAlpha" operator="out"/>
<feColorMatrix type="matrix" values="0 0 0 0 1 0 0 0 0 0.302885 0 0 0 0 0.697917 0 0 0 1 0"/>
<feBlend mode="normal" in2="BackgroundImageFix" result="effect1_dropShadow_19_3"/>
<feBlend mode="normal" in="SourceGraphic" in2="effect1_dropShadow_19_3" result="shape"/>
</filter>
<filter id="filter3_d_19_3" x="1224.27" y="297.898" width="217.838" height="204.27" filterUnits="userSpaceOnUse" color-interpolation-filters="sRGB">
<feFlood flood-opacity="0" result="BackgroundImageFix"/>
<feColorMatrix in="SourceAlpha" type="matrix" values="0 0 0 0 0 0 0 0 0 0 0 0 0 0 0 0 0 0 127 0" result="hardAlpha"/>
<feOffset dx="10" dy="19"/>
<feComposite in2="hardAlpha" operator="out"/>
<feColorMatrix type="matrix" values="0 0 0 0 1 0 0 0 0 0.302885 0 0 0 0 0.697917 0 0 0 1 0"/>
<feBlend mode="normal" in2="BackgroundImageFix" result="effect1_dropShadow_19_3"/>
<feBlend mode="normal" in="SourceGraphic" in2="effect1_dropShadow_19_3" result="shape"/>
</filter>
<filter id="filter4_d_19_3" x="897.963" y="184.012" width="332.687" height="312.261" filterUnits="userSpaceOnUse" color-interpolation-filters="sRGB">
<feFlood flood-opacity="0" result="BackgroundImageFix"/>
<feColorMatrix in="SourceAlpha" type="matrix" values="0 0 0 0 0 0 0 0 0 0 0 0 0 0 0 0 0 0 127 0" result="hardAlpha"/>
<feOffset dx="10" dy="19"/>
<feComposite in2="hardAlpha" operator="out"/>
<feColorMatrix type="matrix" values="0 0 0 0 1 0 0 0 0 0.302885 0 0 0 0 0.697917 0 0 0 1 0"/>
<feBlend mode="normal" in2="BackgroundImageFix" result="effect1_dropShadow_19_3"/>
<feBlend mode="normal" in="SourceGraphic" in2="effect1_dropShadow_19_3" result="shape"/>
</filter>
<filter id="filter5_d_19_3" x="663.345" y="306.327" width="216.978" height="207.056" filterUnits="userSpaceOnUse" color-interpolation-filters="sRGB">
<feFlood flood-opacity="0" result="BackgroundImageFix"/>
<feColorMatrix in="SourceAlpha" type="matrix" values="0 0 0 0 0 0 0 0 0 0 0 0 0 0 0 0 0 0 127 0" result="hardAlpha"/>
<feOffset dx="12.3502" dy="16.8412"/>
<feComposite in2="hardAlpha" operator="out"/>
<feColorMatrix type="matrix" values="0 0 0 0 1 0 0 0 0 0.637019 0 0 0 0 0.903205 0 0 0 1 0"/>
<feBlend mode="normal" in2="BackgroundImageFix" result="effect1_dropShadow_19_3"/>
<feBlend mode="normal" in="SourceGraphic" in2="effect1_dropShadow_19_3" result="shape"/>
</filter>
<filter id="filter6_d_19_3" x="439.919" y="303.112" width="230.006" height="206.873" filterUnits="userSpaceOnUse" color-interpolation-filters="sRGB">
<feFlood flood-opacity="0" result="BackgroundImageFix"/>
<feColorMatrix in="SourceAlpha" type="matrix" values="0 0 0 0 0 0 0 0 0 0 0 0 0 0 0 0 0 0 127 0" result="hardAlpha"/>
<feOffset dx="12.3502" dy="16.8412"/>
<feComposite in2="hardAlpha" operator="out"/>
<feColorMatrix type="matrix" values="0 0 0 0 1 0 0 0 0 0.637019 0 0 0 0 0.903205 0 0 0 1 0"/>
<feBlend mode="normal" in2="BackgroundImageFix" result="effect1_dropShadow_19_3"/>
<feBlend mode="normal" in="SourceGraphic" in2="effect1_dropShadow_19_3" result="shape"/>
</filter>
<filter id="filter7_d_19_3" x="66.2885" y="153.86" width="379.613" height="362.966" filterUnits="userSpaceOnUse" color-interpolation-filters="sRGB">
<feFlood flood-opacity="0" result="BackgroundImageFix"/>
<feColorMatrix in="SourceAlpha" type="matrix" values="0 0 0 0 0 0 0 0 0 0 0 0 0 0 0 0 0 0 127 0" result="hardAlpha"/>
<feOffset dx="12.3502" dy="16.8412"/>
<feComposite in2="hardAlpha" operator="out"/>
<feColorMatrix type="matrix" values="0 0 0 0 1 0 0 0 0 0.637019 0 0 0 0 0.903205 0 0 0 1 0"/>
<feBlend mode="normal" in2="BackgroundImageFix" result="effect1_dropShadow_19_3"/>
<feBlend mode="normal" in="SourceGraphic" in2="effect1_dropShadow_19_3" result="shape"/>
</filter>
<linearGradient id="paint0_linear_19_3" x1="2023.59" y1="149.527" x2="2029.49" y2="566.176" gradientUnits="userSpaceOnUse">
<stop stop-color="white"/>
<stop offset="0.586538" stop-color="#FF50B3"/>
</linearGradient>
<linearGradient id="paint1_linear_19_3" x1="1783.16" y1="157.116" x2="1788.9" y2="562.816" gradientUnits="userSpaceOnUse">
<stop stop-color="white"/>
<stop offset="0.586538" stop-color="#FF50B3"/>
</linearGradient>
<linearGradient id="paint2_linear_19_3" x1="1603.71" y1="91.9285" x2="1603.97" y2="583.011" gradientUnits="userSpaceOnUse">
<stop stop-color="white"/>
<stop offset="0.586538" stop-color="#FF50B3"/>
</linearGradient>
<linearGradient id="paint3_linear_19_3" x1="1382.83" y1="164.385" x2="1387.96" y2="526.814" gradientUnits="userSpaceOnUse">
<stop stop-color="white"/>
<stop offset="0.586538" stop-color="#FF50B3"/>
</linearGradient>
<linearGradient id="paint4_linear_19_3" x1="1125.93" y1="14.3787" x2="1134.19" y2="597.588" gradientUnits="userSpaceOnUse">
<stop stop-color="white"/>
<stop offset="0.586538" stop-color="#FF50B3"/>
</linearGradient>
<linearGradient id="paint5_linear_19_3" x1="794.468" y1="206.73" x2="807.296" y2="594.463" gradientUnits="userSpaceOnUse">
<stop stop-color="white"/>
<stop offset="0.740385" stop-color="#FF50D3"/>
</linearGradient>
<linearGradient id="paint6_linear_19_3" x1="531.43" y1="196.608" x2="531.43" y2="599.071" gradientUnits="userSpaceOnUse">
<stop stop-color="white"/>
<stop offset="0.740385" stop-color="#FF50D3"/>
</linearGradient>
<linearGradient id="paint7_linear_19_3" x1="262.73" y1="111.915" x2="260.407" y2="638.497" gradientUnits="userSpaceOnUse">
<stop stop-color="white"/>
<stop offset="0.740385" stop-color="#FF50D3"/>
</linearGradient>
</defs>
</svg>
