<svg width="512" height="512" viewBox="0 0 512 512" fill="none" xmlns="http://www.w3.org/2000/svg">
<g clip-path="url(#clip0_48_553)">
<path fill-rule="evenodd" clip-rule="evenodd" d="M324.74 17.983C237.422 27.753 164.072 36.049 161.74 36.418C155.786 37.358 150.62 41.088 148.121 46.25L146 50.631V215.252V379.873L136.604 375.422C86.1281 351.511 21.6811 371.881 3.47306 417.5C-1.94894 431.083 -0.95594 452.112 5.73906 465.5C16.3081 486.636 36.2921 501.613 64.0221 509.182C71.5011 511.224 74.7381 511.495 91.5001 511.49C109.206 511.484 111.181 511.295 120.5 508.703C146.412 501.496 167.251 485.615 176.945 465.69C183.34 452.546 183 461.558 183 305.29C183 185.496 183.217 163 184.37 163C185.123 163 250.179 155.8 328.938 147C407.697 138.2 472.78 131 473.568 131C474.802 131 475 145.683 475 237.017V343.034L470.063 340.532C449.689 330.208 423.846 326.448 400.881 330.467C368.37 336.156 342.726 355.141 332.699 380.944C328.788 391.009 327.874 405.435 330.463 416.221C336.997 443.434 361.297 464.637 395.793 473.226C403.025 475.026 407.295 475.384 421 475.34C435.387 475.294 438.726 474.962 447.074 472.746C477.766 464.599 499.073 447.539 508.753 423.361L511.5 416.5L511.762 214.657L512.024 12.815L509.773 8.80904C508.51 6.56304 505.722 3.74904 503.423 2.40204C499.968 0.377042 498.083 0.0170423 491.412 0.109042C487.06 0.169042 412.058 8.21204 324.74 17.983Z" fill="#FF3B9D"/>
</g>
<defs>
<clipPath id="clip0_48_553">
<rect width="512" height="512" fill="white"/>
</clipPath>
</defs>
</svg>
